%TF.GenerationSoftware,KiCad,Pcbnew,8.0.1*%
%TF.CreationDate,2024-05-26T21:20:36+02:00*%
%TF.ProjectId,SDHD_Lab,53444844-5f4c-4616-922e-6b696361645f,Rev 1.2*%
%TF.SameCoordinates,Original*%
%TF.FileFunction,Legend,Bot*%
%TF.FilePolarity,Positive*%
%FSLAX46Y46*%
G04 Gerber Fmt 4.6, Leading zero omitted, Abs format (unit mm)*
G04 Created by KiCad (PCBNEW 8.0.1) date 2024-05-26 21:20:36*
%MOMM*%
%LPD*%
G01*
G04 APERTURE LIST*
%ADD10C,0.150000*%
%ADD11C,0.120000*%
G04 APERTURE END LIST*
D10*
X126064819Y-93261905D02*
X125064819Y-93261905D01*
X125064819Y-93261905D02*
X125064819Y-93642857D01*
X125064819Y-93642857D02*
X125112438Y-93738095D01*
X125112438Y-93738095D02*
X125160057Y-93785714D01*
X125160057Y-93785714D02*
X125255295Y-93833333D01*
X125255295Y-93833333D02*
X125398152Y-93833333D01*
X125398152Y-93833333D02*
X125493390Y-93785714D01*
X125493390Y-93785714D02*
X125541009Y-93738095D01*
X125541009Y-93738095D02*
X125588628Y-93642857D01*
X125588628Y-93642857D02*
X125588628Y-93261905D01*
X126064819Y-94785714D02*
X126064819Y-94214286D01*
X126064819Y-94500000D02*
X125064819Y-94500000D01*
X125064819Y-94500000D02*
X125207676Y-94404762D01*
X125207676Y-94404762D02*
X125302914Y-94309524D01*
X125302914Y-94309524D02*
X125350533Y-94214286D01*
X149454819Y-93261905D02*
X148454819Y-93261905D01*
X148454819Y-93261905D02*
X148454819Y-93642857D01*
X148454819Y-93642857D02*
X148502438Y-93738095D01*
X148502438Y-93738095D02*
X148550057Y-93785714D01*
X148550057Y-93785714D02*
X148645295Y-93833333D01*
X148645295Y-93833333D02*
X148788152Y-93833333D01*
X148788152Y-93833333D02*
X148883390Y-93785714D01*
X148883390Y-93785714D02*
X148931009Y-93738095D01*
X148931009Y-93738095D02*
X148978628Y-93642857D01*
X148978628Y-93642857D02*
X148978628Y-93261905D01*
X148454819Y-94166667D02*
X148454819Y-94785714D01*
X148454819Y-94785714D02*
X148835771Y-94452381D01*
X148835771Y-94452381D02*
X148835771Y-94595238D01*
X148835771Y-94595238D02*
X148883390Y-94690476D01*
X148883390Y-94690476D02*
X148931009Y-94738095D01*
X148931009Y-94738095D02*
X149026247Y-94785714D01*
X149026247Y-94785714D02*
X149264342Y-94785714D01*
X149264342Y-94785714D02*
X149359580Y-94738095D01*
X149359580Y-94738095D02*
X149407200Y-94690476D01*
X149407200Y-94690476D02*
X149454819Y-94595238D01*
X149454819Y-94595238D02*
X149454819Y-94309524D01*
X149454819Y-94309524D02*
X149407200Y-94214286D01*
X149407200Y-94214286D02*
X149359580Y-94166667D01*
X117454819Y-51261905D02*
X116454819Y-51261905D01*
X116454819Y-51261905D02*
X116454819Y-51642857D01*
X116454819Y-51642857D02*
X116502438Y-51738095D01*
X116502438Y-51738095D02*
X116550057Y-51785714D01*
X116550057Y-51785714D02*
X116645295Y-51833333D01*
X116645295Y-51833333D02*
X116788152Y-51833333D01*
X116788152Y-51833333D02*
X116883390Y-51785714D01*
X116883390Y-51785714D02*
X116931009Y-51738095D01*
X116931009Y-51738095D02*
X116978628Y-51642857D01*
X116978628Y-51642857D02*
X116978628Y-51261905D01*
X116550057Y-52214286D02*
X116502438Y-52261905D01*
X116502438Y-52261905D02*
X116454819Y-52357143D01*
X116454819Y-52357143D02*
X116454819Y-52595238D01*
X116454819Y-52595238D02*
X116502438Y-52690476D01*
X116502438Y-52690476D02*
X116550057Y-52738095D01*
X116550057Y-52738095D02*
X116645295Y-52785714D01*
X116645295Y-52785714D02*
X116740533Y-52785714D01*
X116740533Y-52785714D02*
X116883390Y-52738095D01*
X116883390Y-52738095D02*
X117454819Y-52166667D01*
X117454819Y-52166667D02*
X117454819Y-52785714D01*
X145454819Y-51261905D02*
X144454819Y-51261905D01*
X144454819Y-51261905D02*
X144454819Y-51642857D01*
X144454819Y-51642857D02*
X144502438Y-51738095D01*
X144502438Y-51738095D02*
X144550057Y-51785714D01*
X144550057Y-51785714D02*
X144645295Y-51833333D01*
X144645295Y-51833333D02*
X144788152Y-51833333D01*
X144788152Y-51833333D02*
X144883390Y-51785714D01*
X144883390Y-51785714D02*
X144931009Y-51738095D01*
X144931009Y-51738095D02*
X144978628Y-51642857D01*
X144978628Y-51642857D02*
X144978628Y-51261905D01*
X144788152Y-52690476D02*
X145454819Y-52690476D01*
X144407200Y-52452381D02*
X145121485Y-52214286D01*
X145121485Y-52214286D02*
X145121485Y-52833333D01*
D11*
%TO.C,P1*%
X126610000Y-96130000D02*
X127940000Y-96130000D01*
X126610000Y-97460000D02*
X126610000Y-96130000D01*
X129210000Y-98790000D02*
X129210000Y-96130000D01*
X147050000Y-96130000D02*
X129210000Y-96130000D01*
X147050000Y-98790000D02*
X129210000Y-98790000D01*
X147050000Y-98790000D02*
X147050000Y-96130000D01*
%TO.C,P3*%
X149470000Y-96130000D02*
X150800000Y-96130000D01*
X149470000Y-97460000D02*
X149470000Y-96130000D01*
X152070000Y-98790000D02*
X152070000Y-96130000D01*
X164830000Y-96130000D02*
X152070000Y-96130000D01*
X164830000Y-98790000D02*
X152070000Y-98790000D01*
X164830000Y-98790000D02*
X164830000Y-96130000D01*
%TO.C,P2*%
X117466000Y-47870000D02*
X118796000Y-47870000D01*
X117466000Y-49200000D02*
X117466000Y-47870000D01*
X120066000Y-50530000D02*
X120066000Y-47870000D01*
X142986000Y-47870000D02*
X120066000Y-47870000D01*
X142986000Y-50530000D02*
X120066000Y-50530000D01*
X142986000Y-50530000D02*
X142986000Y-47870000D01*
%TO.C,P4*%
X144390000Y-47870000D02*
X145720000Y-47870000D01*
X144390000Y-49200000D02*
X144390000Y-47870000D01*
X146990000Y-50530000D02*
X146990000Y-47870000D01*
X164830000Y-47870000D02*
X146990000Y-47870000D01*
X164830000Y-50530000D02*
X146990000Y-50530000D01*
X164830000Y-50530000D02*
X164830000Y-47870000D01*
%TD*%
M02*
