%TF.GenerationSoftware,KiCad,Pcbnew,8.0.1*%
%TF.CreationDate,2024-05-26T21:20:35+02:00*%
%TF.ProjectId,SDHD_Lab,53444844-5f4c-4616-922e-6b696361645f,Rev 1.2*%
%TF.SameCoordinates,Original*%
%TF.FileFunction,Copper,L4,Bot*%
%TF.FilePolarity,Positive*%
%FSLAX46Y46*%
G04 Gerber Fmt 4.6, Leading zero omitted, Abs format (unit mm)*
G04 Created by KiCad (PCBNEW 8.0.1) date 2024-05-26 21:20:35*
%MOMM*%
%LPD*%
G01*
G04 APERTURE LIST*
%TA.AperFunction,ComponentPad*%
%ADD10R,1.600000X1.600000*%
%TD*%
%TA.AperFunction,ComponentPad*%
%ADD11C,1.600000*%
%TD*%
%TA.AperFunction,ComponentPad*%
%ADD12R,1.700000X1.700000*%
%TD*%
%TA.AperFunction,ComponentPad*%
%ADD13O,1.700000X1.700000*%
%TD*%
%TA.AperFunction,ComponentPad*%
%ADD14O,1.600000X1.600000*%
%TD*%
%TA.AperFunction,ComponentPad*%
%ADD15R,1.800000X1.800000*%
%TD*%
%TA.AperFunction,ComponentPad*%
%ADD16C,1.800000*%
%TD*%
%TA.AperFunction,ComponentPad*%
%ADD17C,2.000000*%
%TD*%
G04 APERTURE END LIST*
D10*
%TO.P,C1,1*%
%TO.N,/VD_Input*%
X102994888Y-58800000D03*
D11*
%TO.P,C1,2*%
%TO.N,GND*%
X105494888Y-58800000D03*
%TD*%
D12*
%TO.P,J12,1,Pin_1*%
%TO.N,GND*%
X111200000Y-90875000D03*
D13*
%TO.P,J12,2,Pin_2*%
%TO.N,V_in*%
X111200000Y-93415000D03*
%TO.P,J12,3,Pin_3*%
%TO.N,+5V*%
X111200000Y-95955000D03*
%TD*%
D12*
%TO.P,J4,1,Pin_1*%
%TO.N,GND*%
X122600000Y-55000000D03*
%TD*%
%TO.P,J8,1,Pin_1*%
%TO.N,Net-(J8-Pin_1)*%
X123400000Y-77600000D03*
%TD*%
D11*
%TO.P,R8,1*%
%TO.N,+5V*%
X112000000Y-60080000D03*
D14*
%TO.P,R8,2*%
%TO.N,Net-(D4-A)*%
X112000000Y-49920000D03*
%TD*%
D12*
%TO.P,J11,1,Pin_1*%
%TO.N,V_out*%
X163400000Y-87000000D03*
%TD*%
D11*
%TO.P,R4,1*%
%TO.N,LED_ORANGE*%
X151000000Y-52920000D03*
D14*
%TO.P,R4,2*%
%TO.N,Net-(D2-A)*%
X151000000Y-63080000D03*
%TD*%
D11*
%TO.P,R5,1*%
%TO.N,Net-(C2-Pad1)*%
X102920000Y-76200000D03*
D14*
%TO.P,R5,2*%
%TO.N,Net-(J7-Pin_1)*%
X113080000Y-76200000D03*
%TD*%
D11*
%TO.P,R7 ,1*%
%TO.N,Net-(J7-Pin_1)*%
X116520000Y-72200000D03*
D14*
%TO.P,R7 ,2*%
%TO.N,Net-(J8-Pin_1)*%
X126680000Y-72200000D03*
%TD*%
D11*
%TO.P,C6,1*%
%TO.N,Net-(J9-Pin_1)*%
X130900000Y-67200000D03*
%TO.P,C6,2*%
%TO.N,Net-(J10-Pin_1)*%
X135900000Y-67200000D03*
%TD*%
%TO.P,R9,1*%
%TO.N,+5V*%
X146800000Y-78680000D03*
D14*
%TO.P,R9,2*%
%TO.N,PUSH_BUTTON*%
X146800000Y-68520000D03*
%TD*%
D10*
%TO.P,C2,1*%
%TO.N,Net-(C2-Pad1)*%
X103417621Y-83400000D03*
D11*
%TO.P,C2,2*%
%TO.N,V_in*%
X105917621Y-83400000D03*
%TD*%
D12*
%TO.P,J2,1,Pin_1*%
%TO.N,GND*%
X122600000Y-96200000D03*
%TD*%
D11*
%TO.P,R2,1*%
%TO.N,/VD_Input*%
X102920000Y-70200000D03*
D14*
%TO.P,R2,2*%
%TO.N,GND*%
X113080000Y-70200000D03*
%TD*%
D10*
%TO.P,U1,1,NC*%
%TO.N,unconnected-(U1-NC-Pad1)*%
X115600000Y-82800000D03*
D14*
%TO.P,U1,2,-*%
%TO.N,Net-(J7-Pin_1)*%
X115600000Y-85340000D03*
%TO.P,U1,3,+*%
%TO.N,/VD_Input*%
X115600000Y-87880000D03*
%TO.P,U1,4,V-*%
%TO.N,GND*%
X115600000Y-90420000D03*
%TO.P,U1,5,NC*%
%TO.N,unconnected-(U1-NC-Pad5)*%
X123220000Y-90420000D03*
%TO.P,U1,6*%
%TO.N,Net-(J8-Pin_1)*%
X123220000Y-87880000D03*
%TO.P,U1,7,V+*%
%TO.N,+5V*%
X123220000Y-85340000D03*
%TO.P,U1,8,NC*%
%TO.N,unconnected-(U1-NC-Pad8)*%
X123220000Y-82800000D03*
%TD*%
D15*
%TO.P,D1,1,K*%
%TO.N,GND*%
X160800000Y-54725000D03*
D16*
%TO.P,D1,2,A*%
%TO.N,Net-(D1-A)*%
X160800000Y-57265000D03*
%TD*%
D12*
%TO.P,J6,1,Pin_1*%
%TO.N,V_in*%
X116800000Y-96200000D03*
%TD*%
D11*
%TO.P,C3,1*%
%TO.N,Net-(J7-Pin_1)*%
X118500000Y-64400000D03*
%TO.P,C3,2*%
%TO.N,Net-(J8-Pin_1)*%
X123500000Y-64400000D03*
%TD*%
D15*
%TO.P,D4,1,K*%
%TO.N,GND*%
X105200000Y-50000000D03*
D16*
%TO.P,D4,2,A*%
%TO.N,Net-(D4-A)*%
X105200000Y-52540000D03*
%TD*%
D12*
%TO.P,J9,1,Pin_1*%
%TO.N,Net-(J9-Pin_1)*%
X129400000Y-77200000D03*
%TD*%
%TO.P,J10,1,Pin_1*%
%TO.N,Net-(J10-Pin_1)*%
X156000000Y-87000000D03*
%TD*%
D15*
%TO.P,D2,1,K*%
%TO.N,GND*%
X161000000Y-63460000D03*
D16*
%TO.P,D2,2,A*%
%TO.N,Net-(D2-A)*%
X161000000Y-66000000D03*
%TD*%
D12*
%TO.P,J5,1,Pin_1*%
%TO.N,/VD_Input*%
X118000000Y-55000000D03*
%TD*%
D11*
%TO.P,R3,1*%
%TO.N,LED_GREEN*%
X155400000Y-52920000D03*
D14*
%TO.P,R3,2*%
%TO.N,Net-(D1-A)*%
X155400000Y-63080000D03*
%TD*%
D17*
%TO.P,SW1,1,1*%
%TO.N,GND*%
X142050000Y-58250000D03*
X135550000Y-58250000D03*
%TO.P,SW1,2,2*%
%TO.N,PUSH_BUTTON*%
X142050000Y-53750000D03*
X135550000Y-53750000D03*
%TD*%
D12*
%TO.P,J3,1,Pin_1*%
%TO.N,GND*%
X163000000Y-80600000D03*
%TD*%
D10*
%TO.P,C5,1*%
%TO.N,Net-(J8-Pin_1)*%
X127817621Y-88800000D03*
D11*
%TO.P,C5,2*%
%TO.N,Net-(C5-Pad2)*%
X130317621Y-88800000D03*
%TD*%
D12*
%TO.P,J7,1,Pin_1*%
%TO.N,Net-(J7-Pin_1)*%
X118800000Y-77600000D03*
%TD*%
D11*
%TO.P,R12,1*%
%TO.N,Net-(J10-Pin_1)*%
X154920000Y-92000000D03*
D14*
%TO.P,R12,2*%
%TO.N,V_out*%
X165080000Y-92000000D03*
%TD*%
D15*
%TO.P,D3,1,K*%
%TO.N,GND*%
X161000000Y-72125000D03*
D16*
%TO.P,D3,2,A*%
%TO.N,Net-(D3-A)*%
X161000000Y-74665000D03*
%TD*%
D10*
%TO.P,U2,1,NC*%
%TO.N,unconnected-(U2-NC-Pad1)*%
X142200000Y-83200000D03*
D14*
%TO.P,U2,2,-*%
%TO.N,Net-(J9-Pin_1)*%
X142200000Y-85740000D03*
%TO.P,U2,3,+*%
%TO.N,/VD_Input*%
X142200000Y-88280000D03*
%TO.P,U2,4,V-*%
%TO.N,GND*%
X142200000Y-90820000D03*
%TO.P,U2,5,NC*%
%TO.N,unconnected-(U2-NC-Pad5)*%
X149820000Y-90820000D03*
%TO.P,U2,6*%
%TO.N,Net-(J10-Pin_1)*%
X149820000Y-88280000D03*
%TO.P,U2,7,V+*%
%TO.N,+5V*%
X149820000Y-85740000D03*
%TO.P,U2,8,NC*%
%TO.N,unconnected-(U2-NC-Pad8)*%
X149820000Y-83200000D03*
%TD*%
D11*
%TO.P,C4,1*%
%TO.N,/VD_Input*%
X135400000Y-93900000D03*
%TO.P,C4,2*%
%TO.N,GND*%
X135400000Y-88900000D03*
%TD*%
%TO.P,R1,1*%
%TO.N,+5V*%
X113080000Y-65400000D03*
D14*
%TO.P,R1,2*%
%TO.N,/VD_Input*%
X102920000Y-65400000D03*
%TD*%
D11*
%TO.P,R11,1*%
%TO.N,Net-(J9-Pin_1)*%
X140800000Y-62520000D03*
D14*
%TO.P,R11,2*%
%TO.N,Net-(J10-Pin_1)*%
X140800000Y-72680000D03*
%TD*%
D11*
%TO.P,R10,1*%
%TO.N,Net-(C5-Pad2)*%
X135400000Y-85200000D03*
D14*
%TO.P,R10,2*%
%TO.N,Net-(J9-Pin_1)*%
X135400000Y-75040000D03*
%TD*%
D12*
%TO.P,J1,1,Pin_1*%
%TO.N,+5V*%
X156800000Y-80800000D03*
%TD*%
D11*
%TO.P,R6,1*%
%TO.N,LED_RED*%
X152200000Y-68320000D03*
D14*
%TO.P,R6,2*%
%TO.N,Net-(D3-A)*%
X152200000Y-78480000D03*
%TD*%
D12*
%TO.P,P1,1,Pin_1*%
%TO.N,unconnected-(P1-Pin_1-Pad1)*%
X127940000Y-97460000D03*
D13*
%TO.P,P1,2,Pin_2*%
%TO.N,/IOREF*%
X130480000Y-97460000D03*
%TO.P,P1,3,Pin_3*%
%TO.N,/Reset*%
X133020000Y-97460000D03*
%TO.P,P1,4,Pin_4*%
%TO.N,/3.3V*%
X135560000Y-97460000D03*
%TO.P,P1,5,Pin_5*%
%TO.N,+5V*%
X138100000Y-97460000D03*
%TO.P,P1,6,Pin_6*%
%TO.N,GND*%
X140640000Y-97460000D03*
%TO.P,P1,7,Pin_7*%
X143180000Y-97460000D03*
%TO.P,P1,8,Pin_8*%
%TO.N,/Vin*%
X145720000Y-97460000D03*
%TD*%
D12*
%TO.P,P3,1,Pin_1*%
%TO.N,V_out*%
X150800000Y-97460000D03*
D13*
%TO.P,P3,2,Pin_2*%
%TO.N,/A1*%
X153340000Y-97460000D03*
%TO.P,P3,3,Pin_3*%
%TO.N,/A2*%
X155880000Y-97460000D03*
%TO.P,P3,4,Pin_4*%
%TO.N,/A3*%
X158420000Y-97460000D03*
%TO.P,P3,5,Pin_5*%
%TO.N,/A4*%
X160960000Y-97460000D03*
%TO.P,P3,6,Pin_6*%
%TO.N,/A5*%
X163500000Y-97460000D03*
%TD*%
D12*
%TO.P,P2,1,Pin_1*%
%TO.N,/SCL*%
X118796000Y-49200000D03*
D13*
%TO.P,P2,2,Pin_2*%
%TO.N,/SDA*%
X121336000Y-49200000D03*
%TO.P,P2,3,Pin_3*%
%TO.N,/AREF*%
X123876000Y-49200000D03*
%TO.P,P2,4,Pin_4*%
%TO.N,GND*%
X126416000Y-49200000D03*
%TO.P,P2,5,Pin_5*%
%TO.N,/D13*%
X128956000Y-49200000D03*
%TO.P,P2,6,Pin_6*%
%TO.N,/D12*%
X131496000Y-49200000D03*
%TO.P,P2,7,Pin_7*%
%TO.N,/D11*%
X134036000Y-49200000D03*
%TO.P,P2,8,Pin_8*%
%TO.N,/D10*%
X136576000Y-49200000D03*
%TO.P,P2,9,Pin_9*%
%TO.N,/D9*%
X139116000Y-49200000D03*
%TO.P,P2,10,Pin_10*%
%TO.N,/D8*%
X141656000Y-49200000D03*
%TD*%
D12*
%TO.P,P4,1,Pin_1*%
%TO.N,PUSH_BUTTON*%
X145720000Y-49200000D03*
D13*
%TO.P,P4,2,Pin_2*%
%TO.N,LED_RED*%
X148260000Y-49200000D03*
%TO.P,P4,3,Pin_3*%
%TO.N,LED_ORANGE*%
X150800000Y-49200000D03*
%TO.P,P4,4,Pin_4*%
%TO.N,LED_GREEN*%
X153340000Y-49200000D03*
%TO.P,P4,5,Pin_5*%
%TO.N,/D3*%
X155880000Y-49200000D03*
%TO.P,P4,6,Pin_6*%
%TO.N,/D2*%
X158420000Y-49200000D03*
%TO.P,P4,7,Pin_7*%
%TO.N,/TX{slash}D1*%
X160960000Y-49200000D03*
%TO.P,P4,8,Pin_8*%
%TO.N,/RX{slash}D0*%
X163500000Y-49200000D03*
%TD*%
%TA.AperFunction,Conductor*%
%TO.N,GND*%
G36*
X142714075Y-97267007D02*
G01*
X142680000Y-97394174D01*
X142680000Y-97525826D01*
X142714075Y-97652993D01*
X142746988Y-97710000D01*
X141073012Y-97710000D01*
X141105925Y-97652993D01*
X141140000Y-97525826D01*
X141140000Y-97394174D01*
X141105925Y-97267007D01*
X141073012Y-97210000D01*
X142746988Y-97210000D01*
X142714075Y-97267007D01*
G37*
%TD.AperFunction*%
%TA.AperFunction,Conductor*%
G36*
X163308363Y-47180185D02*
G01*
X163329005Y-47196819D01*
X163772315Y-47640129D01*
X163805800Y-47701452D01*
X163800816Y-47771144D01*
X163758944Y-47827077D01*
X163693480Y-47851494D01*
X163664226Y-47850119D01*
X163612570Y-47841500D01*
X163612569Y-47841500D01*
X163387431Y-47841500D01*
X163165362Y-47878556D01*
X162952430Y-47951656D01*
X162952419Y-47951661D01*
X162754427Y-48058808D01*
X162754422Y-48058812D01*
X162576761Y-48197092D01*
X162576756Y-48197097D01*
X162424284Y-48362723D01*
X162424276Y-48362734D01*
X162333808Y-48501206D01*
X162280662Y-48546562D01*
X162211431Y-48555986D01*
X162148095Y-48526484D01*
X162126192Y-48501206D01*
X162035723Y-48362734D01*
X162035715Y-48362723D01*
X161883243Y-48197097D01*
X161883238Y-48197092D01*
X161705577Y-48058812D01*
X161705572Y-48058808D01*
X161507580Y-47951661D01*
X161507577Y-47951659D01*
X161507574Y-47951658D01*
X161507571Y-47951657D01*
X161507569Y-47951656D01*
X161294637Y-47878556D01*
X161072569Y-47841500D01*
X160847431Y-47841500D01*
X160625362Y-47878556D01*
X160412430Y-47951656D01*
X160412419Y-47951661D01*
X160214427Y-48058808D01*
X160214422Y-48058812D01*
X160036761Y-48197092D01*
X160036756Y-48197097D01*
X159884284Y-48362723D01*
X159884276Y-48362734D01*
X159793808Y-48501206D01*
X159740662Y-48546562D01*
X159671431Y-48555986D01*
X159608095Y-48526484D01*
X159586192Y-48501206D01*
X159495723Y-48362734D01*
X159495715Y-48362723D01*
X159343243Y-48197097D01*
X159343238Y-48197092D01*
X159165577Y-48058812D01*
X159165572Y-48058808D01*
X158967580Y-47951661D01*
X158967577Y-47951659D01*
X158967574Y-47951658D01*
X158967571Y-47951657D01*
X158967569Y-47951656D01*
X158754637Y-47878556D01*
X158532569Y-47841500D01*
X158307431Y-47841500D01*
X158085362Y-47878556D01*
X157872430Y-47951656D01*
X157872419Y-47951661D01*
X157674427Y-48058808D01*
X157674422Y-48058812D01*
X157496761Y-48197092D01*
X157496756Y-48197097D01*
X157344284Y-48362723D01*
X157344276Y-48362734D01*
X157253808Y-48501206D01*
X157200662Y-48546562D01*
X157131431Y-48555986D01*
X157068095Y-48526484D01*
X157046192Y-48501206D01*
X156955723Y-48362734D01*
X156955715Y-48362723D01*
X156803243Y-48197097D01*
X156803238Y-48197092D01*
X156625577Y-48058812D01*
X156625572Y-48058808D01*
X156427580Y-47951661D01*
X156427577Y-47951659D01*
X156427574Y-47951658D01*
X156427571Y-47951657D01*
X156427569Y-47951656D01*
X156214637Y-47878556D01*
X155992569Y-47841500D01*
X155767431Y-47841500D01*
X155545362Y-47878556D01*
X155332430Y-47951656D01*
X155332419Y-47951661D01*
X155134427Y-48058808D01*
X155134422Y-48058812D01*
X154956761Y-48197092D01*
X154956756Y-48197097D01*
X154804284Y-48362723D01*
X154804276Y-48362734D01*
X154713808Y-48501206D01*
X154660662Y-48546562D01*
X154591431Y-48555986D01*
X154528095Y-48526484D01*
X154506192Y-48501206D01*
X154415723Y-48362734D01*
X154415715Y-48362723D01*
X154263243Y-48197097D01*
X154263238Y-48197092D01*
X154085577Y-48058812D01*
X154085572Y-48058808D01*
X153887580Y-47951661D01*
X153887577Y-47951659D01*
X153887574Y-47951658D01*
X153887571Y-47951657D01*
X153887569Y-47951656D01*
X153674637Y-47878556D01*
X153452569Y-47841500D01*
X153227431Y-47841500D01*
X153005362Y-47878556D01*
X152792430Y-47951656D01*
X152792419Y-47951661D01*
X152594427Y-48058808D01*
X152594422Y-48058812D01*
X152416761Y-48197092D01*
X152416756Y-48197097D01*
X152264284Y-48362723D01*
X152264276Y-48362734D01*
X152173808Y-48501206D01*
X152120662Y-48546562D01*
X152051431Y-48555986D01*
X151988095Y-48526484D01*
X151966192Y-48501206D01*
X151875723Y-48362734D01*
X151875715Y-48362723D01*
X151723243Y-48197097D01*
X151723238Y-48197092D01*
X151545577Y-48058812D01*
X151545572Y-48058808D01*
X151347580Y-47951661D01*
X151347577Y-47951659D01*
X151347574Y-47951658D01*
X151347571Y-47951657D01*
X151347569Y-47951656D01*
X151134637Y-47878556D01*
X150912569Y-47841500D01*
X150687431Y-47841500D01*
X150465362Y-47878556D01*
X150252430Y-47951656D01*
X150252419Y-47951661D01*
X150054427Y-48058808D01*
X150054422Y-48058812D01*
X149876761Y-48197092D01*
X149876756Y-48197097D01*
X149724284Y-48362723D01*
X149724276Y-48362734D01*
X149633808Y-48501206D01*
X149580662Y-48546562D01*
X149511431Y-48555986D01*
X149448095Y-48526484D01*
X149426192Y-48501206D01*
X149335723Y-48362734D01*
X149335715Y-48362723D01*
X149183243Y-48197097D01*
X149183238Y-48197092D01*
X149005577Y-48058812D01*
X149005572Y-48058808D01*
X148807580Y-47951661D01*
X148807577Y-47951659D01*
X148807574Y-47951658D01*
X148807571Y-47951657D01*
X148807569Y-47951656D01*
X148594637Y-47878556D01*
X148372569Y-47841500D01*
X148147431Y-47841500D01*
X147925362Y-47878556D01*
X147712430Y-47951656D01*
X147712419Y-47951661D01*
X147514427Y-48058808D01*
X147514422Y-48058812D01*
X147336761Y-48197092D01*
X147273548Y-48265760D01*
X147213661Y-48301750D01*
X147143823Y-48299649D01*
X147086207Y-48260124D01*
X147066138Y-48225110D01*
X147020889Y-48103796D01*
X146987214Y-48058812D01*
X146933261Y-47986739D01*
X146816204Y-47899111D01*
X146679203Y-47848011D01*
X146618654Y-47841500D01*
X146618638Y-47841500D01*
X144821362Y-47841500D01*
X144821345Y-47841500D01*
X144760797Y-47848011D01*
X144760795Y-47848011D01*
X144623795Y-47899111D01*
X144506739Y-47986739D01*
X144419111Y-48103795D01*
X144368011Y-48240795D01*
X144368011Y-48240797D01*
X144361500Y-48301345D01*
X144361500Y-50098654D01*
X144368011Y-50159202D01*
X144368011Y-50159204D01*
X144411689Y-50276306D01*
X144419111Y-50296204D01*
X144506739Y-50413261D01*
X144623796Y-50500889D01*
X144760799Y-50551989D01*
X144788050Y-50554918D01*
X144821345Y-50558499D01*
X144821362Y-50558500D01*
X146618638Y-50558500D01*
X146618654Y-50558499D01*
X146645692Y-50555591D01*
X146679201Y-50551989D01*
X146816204Y-50500889D01*
X146933261Y-50413261D01*
X147020889Y-50296204D01*
X147066138Y-50174887D01*
X147108009Y-50118956D01*
X147173474Y-50094539D01*
X147241746Y-50109391D01*
X147273545Y-50134236D01*
X147336760Y-50202906D01*
X147514424Y-50341189D01*
X147514425Y-50341189D01*
X147514427Y-50341191D01*
X147549350Y-50360090D01*
X147712426Y-50448342D01*
X147925365Y-50521444D01*
X148147431Y-50558500D01*
X148372569Y-50558500D01*
X148594635Y-50521444D01*
X148807574Y-50448342D01*
X149005576Y-50341189D01*
X149183240Y-50202906D01*
X149304594Y-50071082D01*
X149335715Y-50037276D01*
X149335715Y-50037275D01*
X149335722Y-50037268D01*
X149426193Y-49898790D01*
X149479338Y-49853437D01*
X149548569Y-49844013D01*
X149611905Y-49873515D01*
X149633804Y-49898787D01*
X149724278Y-50037268D01*
X149724283Y-50037273D01*
X149724284Y-50037276D01*
X149849868Y-50173694D01*
X149876760Y-50202906D01*
X150054424Y-50341189D01*
X150054425Y-50341189D01*
X150054427Y-50341191D01*
X150089350Y-50360090D01*
X150252426Y-50448342D01*
X150465365Y-50521444D01*
X150687431Y-50558500D01*
X150912569Y-50558500D01*
X151134635Y-50521444D01*
X151347574Y-50448342D01*
X151545576Y-50341189D01*
X151723240Y-50202906D01*
X151844594Y-50071082D01*
X151875715Y-50037276D01*
X151875715Y-50037275D01*
X151875722Y-50037268D01*
X151966193Y-49898790D01*
X152019338Y-49853437D01*
X152088569Y-49844013D01*
X152151905Y-49873515D01*
X152173804Y-49898787D01*
X152264278Y-50037268D01*
X152264283Y-50037273D01*
X152264284Y-50037276D01*
X152389868Y-50173694D01*
X152416760Y-50202906D01*
X152594424Y-50341189D01*
X152594425Y-50341189D01*
X152594427Y-50341191D01*
X152629350Y-50360090D01*
X152792426Y-50448342D01*
X153005365Y-50521444D01*
X153227431Y-50558500D01*
X153452569Y-50558500D01*
X153674635Y-50521444D01*
X153887574Y-50448342D01*
X154085576Y-50341189D01*
X154263240Y-50202906D01*
X154384594Y-50071082D01*
X154415715Y-50037276D01*
X154415715Y-50037275D01*
X154415722Y-50037268D01*
X154506193Y-49898790D01*
X154559338Y-49853437D01*
X154628569Y-49844013D01*
X154691905Y-49873515D01*
X154713804Y-49898787D01*
X154804278Y-50037268D01*
X154804283Y-50037273D01*
X154804284Y-50037276D01*
X154929868Y-50173694D01*
X154956760Y-50202906D01*
X155134424Y-50341189D01*
X155134425Y-50341189D01*
X155134427Y-50341191D01*
X155169350Y-50360090D01*
X155332426Y-50448342D01*
X155545365Y-50521444D01*
X155767431Y-50558500D01*
X155992569Y-50558500D01*
X156214635Y-50521444D01*
X156427574Y-50448342D01*
X156625576Y-50341189D01*
X156803240Y-50202906D01*
X156924594Y-50071082D01*
X156955715Y-50037276D01*
X156955715Y-50037275D01*
X156955722Y-50037268D01*
X157046193Y-49898790D01*
X157099338Y-49853437D01*
X157168569Y-49844013D01*
X157231905Y-49873515D01*
X157253804Y-49898787D01*
X157344278Y-50037268D01*
X157344283Y-50037273D01*
X157344284Y-50037276D01*
X157469868Y-50173694D01*
X157496760Y-50202906D01*
X157674424Y-50341189D01*
X157674425Y-50341189D01*
X157674427Y-50341191D01*
X157709350Y-50360090D01*
X157872426Y-50448342D01*
X158085365Y-50521444D01*
X158307431Y-50558500D01*
X158532569Y-50558500D01*
X158754635Y-50521444D01*
X158967574Y-50448342D01*
X159165576Y-50341189D01*
X159343240Y-50202906D01*
X159464594Y-50071082D01*
X159495715Y-50037276D01*
X159495715Y-50037275D01*
X159495722Y-50037268D01*
X159586193Y-49898790D01*
X159639338Y-49853437D01*
X159708569Y-49844013D01*
X159771905Y-49873515D01*
X159793804Y-49898787D01*
X159884278Y-50037268D01*
X159884283Y-50037273D01*
X159884284Y-50037276D01*
X160009868Y-50173694D01*
X160036760Y-50202906D01*
X160214424Y-50341189D01*
X160214425Y-50341189D01*
X160214427Y-50341191D01*
X160249350Y-50360090D01*
X160412426Y-50448342D01*
X160625365Y-50521444D01*
X160847431Y-50558500D01*
X161072569Y-50558500D01*
X161294635Y-50521444D01*
X161507574Y-50448342D01*
X161705576Y-50341189D01*
X161883240Y-50202906D01*
X162004594Y-50071082D01*
X162035715Y-50037276D01*
X162035715Y-50037275D01*
X162035722Y-50037268D01*
X162126193Y-49898790D01*
X162179338Y-49853437D01*
X162248569Y-49844013D01*
X162311905Y-49873515D01*
X162333804Y-49898787D01*
X162424278Y-50037268D01*
X162424283Y-50037273D01*
X162424284Y-50037276D01*
X162549868Y-50173694D01*
X162576760Y-50202906D01*
X162754424Y-50341189D01*
X162754425Y-50341189D01*
X162754427Y-50341191D01*
X162789350Y-50360090D01*
X162952426Y-50448342D01*
X163165365Y-50521444D01*
X163387431Y-50558500D01*
X163612569Y-50558500D01*
X163834635Y-50521444D01*
X164047574Y-50448342D01*
X164245576Y-50341189D01*
X164423240Y-50202906D01*
X164544594Y-50071082D01*
X164575715Y-50037276D01*
X164575717Y-50037273D01*
X164575722Y-50037268D01*
X164698860Y-49848791D01*
X164789296Y-49642616D01*
X164844564Y-49424368D01*
X164848987Y-49370995D01*
X164863156Y-49200005D01*
X164863156Y-49199995D01*
X164852856Y-49075700D01*
X164848713Y-49025704D01*
X164862793Y-48957269D01*
X164911638Y-48907310D01*
X164979739Y-48891689D01*
X165045475Y-48915366D01*
X165059970Y-48927784D01*
X165503181Y-49370995D01*
X165536666Y-49432318D01*
X165539500Y-49458676D01*
X165539500Y-59425891D01*
X165573608Y-59553187D01*
X165591349Y-59583915D01*
X165639500Y-59667314D01*
X165639502Y-59667316D01*
X168043181Y-62070995D01*
X168076666Y-62132318D01*
X168079500Y-62158676D01*
X168079500Y-95931324D01*
X168059815Y-95998363D01*
X168043181Y-96019005D01*
X165639502Y-98422683D01*
X165639500Y-98422686D01*
X165573608Y-98536812D01*
X165539500Y-98664108D01*
X165539500Y-99228242D01*
X165537973Y-99247641D01*
X165529773Y-99299411D01*
X165517785Y-99336307D01*
X165498474Y-99374207D01*
X165475670Y-99405593D01*
X165445593Y-99435670D01*
X165414207Y-99458474D01*
X165376307Y-99477785D01*
X165339411Y-99489773D01*
X165309068Y-99494579D01*
X165287639Y-99497973D01*
X165268243Y-99499500D01*
X100771757Y-99499500D01*
X100752360Y-99497973D01*
X100718098Y-99492546D01*
X100700588Y-99489773D01*
X100663695Y-99477786D01*
X100625790Y-99458472D01*
X100594406Y-99435670D01*
X100564329Y-99405593D01*
X100541528Y-99374211D01*
X100522212Y-99336301D01*
X100510227Y-99299417D01*
X100502025Y-99247630D01*
X100500500Y-99228242D01*
X100500500Y-98358654D01*
X126581500Y-98358654D01*
X126588011Y-98419202D01*
X126588011Y-98419204D01*
X126631878Y-98536812D01*
X126639111Y-98556204D01*
X126726739Y-98673261D01*
X126843796Y-98760889D01*
X126980799Y-98811989D01*
X127008050Y-98814918D01*
X127041345Y-98818499D01*
X127041362Y-98818500D01*
X128838638Y-98818500D01*
X128838654Y-98818499D01*
X128865692Y-98815591D01*
X128899201Y-98811989D01*
X129036204Y-98760889D01*
X129153261Y-98673261D01*
X129240889Y-98556204D01*
X129286138Y-98434887D01*
X129328009Y-98378956D01*
X129393474Y-98354539D01*
X129461746Y-98369391D01*
X129493545Y-98394236D01*
X129556760Y-98462906D01*
X129734424Y-98601189D01*
X129734425Y-98601189D01*
X129734427Y-98601191D01*
X129794314Y-98633600D01*
X129932426Y-98708342D01*
X130145365Y-98781444D01*
X130367431Y-98818500D01*
X130592569Y-98818500D01*
X130814635Y-98781444D01*
X131027574Y-98708342D01*
X131225576Y-98601189D01*
X131403240Y-98462906D01*
X131524594Y-98331082D01*
X131555715Y-98297276D01*
X131555715Y-98297275D01*
X131555722Y-98297268D01*
X131646193Y-98158790D01*
X131699338Y-98113437D01*
X131768569Y-98104013D01*
X131831905Y-98133515D01*
X131853804Y-98158787D01*
X131944278Y-98297268D01*
X131944283Y-98297273D01*
X131944284Y-98297276D01*
X132070968Y-98434889D01*
X132096760Y-98462906D01*
X132274424Y-98601189D01*
X132274425Y-98601189D01*
X132274427Y-98601191D01*
X132334314Y-98633600D01*
X132472426Y-98708342D01*
X132685365Y-98781444D01*
X132907431Y-98818500D01*
X133132569Y-98818500D01*
X133354635Y-98781444D01*
X133567574Y-98708342D01*
X133765576Y-98601189D01*
X133943240Y-98462906D01*
X134064594Y-98331082D01*
X134095715Y-98297276D01*
X134095715Y-98297275D01*
X134095722Y-98297268D01*
X134186193Y-98158790D01*
X134239338Y-98113437D01*
X134308569Y-98104013D01*
X134371905Y-98133515D01*
X134393804Y-98158787D01*
X134484278Y-98297268D01*
X134484283Y-98297273D01*
X134484284Y-98297276D01*
X134610968Y-98434889D01*
X134636760Y-98462906D01*
X134814424Y-98601189D01*
X134814425Y-98601189D01*
X134814427Y-98601191D01*
X134874314Y-98633600D01*
X135012426Y-98708342D01*
X135225365Y-98781444D01*
X135447431Y-98818500D01*
X135672569Y-98818500D01*
X135894635Y-98781444D01*
X136107574Y-98708342D01*
X136305576Y-98601189D01*
X136483240Y-98462906D01*
X136604594Y-98331082D01*
X136635715Y-98297276D01*
X136635715Y-98297275D01*
X136635722Y-98297268D01*
X136726193Y-98158790D01*
X136779338Y-98113437D01*
X136848569Y-98104013D01*
X136911905Y-98133515D01*
X136933804Y-98158787D01*
X137024278Y-98297268D01*
X137024283Y-98297273D01*
X137024284Y-98297276D01*
X137150968Y-98434889D01*
X137176760Y-98462906D01*
X137354424Y-98601189D01*
X137354425Y-98601189D01*
X137354427Y-98601191D01*
X137414314Y-98633600D01*
X137552426Y-98708342D01*
X137765365Y-98781444D01*
X137987431Y-98818500D01*
X138212569Y-98818500D01*
X138434635Y-98781444D01*
X138647574Y-98708342D01*
X138845576Y-98601189D01*
X139023240Y-98462906D01*
X139144594Y-98331082D01*
X139175715Y-98297276D01*
X139175715Y-98297275D01*
X139175722Y-98297268D01*
X139269749Y-98153347D01*
X139322894Y-98107994D01*
X139392125Y-98098570D01*
X139455461Y-98128072D01*
X139475130Y-98150048D01*
X139601890Y-98331078D01*
X139768917Y-98498105D01*
X139962421Y-98633600D01*
X140176507Y-98733429D01*
X140176516Y-98733433D01*
X140390000Y-98790634D01*
X140390000Y-97893012D01*
X140447007Y-97925925D01*
X140574174Y-97960000D01*
X140705826Y-97960000D01*
X140832993Y-97925925D01*
X140890000Y-97893012D01*
X140890000Y-98790633D01*
X141103483Y-98733433D01*
X141103492Y-98733429D01*
X141317578Y-98633600D01*
X141511082Y-98498105D01*
X141678105Y-98331082D01*
X141808425Y-98144968D01*
X141863002Y-98101344D01*
X141932501Y-98094151D01*
X141994855Y-98125673D01*
X142011575Y-98144968D01*
X142141894Y-98331082D01*
X142308917Y-98498105D01*
X142502421Y-98633600D01*
X142716507Y-98733429D01*
X142716516Y-98733433D01*
X142930000Y-98790634D01*
X142930000Y-97893012D01*
X142987007Y-97925925D01*
X143114174Y-97960000D01*
X143245826Y-97960000D01*
X143372993Y-97925925D01*
X143430000Y-97893012D01*
X143430000Y-98790633D01*
X143643483Y-98733433D01*
X143643492Y-98733429D01*
X143857578Y-98633600D01*
X144051082Y-98498105D01*
X144218105Y-98331082D01*
X144344868Y-98150048D01*
X144399445Y-98106423D01*
X144468944Y-98099231D01*
X144531298Y-98130753D01*
X144550251Y-98153350D01*
X144644276Y-98297265D01*
X144644284Y-98297276D01*
X144770968Y-98434889D01*
X144796760Y-98462906D01*
X144974424Y-98601189D01*
X144974425Y-98601189D01*
X144974427Y-98601191D01*
X145034314Y-98633600D01*
X145172426Y-98708342D01*
X145385365Y-98781444D01*
X145607431Y-98818500D01*
X145832569Y-98818500D01*
X146054635Y-98781444D01*
X146267574Y-98708342D01*
X146465576Y-98601189D01*
X146643240Y-98462906D01*
X146739212Y-98358654D01*
X149441500Y-98358654D01*
X149448011Y-98419202D01*
X149448011Y-98419204D01*
X149491878Y-98536812D01*
X149499111Y-98556204D01*
X149586739Y-98673261D01*
X149703796Y-98760889D01*
X149840799Y-98811989D01*
X149868050Y-98814918D01*
X149901345Y-98818499D01*
X149901362Y-98818500D01*
X151698638Y-98818500D01*
X151698654Y-98818499D01*
X151725692Y-98815591D01*
X151759201Y-98811989D01*
X151896204Y-98760889D01*
X152013261Y-98673261D01*
X152100889Y-98556204D01*
X152146138Y-98434887D01*
X152188009Y-98378956D01*
X152253474Y-98354539D01*
X152321746Y-98369391D01*
X152353545Y-98394236D01*
X152416760Y-98462906D01*
X152594424Y-98601189D01*
X152594425Y-98601189D01*
X152594427Y-98601191D01*
X152654314Y-98633600D01*
X152792426Y-98708342D01*
X153005365Y-98781444D01*
X153227431Y-98818500D01*
X153452569Y-98818500D01*
X153674635Y-98781444D01*
X153887574Y-98708342D01*
X154085576Y-98601189D01*
X154263240Y-98462906D01*
X154384594Y-98331082D01*
X154415715Y-98297276D01*
X154415715Y-98297275D01*
X154415722Y-98297268D01*
X154506193Y-98158790D01*
X154559338Y-98113437D01*
X154628569Y-98104013D01*
X154691905Y-98133515D01*
X154713804Y-98158787D01*
X154804278Y-98297268D01*
X154804283Y-98297273D01*
X154804284Y-98297276D01*
X154930968Y-98434889D01*
X154956760Y-98462906D01*
X155134424Y-98601189D01*
X155134425Y-98601189D01*
X155134427Y-98601191D01*
X155194314Y-98633600D01*
X155332426Y-98708342D01*
X155545365Y-98781444D01*
X155767431Y-98818500D01*
X155992569Y-98818500D01*
X156214635Y-98781444D01*
X156427574Y-98708342D01*
X156625576Y-98601189D01*
X156803240Y-98462906D01*
X156924594Y-98331082D01*
X156955715Y-98297276D01*
X156955715Y-98297275D01*
X156955722Y-98297268D01*
X157046193Y-98158790D01*
X157099338Y-98113437D01*
X157168569Y-98104013D01*
X157231905Y-98133515D01*
X157253804Y-98158787D01*
X157344278Y-98297268D01*
X157344283Y-98297273D01*
X157344284Y-98297276D01*
X157470968Y-98434889D01*
X157496760Y-98462906D01*
X157674424Y-98601189D01*
X157674425Y-98601189D01*
X157674427Y-98601191D01*
X157734314Y-98633600D01*
X157872426Y-98708342D01*
X158085365Y-98781444D01*
X158307431Y-98818500D01*
X158532569Y-98818500D01*
X158754635Y-98781444D01*
X158967574Y-98708342D01*
X159165576Y-98601189D01*
X159343240Y-98462906D01*
X159464594Y-98331082D01*
X159495715Y-98297276D01*
X159495715Y-98297275D01*
X159495722Y-98297268D01*
X159586193Y-98158790D01*
X159639338Y-98113437D01*
X159708569Y-98104013D01*
X159771905Y-98133515D01*
X159793804Y-98158787D01*
X159884278Y-98297268D01*
X159884283Y-98297273D01*
X159884284Y-98297276D01*
X160010968Y-98434889D01*
X160036760Y-98462906D01*
X160214424Y-98601189D01*
X160214425Y-98601189D01*
X160214427Y-98601191D01*
X160274314Y-98633600D01*
X160412426Y-98708342D01*
X160625365Y-98781444D01*
X160847431Y-98818500D01*
X161072569Y-98818500D01*
X161294635Y-98781444D01*
X161507574Y-98708342D01*
X161705576Y-98601189D01*
X161883240Y-98462906D01*
X162004594Y-98331082D01*
X162035715Y-98297276D01*
X162035715Y-98297275D01*
X162035722Y-98297268D01*
X162126193Y-98158790D01*
X162179338Y-98113437D01*
X162248569Y-98104013D01*
X162311905Y-98133515D01*
X162333804Y-98158787D01*
X162424278Y-98297268D01*
X162424283Y-98297273D01*
X162424284Y-98297276D01*
X162550968Y-98434889D01*
X162576760Y-98462906D01*
X162754424Y-98601189D01*
X162754425Y-98601189D01*
X162754427Y-98601191D01*
X162814314Y-98633600D01*
X162952426Y-98708342D01*
X163165365Y-98781444D01*
X163387431Y-98818500D01*
X163612569Y-98818500D01*
X163834635Y-98781444D01*
X164047574Y-98708342D01*
X164245576Y-98601189D01*
X164423240Y-98462906D01*
X164544594Y-98331082D01*
X164575715Y-98297276D01*
X164575717Y-98297273D01*
X164575722Y-98297268D01*
X164698860Y-98108791D01*
X164789296Y-97902616D01*
X164844564Y-97684368D01*
X164854994Y-97558499D01*
X164863156Y-97460005D01*
X164863156Y-97459994D01*
X164844565Y-97235640D01*
X164844563Y-97235628D01*
X164789296Y-97017385D01*
X164779071Y-96994075D01*
X164698860Y-96811209D01*
X164686490Y-96792276D01*
X164575723Y-96622734D01*
X164575715Y-96622723D01*
X164423243Y-96457097D01*
X164423238Y-96457092D01*
X164245577Y-96318812D01*
X164245572Y-96318808D01*
X164047580Y-96211661D01*
X164047577Y-96211659D01*
X164047574Y-96211658D01*
X164047571Y-96211657D01*
X164047569Y-96211656D01*
X163834637Y-96138556D01*
X163612569Y-96101500D01*
X163387431Y-96101500D01*
X163165362Y-96138556D01*
X162952430Y-96211656D01*
X162952419Y-96211661D01*
X162754427Y-96318808D01*
X162754422Y-96318812D01*
X162576761Y-96457092D01*
X162576756Y-96457097D01*
X162424284Y-96622723D01*
X162424276Y-96622734D01*
X162333808Y-96761206D01*
X162280662Y-96806562D01*
X162211431Y-96815986D01*
X162148095Y-96786484D01*
X162126192Y-96761206D01*
X162035723Y-96622734D01*
X162035715Y-96622723D01*
X161883243Y-96457097D01*
X161883238Y-96457092D01*
X161705577Y-96318812D01*
X161705572Y-96318808D01*
X161507580Y-96211661D01*
X161507577Y-96211659D01*
X161507574Y-96211658D01*
X161507571Y-96211657D01*
X161507569Y-96211656D01*
X161294637Y-96138556D01*
X161072569Y-96101500D01*
X160847431Y-96101500D01*
X160625362Y-96138556D01*
X160412430Y-96211656D01*
X160412419Y-96211661D01*
X160214427Y-96318808D01*
X160214422Y-96318812D01*
X160036761Y-96457092D01*
X160036756Y-96457097D01*
X159884284Y-96622723D01*
X159884276Y-96622734D01*
X159793808Y-96761206D01*
X159740662Y-96806562D01*
X159671431Y-96815986D01*
X159608095Y-96786484D01*
X159586192Y-96761206D01*
X159495723Y-96622734D01*
X159495715Y-96622723D01*
X159343243Y-96457097D01*
X159343238Y-96457092D01*
X159165577Y-96318812D01*
X159165572Y-96318808D01*
X158967580Y-96211661D01*
X158967577Y-96211659D01*
X158967574Y-96211658D01*
X158967571Y-96211657D01*
X158967569Y-96211656D01*
X158754637Y-96138556D01*
X158532569Y-96101500D01*
X158307431Y-96101500D01*
X158085362Y-96138556D01*
X157872430Y-96211656D01*
X157872419Y-96211661D01*
X157674427Y-96318808D01*
X157674422Y-96318812D01*
X157496761Y-96457092D01*
X157496756Y-96457097D01*
X157344284Y-96622723D01*
X157344276Y-96622734D01*
X157253808Y-96761206D01*
X157200662Y-96806562D01*
X157131431Y-96815986D01*
X157068095Y-96786484D01*
X157046192Y-96761206D01*
X156955723Y-96622734D01*
X156955715Y-96622723D01*
X156803243Y-96457097D01*
X156803238Y-96457092D01*
X156625577Y-96318812D01*
X156625572Y-96318808D01*
X156427580Y-96211661D01*
X156427577Y-96211659D01*
X156427574Y-96211658D01*
X156427571Y-96211657D01*
X156427569Y-96211656D01*
X156214637Y-96138556D01*
X155992569Y-96101500D01*
X155767431Y-96101500D01*
X155545362Y-96138556D01*
X155332430Y-96211656D01*
X155332419Y-96211661D01*
X155134427Y-96318808D01*
X155134422Y-96318812D01*
X154956761Y-96457092D01*
X154956756Y-96457097D01*
X154804284Y-96622723D01*
X154804276Y-96622734D01*
X154713808Y-96761206D01*
X154660662Y-96806562D01*
X154591431Y-96815986D01*
X154528095Y-96786484D01*
X154506192Y-96761206D01*
X154415723Y-96622734D01*
X154415715Y-96622723D01*
X154263243Y-96457097D01*
X154263238Y-96457092D01*
X154085577Y-96318812D01*
X154085572Y-96318808D01*
X153887580Y-96211661D01*
X153887577Y-96211659D01*
X153887574Y-96211658D01*
X153887571Y-96211657D01*
X153887569Y-96211656D01*
X153674637Y-96138556D01*
X153452569Y-96101500D01*
X153227431Y-96101500D01*
X153005362Y-96138556D01*
X152792430Y-96211656D01*
X152792419Y-96211661D01*
X152594427Y-96318808D01*
X152594422Y-96318812D01*
X152416761Y-96457092D01*
X152353548Y-96525760D01*
X152293661Y-96561750D01*
X152223823Y-96559649D01*
X152166207Y-96520124D01*
X152146138Y-96485110D01*
X152100889Y-96363796D01*
X152067214Y-96318812D01*
X152013261Y-96246739D01*
X151896204Y-96159111D01*
X151759203Y-96108011D01*
X151698654Y-96101500D01*
X151698638Y-96101500D01*
X149901362Y-96101500D01*
X149901345Y-96101500D01*
X149840797Y-96108011D01*
X149840795Y-96108011D01*
X149703795Y-96159111D01*
X149586739Y-96246739D01*
X149499111Y-96363795D01*
X149448011Y-96500795D01*
X149448011Y-96500797D01*
X149441500Y-96561345D01*
X149441500Y-98358654D01*
X146739212Y-98358654D01*
X146764594Y-98331082D01*
X146795715Y-98297276D01*
X146795717Y-98297273D01*
X146795722Y-98297268D01*
X146918860Y-98108791D01*
X147009296Y-97902616D01*
X147064564Y-97684368D01*
X147074994Y-97558499D01*
X147083156Y-97460005D01*
X147083156Y-97459994D01*
X147064565Y-97235640D01*
X147064563Y-97235628D01*
X147009296Y-97017385D01*
X146999071Y-96994075D01*
X146918860Y-96811209D01*
X146906490Y-96792276D01*
X146795723Y-96622734D01*
X146795715Y-96622723D01*
X146643243Y-96457097D01*
X146643238Y-96457092D01*
X146465577Y-96318812D01*
X146465572Y-96318808D01*
X146267580Y-96211661D01*
X146267577Y-96211659D01*
X146267574Y-96211658D01*
X146267571Y-96211657D01*
X146267569Y-96211656D01*
X146054637Y-96138556D01*
X145832569Y-96101500D01*
X145607431Y-96101500D01*
X145385362Y-96138556D01*
X145172430Y-96211656D01*
X145172419Y-96211661D01*
X144974427Y-96318808D01*
X144974422Y-96318812D01*
X144796761Y-96457092D01*
X144796756Y-96457097D01*
X144644284Y-96622723D01*
X144644276Y-96622734D01*
X144550251Y-96766650D01*
X144497105Y-96812007D01*
X144427873Y-96821430D01*
X144364538Y-96791928D01*
X144344868Y-96769951D01*
X144218113Y-96588926D01*
X144218108Y-96588920D01*
X144051082Y-96421894D01*
X143857578Y-96286399D01*
X143643492Y-96186570D01*
X143643486Y-96186567D01*
X143430000Y-96129364D01*
X143430000Y-97026988D01*
X143372993Y-96994075D01*
X143245826Y-96960000D01*
X143114174Y-96960000D01*
X142987007Y-96994075D01*
X142930000Y-97026988D01*
X142930000Y-96129364D01*
X142929999Y-96129364D01*
X142716513Y-96186567D01*
X142716507Y-96186570D01*
X142502422Y-96286399D01*
X142502420Y-96286400D01*
X142308926Y-96421886D01*
X142308920Y-96421891D01*
X142141891Y-96588920D01*
X142141890Y-96588922D01*
X142011575Y-96775031D01*
X141956998Y-96818655D01*
X141887499Y-96825848D01*
X141825145Y-96794326D01*
X141808425Y-96775031D01*
X141678109Y-96588922D01*
X141678108Y-96588920D01*
X141511082Y-96421894D01*
X141317578Y-96286399D01*
X141103492Y-96186570D01*
X141103486Y-96186567D01*
X140890000Y-96129364D01*
X140890000Y-97026988D01*
X140832993Y-96994075D01*
X140705826Y-96960000D01*
X140574174Y-96960000D01*
X140447007Y-96994075D01*
X140390000Y-97026988D01*
X140390000Y-96129364D01*
X140389999Y-96129364D01*
X140176513Y-96186567D01*
X140176507Y-96186570D01*
X139962422Y-96286399D01*
X139962420Y-96286400D01*
X139768926Y-96421886D01*
X139768920Y-96421891D01*
X139601891Y-96588920D01*
X139601890Y-96588922D01*
X139475131Y-96769952D01*
X139420554Y-96813577D01*
X139351055Y-96820769D01*
X139288701Y-96789247D01*
X139269752Y-96766656D01*
X139175722Y-96622732D01*
X139175715Y-96622725D01*
X139175715Y-96622723D01*
X139023243Y-96457097D01*
X139023238Y-96457092D01*
X138845577Y-96318812D01*
X138845572Y-96318808D01*
X138647580Y-96211661D01*
X138647577Y-96211659D01*
X138647574Y-96211658D01*
X138647571Y-96211657D01*
X138647569Y-96211656D01*
X138434637Y-96138556D01*
X138212569Y-96101500D01*
X137987431Y-96101500D01*
X137765362Y-96138556D01*
X137552430Y-96211656D01*
X137552419Y-96211661D01*
X137354427Y-96318808D01*
X137354422Y-96318812D01*
X137176761Y-96457092D01*
X137176756Y-96457097D01*
X137024284Y-96622723D01*
X137024276Y-96622734D01*
X136933808Y-96761206D01*
X136880662Y-96806562D01*
X136811431Y-96815986D01*
X136748095Y-96786484D01*
X136726192Y-96761206D01*
X136635723Y-96622734D01*
X136635715Y-96622723D01*
X136483243Y-96457097D01*
X136483238Y-96457092D01*
X136305577Y-96318812D01*
X136305572Y-96318808D01*
X136107580Y-96211661D01*
X136107577Y-96211659D01*
X136107574Y-96211658D01*
X136107571Y-96211657D01*
X136107569Y-96211656D01*
X135894637Y-96138556D01*
X135672569Y-96101500D01*
X135447431Y-96101500D01*
X135225362Y-96138556D01*
X135012430Y-96211656D01*
X135012419Y-96211661D01*
X134814427Y-96318808D01*
X134814422Y-96318812D01*
X134636761Y-96457092D01*
X134636756Y-96457097D01*
X134484284Y-96622723D01*
X134484276Y-96622734D01*
X134393808Y-96761206D01*
X134340662Y-96806562D01*
X134271431Y-96815986D01*
X134208095Y-96786484D01*
X134186192Y-96761206D01*
X134095723Y-96622734D01*
X134095715Y-96622723D01*
X133943243Y-96457097D01*
X133943238Y-96457092D01*
X133765577Y-96318812D01*
X133765572Y-96318808D01*
X133567580Y-96211661D01*
X133567577Y-96211659D01*
X133567574Y-96211658D01*
X133567571Y-96211657D01*
X133567569Y-96211656D01*
X133354637Y-96138556D01*
X133132569Y-96101500D01*
X132907431Y-96101500D01*
X132685362Y-96138556D01*
X132472430Y-96211656D01*
X132472419Y-96211661D01*
X132274427Y-96318808D01*
X132274422Y-96318812D01*
X132096761Y-96457092D01*
X132096756Y-96457097D01*
X131944284Y-96622723D01*
X131944276Y-96622734D01*
X131853808Y-96761206D01*
X131800662Y-96806562D01*
X131731431Y-96815986D01*
X131668095Y-96786484D01*
X131646192Y-96761206D01*
X131555723Y-96622734D01*
X131555715Y-96622723D01*
X131403243Y-96457097D01*
X131403238Y-96457092D01*
X131225577Y-96318812D01*
X131225572Y-96318808D01*
X131027580Y-96211661D01*
X131027577Y-96211659D01*
X131027574Y-96211658D01*
X131027571Y-96211657D01*
X131027569Y-96211656D01*
X130814637Y-96138556D01*
X130592569Y-96101500D01*
X130367431Y-96101500D01*
X130145362Y-96138556D01*
X129932430Y-96211656D01*
X129932419Y-96211661D01*
X129734427Y-96318808D01*
X129734422Y-96318812D01*
X129556761Y-96457092D01*
X129493548Y-96525760D01*
X129433661Y-96561750D01*
X129363823Y-96559649D01*
X129306207Y-96520124D01*
X129286138Y-96485110D01*
X129240889Y-96363796D01*
X129207214Y-96318812D01*
X129153261Y-96246739D01*
X129036204Y-96159111D01*
X128899203Y-96108011D01*
X128838654Y-96101500D01*
X128838638Y-96101500D01*
X127041362Y-96101500D01*
X127041345Y-96101500D01*
X126980797Y-96108011D01*
X126980795Y-96108011D01*
X126843795Y-96159111D01*
X126726739Y-96246739D01*
X126639111Y-96363795D01*
X126588011Y-96500795D01*
X126588011Y-96500797D01*
X126581500Y-96561345D01*
X126581500Y-98358654D01*
X100500500Y-98358654D01*
X100500500Y-95955005D01*
X109836844Y-95955005D01*
X109855434Y-96179359D01*
X109855436Y-96179371D01*
X109910703Y-96397614D01*
X110001140Y-96603792D01*
X110124276Y-96792265D01*
X110124284Y-96792276D01*
X110276756Y-96957902D01*
X110276760Y-96957906D01*
X110454424Y-97096189D01*
X110454425Y-97096189D01*
X110454427Y-97096191D01*
X110570860Y-97159201D01*
X110652426Y-97203342D01*
X110865365Y-97276444D01*
X111087431Y-97313500D01*
X111312569Y-97313500D01*
X111534635Y-97276444D01*
X111747574Y-97203342D01*
X111941021Y-97098654D01*
X115441500Y-97098654D01*
X115448011Y-97159202D01*
X115448011Y-97159204D01*
X115488221Y-97267007D01*
X115499111Y-97296204D01*
X115586739Y-97413261D01*
X115703796Y-97500889D01*
X115818297Y-97543596D01*
X115835463Y-97549999D01*
X115840799Y-97551989D01*
X115868050Y-97554918D01*
X115901345Y-97558499D01*
X115901362Y-97558500D01*
X117698638Y-97558500D01*
X117698654Y-97558499D01*
X117725692Y-97555591D01*
X117759201Y-97551989D01*
X117764537Y-97549999D01*
X117781703Y-97543596D01*
X117896204Y-97500889D01*
X118013261Y-97413261D01*
X118100889Y-97296204D01*
X118151989Y-97159201D01*
X118155591Y-97125692D01*
X118158499Y-97098654D01*
X118158500Y-97098637D01*
X118158500Y-97097844D01*
X121250000Y-97097844D01*
X121256401Y-97157372D01*
X121256403Y-97157379D01*
X121306645Y-97292086D01*
X121306649Y-97292093D01*
X121392809Y-97407187D01*
X121392812Y-97407190D01*
X121507906Y-97493350D01*
X121507913Y-97493354D01*
X121642620Y-97543596D01*
X121642627Y-97543598D01*
X121702155Y-97549999D01*
X121702172Y-97550000D01*
X122350000Y-97550000D01*
X122350000Y-96633012D01*
X122407007Y-96665925D01*
X122534174Y-96700000D01*
X122665826Y-96700000D01*
X122792993Y-96665925D01*
X122850000Y-96633012D01*
X122850000Y-97550000D01*
X123497828Y-97550000D01*
X123497844Y-97549999D01*
X123557372Y-97543598D01*
X123557379Y-97543596D01*
X123692086Y-97493354D01*
X123692093Y-97493350D01*
X123807187Y-97407190D01*
X123807190Y-97407187D01*
X123893350Y-97292093D01*
X123893354Y-97292086D01*
X123943596Y-97157379D01*
X123943598Y-97157372D01*
X123949999Y-97097844D01*
X123950000Y-97097827D01*
X123950000Y-96450000D01*
X123033012Y-96450000D01*
X123065925Y-96392993D01*
X123100000Y-96265826D01*
X123100000Y-96134174D01*
X123065925Y-96007007D01*
X123033012Y-95950000D01*
X123950000Y-95950000D01*
X123950000Y-95302172D01*
X123949999Y-95302155D01*
X123943598Y-95242627D01*
X123943596Y-95242620D01*
X123893354Y-95107913D01*
X123893350Y-95107906D01*
X123807190Y-94992812D01*
X123807187Y-94992809D01*
X123692093Y-94906649D01*
X123692086Y-94906645D01*
X123557379Y-94856403D01*
X123557372Y-94856401D01*
X123497844Y-94850000D01*
X122850000Y-94850000D01*
X122850000Y-95766988D01*
X122792993Y-95734075D01*
X122665826Y-95700000D01*
X122534174Y-95700000D01*
X122407007Y-95734075D01*
X122350000Y-95766988D01*
X122350000Y-94850000D01*
X121702155Y-94850000D01*
X121642627Y-94856401D01*
X121642620Y-94856403D01*
X121507913Y-94906645D01*
X121507906Y-94906649D01*
X121392812Y-94992809D01*
X121392809Y-94992812D01*
X121306649Y-95107906D01*
X121306645Y-95107913D01*
X121256403Y-95242620D01*
X121256401Y-95242627D01*
X121250000Y-95302155D01*
X121250000Y-95950000D01*
X122166988Y-95950000D01*
X122134075Y-96007007D01*
X122100000Y-96134174D01*
X122100000Y-96265826D01*
X122134075Y-96392993D01*
X122166988Y-96450000D01*
X121250000Y-96450000D01*
X121250000Y-97097844D01*
X118158500Y-97097844D01*
X118158500Y-95301362D01*
X118158499Y-95301345D01*
X118155157Y-95270270D01*
X118151989Y-95240799D01*
X118100889Y-95103796D01*
X118013261Y-94986739D01*
X117896204Y-94899111D01*
X117759203Y-94848011D01*
X117698654Y-94841500D01*
X117698638Y-94841500D01*
X115901362Y-94841500D01*
X115901345Y-94841500D01*
X115840797Y-94848011D01*
X115840795Y-94848011D01*
X115703795Y-94899111D01*
X115586739Y-94986739D01*
X115499111Y-95103795D01*
X115448011Y-95240795D01*
X115448011Y-95240797D01*
X115441500Y-95301345D01*
X115441500Y-97098654D01*
X111941021Y-97098654D01*
X111945576Y-97096189D01*
X112123240Y-96957906D01*
X112253888Y-96815986D01*
X112275715Y-96792276D01*
X112275716Y-96792274D01*
X112275722Y-96792268D01*
X112398860Y-96603791D01*
X112489296Y-96397616D01*
X112544564Y-96179368D01*
X112550477Y-96108011D01*
X112563156Y-95955005D01*
X112563156Y-95954994D01*
X112544565Y-95730640D01*
X112544563Y-95730628D01*
X112489296Y-95512385D01*
X112398859Y-95306207D01*
X112325251Y-95193542D01*
X112275722Y-95117732D01*
X112275719Y-95117729D01*
X112275715Y-95117723D01*
X112123243Y-94952097D01*
X112123238Y-94952092D01*
X111945577Y-94813812D01*
X111945578Y-94813812D01*
X111945576Y-94813811D01*
X111909070Y-94794055D01*
X111859479Y-94744836D01*
X111844371Y-94676619D01*
X111868541Y-94611064D01*
X111909070Y-94575945D01*
X111909084Y-94575936D01*
X111945576Y-94556189D01*
X112123240Y-94417906D01*
X112275722Y-94252268D01*
X112398860Y-94063791D01*
X112470704Y-93900001D01*
X134086502Y-93900001D01*
X134106456Y-94128081D01*
X134106457Y-94128089D01*
X134165714Y-94349238D01*
X134165718Y-94349249D01*
X134197734Y-94417907D01*
X134262477Y-94556749D01*
X134393802Y-94744300D01*
X134555700Y-94906198D01*
X134743251Y-95037523D01*
X134868091Y-95095736D01*
X134950750Y-95134281D01*
X134950752Y-95134281D01*
X134950757Y-95134284D01*
X135171913Y-95193543D01*
X135334832Y-95207796D01*
X135399998Y-95213498D01*
X135400000Y-95213498D01*
X135400002Y-95213498D01*
X135457021Y-95208509D01*
X135628087Y-95193543D01*
X135849243Y-95134284D01*
X136056749Y-95037523D01*
X136244300Y-94906198D01*
X136406198Y-94744300D01*
X136537523Y-94556749D01*
X136634284Y-94349243D01*
X136693543Y-94128087D01*
X136713498Y-93900000D01*
X136693543Y-93671913D01*
X136634284Y-93450757D01*
X136537523Y-93243251D01*
X136406198Y-93055700D01*
X136244300Y-92893802D01*
X136056749Y-92762477D01*
X136056745Y-92762475D01*
X135849249Y-92665718D01*
X135849238Y-92665714D01*
X135628089Y-92606457D01*
X135628081Y-92606456D01*
X135400002Y-92586502D01*
X135399998Y-92586502D01*
X135171918Y-92606456D01*
X135171910Y-92606457D01*
X134950761Y-92665714D01*
X134950750Y-92665718D01*
X134743254Y-92762475D01*
X134743252Y-92762476D01*
X134743251Y-92762477D01*
X134555700Y-92893802D01*
X134555698Y-92893803D01*
X134555695Y-92893806D01*
X134393806Y-93055695D01*
X134262476Y-93243252D01*
X134262475Y-93243254D01*
X134165718Y-93450750D01*
X134165714Y-93450761D01*
X134106457Y-93671910D01*
X134106456Y-93671918D01*
X134086502Y-93899998D01*
X134086502Y-93900001D01*
X112470704Y-93900001D01*
X112489296Y-93857616D01*
X112544564Y-93639368D01*
X112563156Y-93415000D01*
X112554745Y-93313498D01*
X112544565Y-93190640D01*
X112544563Y-93190628D01*
X112531115Y-93137523D01*
X112489296Y-92972384D01*
X112398860Y-92766209D01*
X112396420Y-92762475D01*
X112294488Y-92606456D01*
X112275722Y-92577732D01*
X112124291Y-92413236D01*
X112093370Y-92350584D01*
X112101230Y-92281158D01*
X112145376Y-92227002D01*
X112172189Y-92213073D01*
X112292086Y-92168354D01*
X112292093Y-92168350D01*
X112407187Y-92082190D01*
X112407190Y-92082187D01*
X112493350Y-91967093D01*
X112493354Y-91967086D01*
X112543596Y-91832379D01*
X112543598Y-91832372D01*
X112549999Y-91772844D01*
X112550000Y-91772827D01*
X112550000Y-91125000D01*
X111633012Y-91125000D01*
X111665925Y-91067993D01*
X111700000Y-90940826D01*
X111700000Y-90809174D01*
X111665925Y-90682007D01*
X111633012Y-90625000D01*
X112550000Y-90625000D01*
X112550000Y-89977172D01*
X112549999Y-89977155D01*
X112543598Y-89917627D01*
X112543596Y-89917620D01*
X112493354Y-89782913D01*
X112493350Y-89782906D01*
X112407190Y-89667812D01*
X112407187Y-89667809D01*
X112292093Y-89581649D01*
X112292086Y-89581645D01*
X112157379Y-89531403D01*
X112157372Y-89531401D01*
X112097844Y-89525000D01*
X111450000Y-89525000D01*
X111450000Y-90441988D01*
X111392993Y-90409075D01*
X111265826Y-90375000D01*
X111134174Y-90375000D01*
X111007007Y-90409075D01*
X110950000Y-90441988D01*
X110950000Y-89525000D01*
X110302155Y-89525000D01*
X110242627Y-89531401D01*
X110242620Y-89531403D01*
X110107913Y-89581645D01*
X110107906Y-89581649D01*
X109992812Y-89667809D01*
X109992809Y-89667812D01*
X109906649Y-89782906D01*
X109906645Y-89782913D01*
X109856403Y-89917620D01*
X109856401Y-89917627D01*
X109850000Y-89977155D01*
X109850000Y-90625000D01*
X110766988Y-90625000D01*
X110734075Y-90682007D01*
X110700000Y-90809174D01*
X110700000Y-90940826D01*
X110734075Y-91067993D01*
X110766988Y-91125000D01*
X109850000Y-91125000D01*
X109850000Y-91772844D01*
X109856401Y-91832372D01*
X109856403Y-91832379D01*
X109906645Y-91967086D01*
X109906649Y-91967093D01*
X109992809Y-92082187D01*
X109992812Y-92082190D01*
X110107906Y-92168350D01*
X110107913Y-92168354D01*
X110227810Y-92213073D01*
X110283744Y-92254944D01*
X110308161Y-92320409D01*
X110293309Y-92388682D01*
X110275706Y-92413238D01*
X110124284Y-92577723D01*
X110124276Y-92577734D01*
X110001140Y-92766207D01*
X109910703Y-92972385D01*
X109855436Y-93190628D01*
X109855434Y-93190640D01*
X109836844Y-93414994D01*
X109836844Y-93415005D01*
X109855434Y-93639359D01*
X109855436Y-93639371D01*
X109910703Y-93857614D01*
X110001140Y-94063792D01*
X110124276Y-94252265D01*
X110124284Y-94252276D01*
X110276756Y-94417902D01*
X110276760Y-94417906D01*
X110454424Y-94556189D01*
X110454429Y-94556191D01*
X110454431Y-94556193D01*
X110490930Y-94575946D01*
X110540520Y-94625165D01*
X110555628Y-94693382D01*
X110531457Y-94758937D01*
X110490930Y-94794054D01*
X110454431Y-94813806D01*
X110454422Y-94813812D01*
X110276761Y-94952092D01*
X110276756Y-94952097D01*
X110124284Y-95117723D01*
X110124276Y-95117734D01*
X110001140Y-95306207D01*
X109910703Y-95512385D01*
X109855436Y-95730628D01*
X109855434Y-95730640D01*
X109836844Y-95954994D01*
X109836844Y-95955005D01*
X100500500Y-95955005D01*
X100500500Y-87880001D01*
X114286502Y-87880001D01*
X114306456Y-88108081D01*
X114306457Y-88108089D01*
X114365714Y-88329238D01*
X114365718Y-88329249D01*
X114458052Y-88527259D01*
X114462477Y-88536749D01*
X114593802Y-88724300D01*
X114755700Y-88886198D01*
X114943251Y-89017523D01*
X114996401Y-89042307D01*
X115048840Y-89088479D01*
X115067992Y-89155673D01*
X115047776Y-89222554D01*
X114996401Y-89267071D01*
X114947517Y-89289865D01*
X114761179Y-89420342D01*
X114600342Y-89581179D01*
X114469865Y-89767517D01*
X114373734Y-89973673D01*
X114373730Y-89973682D01*
X114321127Y-90169999D01*
X114321128Y-90170000D01*
X115284314Y-90170000D01*
X115279920Y-90174394D01*
X115227259Y-90265606D01*
X115200000Y-90367339D01*
X115200000Y-90472661D01*
X115227259Y-90574394D01*
X115279920Y-90665606D01*
X115284314Y-90670000D01*
X114321128Y-90670000D01*
X114373730Y-90866317D01*
X114373734Y-90866326D01*
X114469865Y-91072482D01*
X114600342Y-91258820D01*
X114761179Y-91419657D01*
X114947517Y-91550134D01*
X115153673Y-91646265D01*
X115153682Y-91646269D01*
X115349999Y-91698872D01*
X115350000Y-91698871D01*
X115350000Y-90735686D01*
X115354394Y-90740080D01*
X115445606Y-90792741D01*
X115547339Y-90820000D01*
X115652661Y-90820000D01*
X115754394Y-90792741D01*
X115845606Y-90740080D01*
X115850000Y-90735686D01*
X115850000Y-91698872D01*
X116046317Y-91646269D01*
X116046326Y-91646265D01*
X116252482Y-91550134D01*
X116438820Y-91419657D01*
X116599657Y-91258820D01*
X116730134Y-91072482D01*
X116826265Y-90866326D01*
X116826269Y-90866317D01*
X116878872Y-90670000D01*
X115915686Y-90670000D01*
X115920080Y-90665606D01*
X115972741Y-90574394D01*
X116000000Y-90472661D01*
X116000000Y-90420001D01*
X121906502Y-90420001D01*
X121926456Y-90648081D01*
X121926457Y-90648089D01*
X121985714Y-90869238D01*
X121985718Y-90869249D01*
X122077281Y-91065606D01*
X122082477Y-91076749D01*
X122213802Y-91264300D01*
X122375700Y-91426198D01*
X122563251Y-91557523D01*
X122688091Y-91615736D01*
X122770750Y-91654281D01*
X122770752Y-91654281D01*
X122770757Y-91654284D01*
X122991913Y-91713543D01*
X123154832Y-91727796D01*
X123219998Y-91733498D01*
X123220000Y-91733498D01*
X123220002Y-91733498D01*
X123277021Y-91728509D01*
X123448087Y-91713543D01*
X123669243Y-91654284D01*
X123876749Y-91557523D01*
X124064300Y-91426198D01*
X124226198Y-91264300D01*
X124357523Y-91076749D01*
X124454284Y-90869243D01*
X124513543Y-90648087D01*
X124533498Y-90420000D01*
X124513543Y-90191913D01*
X124454284Y-89970757D01*
X124357523Y-89763251D01*
X124277281Y-89648654D01*
X126509121Y-89648654D01*
X126515632Y-89709202D01*
X126515632Y-89709204D01*
X126554648Y-89813806D01*
X126566732Y-89846204D01*
X126654360Y-89963261D01*
X126771417Y-90050889D01*
X126908420Y-90101989D01*
X126935671Y-90104918D01*
X126968966Y-90108499D01*
X126968983Y-90108500D01*
X128666259Y-90108500D01*
X128666275Y-90108499D01*
X128693313Y-90105591D01*
X128726822Y-90101989D01*
X128863825Y-90050889D01*
X128980882Y-89963261D01*
X129068510Y-89846204D01*
X129099450Y-89763251D01*
X129121921Y-89703007D01*
X129163792Y-89647073D01*
X129229257Y-89622657D01*
X129297530Y-89637509D01*
X129325783Y-89658660D01*
X129473321Y-89806198D01*
X129660872Y-89937523D01*
X129745864Y-89977155D01*
X129868371Y-90034281D01*
X129868373Y-90034281D01*
X129868378Y-90034284D01*
X130089534Y-90093543D01*
X130252453Y-90107796D01*
X130317619Y-90113498D01*
X130317621Y-90113498D01*
X130317623Y-90113498D01*
X130374760Y-90108499D01*
X130545708Y-90093543D01*
X130766864Y-90034284D01*
X130974370Y-89937523D01*
X131161921Y-89806198D01*
X131323819Y-89644300D01*
X131455144Y-89456749D01*
X131551905Y-89249243D01*
X131611164Y-89028087D01*
X131622370Y-88900002D01*
X134095034Y-88900002D01*
X134114858Y-89126599D01*
X134114860Y-89126610D01*
X134173730Y-89346317D01*
X134173735Y-89346331D01*
X134269863Y-89552478D01*
X134320974Y-89625472D01*
X135000000Y-88946446D01*
X135000000Y-88952661D01*
X135027259Y-89054394D01*
X135079920Y-89145606D01*
X135154394Y-89220080D01*
X135245606Y-89272741D01*
X135347339Y-89300000D01*
X135353553Y-89300000D01*
X134674526Y-89979025D01*
X134747513Y-90030132D01*
X134747521Y-90030136D01*
X134953668Y-90126264D01*
X134953682Y-90126269D01*
X135173389Y-90185139D01*
X135173400Y-90185141D01*
X135399998Y-90204966D01*
X135400002Y-90204966D01*
X135626599Y-90185141D01*
X135626610Y-90185139D01*
X135846317Y-90126269D01*
X135846331Y-90126264D01*
X136052478Y-90030136D01*
X136125471Y-89979024D01*
X135446447Y-89300000D01*
X135452661Y-89300000D01*
X135554394Y-89272741D01*
X135645606Y-89220080D01*
X135720080Y-89145606D01*
X135772741Y-89054394D01*
X135800000Y-88952661D01*
X135800000Y-88946447D01*
X136479024Y-89625471D01*
X136530136Y-89552478D01*
X136626264Y-89346331D01*
X136626269Y-89346317D01*
X136685139Y-89126610D01*
X136685141Y-89126599D01*
X136704966Y-88900002D01*
X136704966Y-88899997D01*
X136685141Y-88673400D01*
X136685139Y-88673389D01*
X136626269Y-88453682D01*
X136626264Y-88453668D01*
X136545282Y-88280001D01*
X140886502Y-88280001D01*
X140906456Y-88508081D01*
X140906457Y-88508089D01*
X140965714Y-88729238D01*
X140965718Y-88729249D01*
X141062475Y-88936745D01*
X141062477Y-88936749D01*
X141193802Y-89124300D01*
X141355700Y-89286198D01*
X141537937Y-89413802D01*
X141543251Y-89417523D01*
X141596401Y-89442307D01*
X141648840Y-89488479D01*
X141667992Y-89555673D01*
X141647776Y-89622554D01*
X141596401Y-89667071D01*
X141547517Y-89689865D01*
X141361179Y-89820342D01*
X141200342Y-89981179D01*
X141069865Y-90167517D01*
X140973734Y-90373673D01*
X140973730Y-90373682D01*
X140921127Y-90569999D01*
X140921128Y-90570000D01*
X141884314Y-90570000D01*
X141879920Y-90574394D01*
X141827259Y-90665606D01*
X141800000Y-90767339D01*
X141800000Y-90872661D01*
X141827259Y-90974394D01*
X141879920Y-91065606D01*
X141884314Y-91070000D01*
X140921128Y-91070000D01*
X140973730Y-91266317D01*
X140973734Y-91266326D01*
X141069865Y-91472482D01*
X141200342Y-91658820D01*
X141361179Y-91819657D01*
X141547517Y-91950134D01*
X141753673Y-92046265D01*
X141753682Y-92046269D01*
X141949999Y-92098872D01*
X141950000Y-92098871D01*
X141950000Y-91135686D01*
X141954394Y-91140080D01*
X142045606Y-91192741D01*
X142147339Y-91220000D01*
X142252661Y-91220000D01*
X142354394Y-91192741D01*
X142445606Y-91140080D01*
X142450000Y-91135686D01*
X142450000Y-92098872D01*
X142646317Y-92046269D01*
X142646326Y-92046265D01*
X142852482Y-91950134D01*
X143038820Y-91819657D01*
X143199657Y-91658820D01*
X143330134Y-91472482D01*
X143426265Y-91266326D01*
X143426269Y-91266317D01*
X143478872Y-91070000D01*
X142515686Y-91070000D01*
X142520080Y-91065606D01*
X142572741Y-90974394D01*
X142600000Y-90872661D01*
X142600000Y-90820001D01*
X148506502Y-90820001D01*
X148526456Y-91048081D01*
X148526457Y-91048089D01*
X148585714Y-91269238D01*
X148585718Y-91269249D01*
X148658905Y-91426198D01*
X148682477Y-91476749D01*
X148813802Y-91664300D01*
X148975700Y-91826198D01*
X149163251Y-91957523D01*
X149254340Y-91999998D01*
X149370750Y-92054281D01*
X149370752Y-92054281D01*
X149370757Y-92054284D01*
X149591913Y-92113543D01*
X149754832Y-92127796D01*
X149819998Y-92133498D01*
X149820000Y-92133498D01*
X149820002Y-92133498D01*
X149877021Y-92128509D01*
X150048087Y-92113543D01*
X150269243Y-92054284D01*
X150385654Y-92000001D01*
X153606502Y-92000001D01*
X153626456Y-92228081D01*
X153626457Y-92228089D01*
X153685714Y-92449238D01*
X153685718Y-92449249D01*
X153782475Y-92656745D01*
X153782477Y-92656749D01*
X153913802Y-92844300D01*
X154075700Y-93006198D01*
X154263251Y-93137523D01*
X154377136Y-93190628D01*
X154470750Y-93234281D01*
X154470752Y-93234281D01*
X154470757Y-93234284D01*
X154691913Y-93293543D01*
X154854832Y-93307796D01*
X154919998Y-93313498D01*
X154920000Y-93313498D01*
X154920002Y-93313498D01*
X154977021Y-93308509D01*
X155148087Y-93293543D01*
X155369243Y-93234284D01*
X155576749Y-93137523D01*
X155764300Y-93006198D01*
X155926198Y-92844300D01*
X156057523Y-92656749D01*
X156154284Y-92449243D01*
X156213543Y-92228087D01*
X156233498Y-92000001D01*
X163766502Y-92000001D01*
X163786456Y-92228081D01*
X163786457Y-92228089D01*
X163845714Y-92449238D01*
X163845718Y-92449249D01*
X163942475Y-92656745D01*
X163942477Y-92656749D01*
X164073802Y-92844300D01*
X164235700Y-93006198D01*
X164423251Y-93137523D01*
X164537136Y-93190628D01*
X164630750Y-93234281D01*
X164630752Y-93234281D01*
X164630757Y-93234284D01*
X164851913Y-93293543D01*
X165014832Y-93307796D01*
X165079998Y-93313498D01*
X165080000Y-93313498D01*
X165080002Y-93313498D01*
X165137021Y-93308509D01*
X165308087Y-93293543D01*
X165529243Y-93234284D01*
X165736749Y-93137523D01*
X165924300Y-93006198D01*
X166086198Y-92844300D01*
X166217523Y-92656749D01*
X166314284Y-92449243D01*
X166373543Y-92228087D01*
X166393498Y-92000000D01*
X166373543Y-91771913D01*
X166314284Y-91550757D01*
X166313993Y-91550134D01*
X166275736Y-91468091D01*
X166217523Y-91343251D01*
X166086198Y-91155700D01*
X165924300Y-90993802D01*
X165736749Y-90862477D01*
X165736745Y-90862475D01*
X165529249Y-90765718D01*
X165529238Y-90765714D01*
X165308089Y-90706457D01*
X165308081Y-90706456D01*
X165080002Y-90686502D01*
X165079998Y-90686502D01*
X164851918Y-90706456D01*
X164851910Y-90706457D01*
X164630761Y-90765714D01*
X164630750Y-90765718D01*
X164423254Y-90862475D01*
X164423252Y-90862476D01*
X164352856Y-90911767D01*
X164235700Y-90993802D01*
X164235698Y-90993803D01*
X164235695Y-90993806D01*
X164073806Y-91155695D01*
X163942476Y-91343252D01*
X163942475Y-91343254D01*
X163845718Y-91550750D01*
X163845714Y-91550761D01*
X163786457Y-91771910D01*
X163786456Y-91771918D01*
X163766502Y-91999998D01*
X163766502Y-92000001D01*
X156233498Y-92000001D01*
X156233498Y-92000000D01*
X156213543Y-91771913D01*
X156154284Y-91550757D01*
X156153993Y-91550134D01*
X156115736Y-91468091D01*
X156057523Y-91343251D01*
X155926198Y-91155700D01*
X155764300Y-90993802D01*
X155576749Y-90862477D01*
X155576745Y-90862475D01*
X155369249Y-90765718D01*
X155369238Y-90765714D01*
X155148089Y-90706457D01*
X155148081Y-90706456D01*
X154920002Y-90686502D01*
X154919998Y-90686502D01*
X154691918Y-90706456D01*
X154691910Y-90706457D01*
X154470761Y-90765714D01*
X154470750Y-90765718D01*
X154263254Y-90862475D01*
X154263252Y-90862476D01*
X154192856Y-90911767D01*
X154075700Y-90993802D01*
X154075698Y-90993803D01*
X154075695Y-90993806D01*
X153913806Y-91155695D01*
X153782476Y-91343252D01*
X153782475Y-91343254D01*
X153685718Y-91550750D01*
X153685714Y-91550761D01*
X153626457Y-91771910D01*
X153626456Y-91771918D01*
X153606502Y-91999998D01*
X153606502Y-92000001D01*
X150385654Y-92000001D01*
X150476749Y-91957523D01*
X150664300Y-91826198D01*
X150826198Y-91664300D01*
X150957523Y-91476749D01*
X151054284Y-91269243D01*
X151113543Y-91048087D01*
X151133498Y-90820000D01*
X151113543Y-90591913D01*
X151054284Y-90370757D01*
X150957523Y-90163251D01*
X150826198Y-89975700D01*
X150664300Y-89813802D01*
X150476749Y-89682477D01*
X150433655Y-89662382D01*
X150381215Y-89616210D01*
X150362063Y-89549017D01*
X150382278Y-89482136D01*
X150433655Y-89437618D01*
X150436882Y-89436112D01*
X150476749Y-89417523D01*
X150664300Y-89286198D01*
X150826198Y-89124300D01*
X150957523Y-88936749D01*
X151054284Y-88729243D01*
X151113543Y-88508087D01*
X151133498Y-88280000D01*
X151130656Y-88247521D01*
X151121534Y-88143251D01*
X151113543Y-88051913D01*
X151072477Y-87898654D01*
X154641500Y-87898654D01*
X154648011Y-87959202D01*
X154648011Y-87959204D01*
X154682590Y-88051910D01*
X154699111Y-88096204D01*
X154786739Y-88213261D01*
X154903796Y-88300889D01*
X155018949Y-88343839D01*
X155037506Y-88350761D01*
X155040799Y-88351989D01*
X155068050Y-88354918D01*
X155101345Y-88358499D01*
X155101362Y-88358500D01*
X156898638Y-88358500D01*
X156898654Y-88358499D01*
X156925692Y-88355591D01*
X156959201Y-88351989D01*
X156962494Y-88350761D01*
X156973768Y-88346555D01*
X157096204Y-88300889D01*
X157213261Y-88213261D01*
X157300889Y-88096204D01*
X157351989Y-87959201D01*
X157355591Y-87925692D01*
X157358499Y-87898654D01*
X162041500Y-87898654D01*
X162048011Y-87959202D01*
X162048011Y-87959204D01*
X162082590Y-88051910D01*
X162099111Y-88096204D01*
X162186739Y-88213261D01*
X162303796Y-88300889D01*
X162418949Y-88343839D01*
X162437506Y-88350761D01*
X162440799Y-88351989D01*
X162468050Y-88354918D01*
X162501345Y-88358499D01*
X162501362Y-88358500D01*
X164298638Y-88358500D01*
X164298654Y-88358499D01*
X164325692Y-88355591D01*
X164359201Y-88351989D01*
X164362494Y-88350761D01*
X164373768Y-88346555D01*
X164496204Y-88300889D01*
X164613261Y-88213261D01*
X164700889Y-88096204D01*
X164751989Y-87959201D01*
X164755591Y-87925692D01*
X164758499Y-87898654D01*
X164758500Y-87898637D01*
X164758500Y-86101362D01*
X164758499Y-86101345D01*
X164755157Y-86070270D01*
X164751989Y-86040799D01*
X164700889Y-85903796D01*
X164613261Y-85786739D01*
X164496204Y-85699111D01*
X164359203Y-85648011D01*
X164298654Y-85641500D01*
X164298638Y-85641500D01*
X162501362Y-85641500D01*
X162501345Y-85641500D01*
X162440797Y-85648011D01*
X162440795Y-85648011D01*
X162303795Y-85699111D01*
X162186739Y-85786739D01*
X162099111Y-85903795D01*
X162048011Y-86040795D01*
X162048011Y-86040797D01*
X162041500Y-86101345D01*
X162041500Y-87898654D01*
X157358499Y-87898654D01*
X157358500Y-87898637D01*
X157358500Y-86101362D01*
X157358499Y-86101345D01*
X157355157Y-86070270D01*
X157351989Y-86040799D01*
X157300889Y-85903796D01*
X157213261Y-85786739D01*
X157096204Y-85699111D01*
X156959203Y-85648011D01*
X156898654Y-85641500D01*
X156898638Y-85641500D01*
X155101362Y-85641500D01*
X155101345Y-85641500D01*
X155040797Y-85648011D01*
X155040795Y-85648011D01*
X154903795Y-85699111D01*
X154786739Y-85786739D01*
X154699111Y-85903795D01*
X154648011Y-86040795D01*
X154648011Y-86040797D01*
X154641500Y-86101345D01*
X154641500Y-87898654D01*
X151072477Y-87898654D01*
X151054284Y-87830757D01*
X150957523Y-87623251D01*
X150826198Y-87435700D01*
X150664300Y-87273802D01*
X150476749Y-87142477D01*
X150433655Y-87122382D01*
X150381215Y-87076210D01*
X150362063Y-87009017D01*
X150382278Y-86942136D01*
X150433655Y-86897618D01*
X150436882Y-86896112D01*
X150476749Y-86877523D01*
X150664300Y-86746198D01*
X150826198Y-86584300D01*
X150957523Y-86396749D01*
X151054284Y-86189243D01*
X151113543Y-85968087D01*
X151133498Y-85740000D01*
X151113543Y-85511913D01*
X151054284Y-85290757D01*
X150957523Y-85083251D01*
X150826198Y-84895700D01*
X150664300Y-84733802D01*
X150476749Y-84602477D01*
X150433655Y-84582382D01*
X150381215Y-84536210D01*
X150362063Y-84469017D01*
X150382278Y-84402136D01*
X150433655Y-84357618D01*
X150437779Y-84355695D01*
X150476749Y-84337523D01*
X150664300Y-84206198D01*
X150826198Y-84044300D01*
X150957523Y-83856749D01*
X151054284Y-83649243D01*
X151113543Y-83428087D01*
X151133498Y-83200000D01*
X151131040Y-83171910D01*
X151127796Y-83134832D01*
X151113543Y-82971913D01*
X151054284Y-82750757D01*
X151050785Y-82743254D01*
X151015736Y-82668091D01*
X150957523Y-82543251D01*
X150826198Y-82355700D01*
X150664300Y-82193802D01*
X150476749Y-82062477D01*
X150476745Y-82062475D01*
X150269249Y-81965718D01*
X150269238Y-81965714D01*
X150048089Y-81906457D01*
X150048081Y-81906456D01*
X149820002Y-81886502D01*
X149819998Y-81886502D01*
X149591918Y-81906456D01*
X149591910Y-81906457D01*
X149370761Y-81965714D01*
X149370750Y-81965718D01*
X149163254Y-82062475D01*
X149163252Y-82062476D01*
X149108393Y-82100889D01*
X148975700Y-82193802D01*
X148975698Y-82193803D01*
X148975695Y-82193806D01*
X148813806Y-82355695D01*
X148682476Y-82543252D01*
X148682475Y-82543254D01*
X148585718Y-82750750D01*
X148585714Y-82750761D01*
X148526457Y-82971910D01*
X148526456Y-82971918D01*
X148506502Y-83199998D01*
X148506502Y-83200001D01*
X148526456Y-83428081D01*
X148526457Y-83428089D01*
X148585714Y-83649238D01*
X148585718Y-83649249D01*
X148678977Y-83849243D01*
X148682477Y-83856749D01*
X148813802Y-84044300D01*
X148975700Y-84206198D01*
X149150266Y-84328431D01*
X149163251Y-84337523D01*
X149206345Y-84357618D01*
X149258784Y-84403791D01*
X149277936Y-84470984D01*
X149257720Y-84537865D01*
X149206345Y-84582382D01*
X149163251Y-84602476D01*
X149084640Y-84657521D01*
X148975700Y-84733802D01*
X148975698Y-84733803D01*
X148975695Y-84733806D01*
X148813806Y-84895695D01*
X148813803Y-84895698D01*
X148813802Y-84895700D01*
X148731767Y-85012856D01*
X148682476Y-85083252D01*
X148682475Y-85083254D01*
X148585718Y-85290750D01*
X148585714Y-85290761D01*
X148526457Y-85511910D01*
X148526456Y-85511918D01*
X148506502Y-85739998D01*
X148506502Y-85740001D01*
X148526456Y-85968081D01*
X148526457Y-85968089D01*
X148585714Y-86189238D01*
X148585718Y-86189249D01*
X148658905Y-86346198D01*
X148682477Y-86396749D01*
X148813802Y-86584300D01*
X148975700Y-86746198D01*
X149157937Y-86873802D01*
X149163251Y-86877523D01*
X149206345Y-86897618D01*
X149258784Y-86943791D01*
X149277936Y-87010984D01*
X149257720Y-87077865D01*
X149206345Y-87122382D01*
X149163251Y-87142476D01*
X149047894Y-87223251D01*
X148975700Y-87273802D01*
X148975698Y-87273803D01*
X148975695Y-87273806D01*
X148813806Y-87435695D01*
X148813803Y-87435698D01*
X148813802Y-87435700D01*
X148770171Y-87498011D01*
X148682476Y-87623252D01*
X148682475Y-87623254D01*
X148585718Y-87830750D01*
X148585714Y-87830761D01*
X148526457Y-88051910D01*
X148526456Y-88051918D01*
X148506502Y-88279998D01*
X148506502Y-88280001D01*
X148526456Y-88508081D01*
X148526457Y-88508089D01*
X148585714Y-88729238D01*
X148585718Y-88729249D01*
X148682475Y-88936745D01*
X148682477Y-88936749D01*
X148813802Y-89124300D01*
X148975700Y-89286198D01*
X149157937Y-89413802D01*
X149163251Y-89417523D01*
X149206345Y-89437618D01*
X149258784Y-89483791D01*
X149277936Y-89550984D01*
X149257720Y-89617865D01*
X149206345Y-89662382D01*
X149163251Y-89682476D01*
X149047894Y-89763251D01*
X148975700Y-89813802D01*
X148975698Y-89813803D01*
X148975695Y-89813806D01*
X148813806Y-89975695D01*
X148813803Y-89975698D01*
X148813802Y-89975700D01*
X148772783Y-90034281D01*
X148682476Y-90163252D01*
X148682475Y-90163254D01*
X148585718Y-90370750D01*
X148585714Y-90370761D01*
X148526457Y-90591910D01*
X148526456Y-90591918D01*
X148506502Y-90819998D01*
X148506502Y-90820001D01*
X142600000Y-90820001D01*
X142600000Y-90767339D01*
X142572741Y-90665606D01*
X142520080Y-90574394D01*
X142515686Y-90570000D01*
X143478872Y-90570000D01*
X143478872Y-90569999D01*
X143426269Y-90373682D01*
X143426265Y-90373673D01*
X143330134Y-90167517D01*
X143199657Y-89981179D01*
X143038820Y-89820342D01*
X142852481Y-89689865D01*
X142852479Y-89689864D01*
X142803599Y-89667071D01*
X142751159Y-89620899D01*
X142732007Y-89553706D01*
X142752223Y-89486824D01*
X142803599Y-89442307D01*
X142856749Y-89417523D01*
X143044300Y-89286198D01*
X143206198Y-89124300D01*
X143337523Y-88936749D01*
X143434284Y-88729243D01*
X143493543Y-88508087D01*
X143513498Y-88280000D01*
X143510656Y-88247521D01*
X143501534Y-88143251D01*
X143493543Y-88051913D01*
X143434284Y-87830757D01*
X143337523Y-87623251D01*
X143206198Y-87435700D01*
X143044300Y-87273802D01*
X142856749Y-87142477D01*
X142813655Y-87122382D01*
X142761215Y-87076210D01*
X142742063Y-87009017D01*
X142762278Y-86942136D01*
X142813655Y-86897618D01*
X142816882Y-86896112D01*
X142856749Y-86877523D01*
X143044300Y-86746198D01*
X143206198Y-86584300D01*
X143337523Y-86396749D01*
X143434284Y-86189243D01*
X143493543Y-85968087D01*
X143513498Y-85740000D01*
X143493543Y-85511913D01*
X143434284Y-85290757D01*
X143337523Y-85083251D01*
X143206198Y-84895700D01*
X143044300Y-84733802D01*
X143036627Y-84728429D01*
X142993006Y-84673853D01*
X142985814Y-84604355D01*
X143017338Y-84542001D01*
X143077568Y-84506588D01*
X143094489Y-84503570D01*
X143109201Y-84501989D01*
X143246204Y-84450889D01*
X143363261Y-84363261D01*
X143450889Y-84246204D01*
X143501989Y-84109201D01*
X143506098Y-84070984D01*
X143508499Y-84048654D01*
X143508500Y-84048637D01*
X143508500Y-82351362D01*
X143508499Y-82351345D01*
X143505157Y-82320270D01*
X143501989Y-82290799D01*
X143491425Y-82262477D01*
X143465812Y-82193806D01*
X143450889Y-82153796D01*
X143363261Y-82036739D01*
X143246204Y-81949111D01*
X143231418Y-81943596D01*
X143109203Y-81898011D01*
X143048654Y-81891500D01*
X143048638Y-81891500D01*
X141351362Y-81891500D01*
X141351345Y-81891500D01*
X141290797Y-81898011D01*
X141290795Y-81898011D01*
X141153795Y-81949111D01*
X141036739Y-82036739D01*
X140949111Y-82153795D01*
X140898011Y-82290795D01*
X140898011Y-82290797D01*
X140891500Y-82351345D01*
X140891500Y-84048654D01*
X140898011Y-84109202D01*
X140898011Y-84109204D01*
X140934189Y-84206198D01*
X140949111Y-84246204D01*
X141036739Y-84363261D01*
X141153796Y-84450889D01*
X141253110Y-84487931D01*
X141290793Y-84501987D01*
X141290799Y-84501989D01*
X141305499Y-84503569D01*
X141370048Y-84530305D01*
X141409897Y-84587696D01*
X141412393Y-84657521D01*
X141376742Y-84717611D01*
X141363377Y-84728425D01*
X141363371Y-84728431D01*
X141355696Y-84733805D01*
X141193806Y-84895695D01*
X141193803Y-84895698D01*
X141193802Y-84895700D01*
X141111767Y-85012856D01*
X141062476Y-85083252D01*
X141062475Y-85083254D01*
X140965718Y-85290750D01*
X140965714Y-85290761D01*
X140906457Y-85511910D01*
X140906456Y-85511918D01*
X140886502Y-85739998D01*
X140886502Y-85740001D01*
X140906456Y-85968081D01*
X140906457Y-85968089D01*
X140965714Y-86189238D01*
X140965718Y-86189249D01*
X141038905Y-86346198D01*
X141062477Y-86396749D01*
X141193802Y-86584300D01*
X141355700Y-86746198D01*
X141537937Y-86873802D01*
X141543251Y-86877523D01*
X141586345Y-86897618D01*
X141638784Y-86943791D01*
X141657936Y-87010984D01*
X141637720Y-87077865D01*
X141586345Y-87122382D01*
X141543251Y-87142476D01*
X141427894Y-87223251D01*
X141355700Y-87273802D01*
X141355698Y-87273803D01*
X141355695Y-87273806D01*
X141193806Y-87435695D01*
X141193803Y-87435698D01*
X141193802Y-87435700D01*
X141150171Y-87498011D01*
X141062476Y-87623252D01*
X141062475Y-87623254D01*
X140965718Y-87830750D01*
X140965714Y-87830761D01*
X140906457Y-88051910D01*
X140906456Y-88051918D01*
X140886502Y-88279998D01*
X140886502Y-88280001D01*
X136545282Y-88280001D01*
X136530136Y-88247521D01*
X136530132Y-88247513D01*
X136479025Y-88174526D01*
X135800000Y-88853551D01*
X135800000Y-88847339D01*
X135772741Y-88745606D01*
X135720080Y-88654394D01*
X135645606Y-88579920D01*
X135554394Y-88527259D01*
X135452661Y-88500000D01*
X135446448Y-88500000D01*
X136125472Y-87820974D01*
X136052478Y-87769863D01*
X135846331Y-87673735D01*
X135846317Y-87673730D01*
X135626610Y-87614860D01*
X135626599Y-87614858D01*
X135400002Y-87595034D01*
X135399998Y-87595034D01*
X135173400Y-87614858D01*
X135173389Y-87614860D01*
X134953682Y-87673730D01*
X134953673Y-87673734D01*
X134747516Y-87769866D01*
X134747512Y-87769868D01*
X134674526Y-87820973D01*
X134674526Y-87820974D01*
X135353553Y-88500000D01*
X135347339Y-88500000D01*
X135245606Y-88527259D01*
X135154394Y-88579920D01*
X135079920Y-88654394D01*
X135027259Y-88745606D01*
X135000000Y-88847339D01*
X135000000Y-88853552D01*
X134320974Y-88174526D01*
X134320973Y-88174526D01*
X134269868Y-88247512D01*
X134269866Y-88247516D01*
X134173734Y-88453673D01*
X134173730Y-88453682D01*
X134114860Y-88673389D01*
X134114858Y-88673400D01*
X134095034Y-88899997D01*
X134095034Y-88900002D01*
X131622370Y-88900002D01*
X131631119Y-88800000D01*
X131611164Y-88571913D01*
X131551905Y-88350757D01*
X131455144Y-88143251D01*
X131323819Y-87955700D01*
X131161921Y-87793802D01*
X130974370Y-87662477D01*
X130951726Y-87651918D01*
X130766870Y-87565718D01*
X130766859Y-87565714D01*
X130545710Y-87506457D01*
X130545702Y-87506456D01*
X130317623Y-87486502D01*
X130317619Y-87486502D01*
X130089539Y-87506456D01*
X130089531Y-87506457D01*
X129868382Y-87565714D01*
X129868371Y-87565718D01*
X129660875Y-87662475D01*
X129660873Y-87662476D01*
X129660872Y-87662477D01*
X129507510Y-87769863D01*
X129473320Y-87793803D01*
X129325783Y-87941340D01*
X129264460Y-87974824D01*
X129194768Y-87969840D01*
X129138835Y-87927968D01*
X129121921Y-87896993D01*
X129083432Y-87793803D01*
X129068510Y-87753796D01*
X128980882Y-87636739D01*
X128863825Y-87549111D01*
X128726824Y-87498011D01*
X128666275Y-87491500D01*
X128666259Y-87491500D01*
X126968983Y-87491500D01*
X126968966Y-87491500D01*
X126908418Y-87498011D01*
X126908416Y-87498011D01*
X126771416Y-87549111D01*
X126654360Y-87636739D01*
X126566732Y-87753795D01*
X126515632Y-87890795D01*
X126515632Y-87890797D01*
X126509121Y-87951345D01*
X126509121Y-89648654D01*
X124277281Y-89648654D01*
X124226198Y-89575700D01*
X124064300Y-89413802D01*
X123876749Y-89282477D01*
X123833655Y-89262382D01*
X123781215Y-89216210D01*
X123762063Y-89149017D01*
X123782278Y-89082136D01*
X123833655Y-89037618D01*
X123836882Y-89036112D01*
X123876749Y-89017523D01*
X124064300Y-88886198D01*
X124226198Y-88724300D01*
X124357523Y-88536749D01*
X124454284Y-88329243D01*
X124513543Y-88108087D01*
X124531867Y-87898638D01*
X124533498Y-87880001D01*
X124533498Y-87879998D01*
X124523863Y-87769868D01*
X124513543Y-87651913D01*
X124454284Y-87430757D01*
X124357523Y-87223251D01*
X124226198Y-87035700D01*
X124064300Y-86873802D01*
X123876749Y-86742477D01*
X123833655Y-86722382D01*
X123781215Y-86676210D01*
X123762063Y-86609017D01*
X123782278Y-86542136D01*
X123833655Y-86497618D01*
X123842396Y-86493542D01*
X123876749Y-86477523D01*
X124064300Y-86346198D01*
X124226198Y-86184300D01*
X124357523Y-85996749D01*
X124454284Y-85789243D01*
X124513543Y-85568087D01*
X124533498Y-85340000D01*
X124521250Y-85200001D01*
X134086502Y-85200001D01*
X134106456Y-85428081D01*
X134106457Y-85428089D01*
X134165714Y-85649238D01*
X134165718Y-85649249D01*
X134231001Y-85789249D01*
X134262477Y-85856749D01*
X134393802Y-86044300D01*
X134555700Y-86206198D01*
X134743251Y-86337523D01*
X134761855Y-86346198D01*
X134950750Y-86434281D01*
X134950752Y-86434281D01*
X134950757Y-86434284D01*
X135171913Y-86493543D01*
X135334832Y-86507796D01*
X135399998Y-86513498D01*
X135400000Y-86513498D01*
X135400002Y-86513498D01*
X135457021Y-86508509D01*
X135628087Y-86493543D01*
X135849243Y-86434284D01*
X136056749Y-86337523D01*
X136244300Y-86206198D01*
X136406198Y-86044300D01*
X136537523Y-85856749D01*
X136634284Y-85649243D01*
X136693543Y-85428087D01*
X136713498Y-85200000D01*
X136693543Y-84971913D01*
X136634284Y-84750757D01*
X136623872Y-84728429D01*
X136587715Y-84650888D01*
X136537523Y-84543251D01*
X136406198Y-84355700D01*
X136244300Y-84193802D01*
X136056749Y-84062477D01*
X136056745Y-84062475D01*
X135849249Y-83965718D01*
X135849238Y-83965714D01*
X135628089Y-83906457D01*
X135628081Y-83906456D01*
X135400002Y-83886502D01*
X135399998Y-83886502D01*
X135171918Y-83906456D01*
X135171910Y-83906457D01*
X134950761Y-83965714D01*
X134950750Y-83965718D01*
X134743254Y-84062475D01*
X134743252Y-84062476D01*
X134686825Y-84101987D01*
X134555700Y-84193802D01*
X134555698Y-84193803D01*
X134555695Y-84193806D01*
X134393806Y-84355695D01*
X134393803Y-84355698D01*
X134393802Y-84355700D01*
X134327150Y-84450889D01*
X134262476Y-84543252D01*
X134262475Y-84543254D01*
X134165718Y-84750750D01*
X134165714Y-84750761D01*
X134106457Y-84971910D01*
X134106456Y-84971918D01*
X134086502Y-85199998D01*
X134086502Y-85200001D01*
X124521250Y-85200001D01*
X124513543Y-85111913D01*
X124454284Y-84890757D01*
X124357523Y-84683251D01*
X124226198Y-84495700D01*
X124064300Y-84333802D01*
X123876749Y-84202477D01*
X123858145Y-84193802D01*
X123833655Y-84182382D01*
X123781215Y-84136210D01*
X123762063Y-84069017D01*
X123782278Y-84002136D01*
X123833655Y-83957618D01*
X123836882Y-83956112D01*
X123876749Y-83937523D01*
X124064300Y-83806198D01*
X124226198Y-83644300D01*
X124357523Y-83456749D01*
X124454284Y-83249243D01*
X124513543Y-83028087D01*
X124533498Y-82800000D01*
X124513543Y-82571913D01*
X124454284Y-82350757D01*
X124426323Y-82290795D01*
X124367999Y-82165718D01*
X124357523Y-82143251D01*
X124226198Y-81955700D01*
X124064300Y-81793802D01*
X123928415Y-81698654D01*
X155441500Y-81698654D01*
X155448011Y-81759202D01*
X155448011Y-81759204D01*
X155498048Y-81893354D01*
X155499111Y-81896204D01*
X155586739Y-82013261D01*
X155703796Y-82100889D01*
X155840799Y-82151989D01*
X155868050Y-82154918D01*
X155901345Y-82158499D01*
X155901362Y-82158500D01*
X157698638Y-82158500D01*
X157698654Y-82158499D01*
X157725692Y-82155591D01*
X157759201Y-82151989D01*
X157896204Y-82100889D01*
X158013261Y-82013261D01*
X158100889Y-81896204D01*
X158151989Y-81759201D01*
X158155591Y-81725692D01*
X158158499Y-81698654D01*
X158158500Y-81698637D01*
X158158500Y-81497844D01*
X161650000Y-81497844D01*
X161656401Y-81557372D01*
X161656403Y-81557379D01*
X161706645Y-81692086D01*
X161706649Y-81692093D01*
X161792809Y-81807187D01*
X161792812Y-81807190D01*
X161907906Y-81893350D01*
X161907913Y-81893354D01*
X162042620Y-81943596D01*
X162042627Y-81943598D01*
X162102155Y-81949999D01*
X162102172Y-81950000D01*
X162750000Y-81950000D01*
X162750000Y-81033012D01*
X162807007Y-81065925D01*
X162934174Y-81100000D01*
X163065826Y-81100000D01*
X163192993Y-81065925D01*
X163250000Y-81033012D01*
X163250000Y-81950000D01*
X163897828Y-81950000D01*
X163897844Y-81949999D01*
X163957372Y-81943598D01*
X163957379Y-81943596D01*
X164092086Y-81893354D01*
X164092093Y-81893350D01*
X164207187Y-81807190D01*
X164207190Y-81807187D01*
X164293350Y-81692093D01*
X164293354Y-81692086D01*
X164343596Y-81557379D01*
X164343598Y-81557372D01*
X164349999Y-81497844D01*
X164350000Y-81497827D01*
X164350000Y-80850000D01*
X163433012Y-80850000D01*
X163465925Y-80792993D01*
X163500000Y-80665826D01*
X163500000Y-80534174D01*
X163465925Y-80407007D01*
X163433012Y-80350000D01*
X164350000Y-80350000D01*
X164350000Y-79702172D01*
X164349999Y-79702155D01*
X164343598Y-79642627D01*
X164343596Y-79642620D01*
X164293354Y-79507913D01*
X164293350Y-79507906D01*
X164207190Y-79392812D01*
X164207187Y-79392809D01*
X164092093Y-79306649D01*
X164092086Y-79306645D01*
X163957379Y-79256403D01*
X163957372Y-79256401D01*
X163897844Y-79250000D01*
X163250000Y-79250000D01*
X163250000Y-80166988D01*
X163192993Y-80134075D01*
X163065826Y-80100000D01*
X162934174Y-80100000D01*
X162807007Y-80134075D01*
X162750000Y-80166988D01*
X162750000Y-79250000D01*
X162102155Y-79250000D01*
X162042627Y-79256401D01*
X162042620Y-79256403D01*
X161907913Y-79306645D01*
X161907906Y-79306649D01*
X161792812Y-79392809D01*
X161792809Y-79392812D01*
X161706649Y-79507906D01*
X161706645Y-79507913D01*
X161656403Y-79642620D01*
X161656401Y-79642627D01*
X161650000Y-79702155D01*
X161650000Y-80350000D01*
X162566988Y-80350000D01*
X162534075Y-80407007D01*
X162500000Y-80534174D01*
X162500000Y-80665826D01*
X162534075Y-80792993D01*
X162566988Y-80850000D01*
X161650000Y-80850000D01*
X161650000Y-81497844D01*
X158158500Y-81497844D01*
X158158500Y-79901362D01*
X158158499Y-79901345D01*
X158155157Y-79870270D01*
X158151989Y-79840799D01*
X158143307Y-79817523D01*
X158129522Y-79780564D01*
X158100889Y-79703796D01*
X158013261Y-79586739D01*
X157896204Y-79499111D01*
X157759203Y-79448011D01*
X157698654Y-79441500D01*
X157698638Y-79441500D01*
X155901362Y-79441500D01*
X155901345Y-79441500D01*
X155840797Y-79448011D01*
X155840795Y-79448011D01*
X155703795Y-79499111D01*
X155586739Y-79586739D01*
X155499111Y-79703795D01*
X155448011Y-79840795D01*
X155448011Y-79840797D01*
X155441500Y-79901345D01*
X155441500Y-81698654D01*
X123928415Y-81698654D01*
X123876749Y-81662477D01*
X123876745Y-81662475D01*
X123669249Y-81565718D01*
X123669238Y-81565714D01*
X123448089Y-81506457D01*
X123448081Y-81506456D01*
X123220002Y-81486502D01*
X123219998Y-81486502D01*
X122991918Y-81506456D01*
X122991910Y-81506457D01*
X122770761Y-81565714D01*
X122770750Y-81565718D01*
X122563254Y-81662475D01*
X122563252Y-81662476D01*
X122563251Y-81662477D01*
X122375700Y-81793802D01*
X122375698Y-81793803D01*
X122375695Y-81793806D01*
X122213806Y-81955695D01*
X122213803Y-81955698D01*
X122213802Y-81955700D01*
X122173498Y-82013260D01*
X122082476Y-82143252D01*
X122082475Y-82143254D01*
X121985718Y-82350750D01*
X121985714Y-82350761D01*
X121926457Y-82571910D01*
X121926456Y-82571918D01*
X121906502Y-82799998D01*
X121906502Y-82800001D01*
X121926456Y-83028081D01*
X121926457Y-83028089D01*
X121985714Y-83249238D01*
X121985718Y-83249249D01*
X122082475Y-83456745D01*
X122082477Y-83456749D01*
X122213802Y-83644300D01*
X122375700Y-83806198D01*
X122563251Y-83937523D01*
X122606345Y-83957618D01*
X122658784Y-84003791D01*
X122677936Y-84070984D01*
X122657720Y-84137865D01*
X122606345Y-84182382D01*
X122563251Y-84202476D01*
X122461316Y-84273853D01*
X122375700Y-84333802D01*
X122375698Y-84333803D01*
X122375695Y-84333806D01*
X122213806Y-84495695D01*
X122213803Y-84495698D01*
X122213802Y-84495700D01*
X122149386Y-84587696D01*
X122082476Y-84683252D01*
X122082475Y-84683254D01*
X121985718Y-84890750D01*
X121985714Y-84890761D01*
X121926457Y-85111910D01*
X121926456Y-85111918D01*
X121906502Y-85339998D01*
X121906502Y-85340001D01*
X121926456Y-85568081D01*
X121926457Y-85568089D01*
X121985714Y-85789238D01*
X121985718Y-85789249D01*
X122082475Y-85996745D01*
X122082477Y-85996749D01*
X122213802Y-86184300D01*
X122375700Y-86346198D01*
X122563251Y-86477523D01*
X122606345Y-86497618D01*
X122658784Y-86543791D01*
X122677936Y-86610984D01*
X122657720Y-86677865D01*
X122606345Y-86722382D01*
X122563251Y-86742476D01*
X122438126Y-86830090D01*
X122375700Y-86873802D01*
X122375698Y-86873803D01*
X122375695Y-86873806D01*
X122213806Y-87035695D01*
X122213803Y-87035698D01*
X122213802Y-87035700D01*
X122139037Y-87142475D01*
X122082476Y-87223252D01*
X122082475Y-87223254D01*
X121985718Y-87430750D01*
X121985714Y-87430761D01*
X121926457Y-87651910D01*
X121926456Y-87651918D01*
X121906502Y-87879998D01*
X121906502Y-87880001D01*
X121926456Y-88108081D01*
X121926457Y-88108089D01*
X121985714Y-88329238D01*
X121985718Y-88329249D01*
X122078052Y-88527259D01*
X122082477Y-88536749D01*
X122213802Y-88724300D01*
X122375700Y-88886198D01*
X122563251Y-89017523D01*
X122606345Y-89037618D01*
X122658784Y-89083791D01*
X122677936Y-89150984D01*
X122657720Y-89217865D01*
X122606345Y-89262382D01*
X122563251Y-89282476D01*
X122479680Y-89340994D01*
X122375700Y-89413802D01*
X122375698Y-89413803D01*
X122375695Y-89413806D01*
X122213806Y-89575695D01*
X122213803Y-89575698D01*
X122213802Y-89575700D01*
X122149304Y-89667812D01*
X122082476Y-89763252D01*
X122082475Y-89763254D01*
X121985718Y-89970750D01*
X121985714Y-89970761D01*
X121926457Y-90191910D01*
X121926456Y-90191918D01*
X121906502Y-90419998D01*
X121906502Y-90420001D01*
X116000000Y-90420001D01*
X116000000Y-90367339D01*
X115972741Y-90265606D01*
X115920080Y-90174394D01*
X115915686Y-90170000D01*
X116878872Y-90170000D01*
X116878872Y-90169999D01*
X116826269Y-89973682D01*
X116826265Y-89973673D01*
X116730134Y-89767517D01*
X116599657Y-89581179D01*
X116438820Y-89420342D01*
X116252481Y-89289865D01*
X116252479Y-89289864D01*
X116203599Y-89267071D01*
X116151159Y-89220899D01*
X116132007Y-89153706D01*
X116152223Y-89086824D01*
X116203599Y-89042307D01*
X116256749Y-89017523D01*
X116444300Y-88886198D01*
X116606198Y-88724300D01*
X116737523Y-88536749D01*
X116834284Y-88329243D01*
X116893543Y-88108087D01*
X116911867Y-87898638D01*
X116913498Y-87880001D01*
X116913498Y-87879998D01*
X116903863Y-87769868D01*
X116893543Y-87651913D01*
X116834284Y-87430757D01*
X116737523Y-87223251D01*
X116606198Y-87035700D01*
X116444300Y-86873802D01*
X116256749Y-86742477D01*
X116213655Y-86722382D01*
X116161215Y-86676210D01*
X116142063Y-86609017D01*
X116162278Y-86542136D01*
X116213655Y-86497618D01*
X116222396Y-86493542D01*
X116256749Y-86477523D01*
X116444300Y-86346198D01*
X116606198Y-86184300D01*
X116737523Y-85996749D01*
X116834284Y-85789243D01*
X116893543Y-85568087D01*
X116913498Y-85340000D01*
X116893543Y-85111913D01*
X116834284Y-84890757D01*
X116737523Y-84683251D01*
X116606198Y-84495700D01*
X116444300Y-84333802D01*
X116436627Y-84328429D01*
X116393006Y-84273853D01*
X116385814Y-84204355D01*
X116417338Y-84142001D01*
X116477568Y-84106588D01*
X116494489Y-84103570D01*
X116509201Y-84101989D01*
X116646204Y-84050889D01*
X116763261Y-83963261D01*
X116850889Y-83846204D01*
X116901989Y-83709201D01*
X116905591Y-83675692D01*
X116908499Y-83648654D01*
X116908500Y-83648637D01*
X116908500Y-81951362D01*
X116908499Y-81951345D01*
X116902764Y-81898011D01*
X116901989Y-81890799D01*
X116900386Y-81886502D01*
X116865812Y-81793806D01*
X116850889Y-81753796D01*
X116763261Y-81636739D01*
X116646204Y-81549111D01*
X116509203Y-81498011D01*
X116448654Y-81491500D01*
X116448638Y-81491500D01*
X114751362Y-81491500D01*
X114751345Y-81491500D01*
X114690797Y-81498011D01*
X114690795Y-81498011D01*
X114553795Y-81549111D01*
X114436739Y-81636739D01*
X114349111Y-81753795D01*
X114298011Y-81890795D01*
X114298011Y-81890797D01*
X114291500Y-81951345D01*
X114291500Y-83648654D01*
X114298011Y-83709202D01*
X114298011Y-83709204D01*
X114334189Y-83806198D01*
X114349111Y-83846204D01*
X114436739Y-83963261D01*
X114553796Y-84050889D01*
X114653110Y-84087931D01*
X114690793Y-84101987D01*
X114690799Y-84101989D01*
X114705499Y-84103569D01*
X114770048Y-84130305D01*
X114809897Y-84187696D01*
X114812393Y-84257521D01*
X114776742Y-84317611D01*
X114763377Y-84328425D01*
X114763371Y-84328431D01*
X114755696Y-84333805D01*
X114593806Y-84495695D01*
X114593803Y-84495698D01*
X114593802Y-84495700D01*
X114529386Y-84587696D01*
X114462476Y-84683252D01*
X114462475Y-84683254D01*
X114365718Y-84890750D01*
X114365714Y-84890761D01*
X114306457Y-85111910D01*
X114306456Y-85111918D01*
X114286502Y-85339998D01*
X114286502Y-85340001D01*
X114306456Y-85568081D01*
X114306457Y-85568089D01*
X114365714Y-85789238D01*
X114365718Y-85789249D01*
X114462475Y-85996745D01*
X114462477Y-85996749D01*
X114593802Y-86184300D01*
X114755700Y-86346198D01*
X114943251Y-86477523D01*
X114986345Y-86497618D01*
X115038784Y-86543791D01*
X115057936Y-86610984D01*
X115037720Y-86677865D01*
X114986345Y-86722382D01*
X114943251Y-86742476D01*
X114818126Y-86830090D01*
X114755700Y-86873802D01*
X114755698Y-86873803D01*
X114755695Y-86873806D01*
X114593806Y-87035695D01*
X114593803Y-87035698D01*
X114593802Y-87035700D01*
X114519037Y-87142475D01*
X114462476Y-87223252D01*
X114462475Y-87223254D01*
X114365718Y-87430750D01*
X114365714Y-87430761D01*
X114306457Y-87651910D01*
X114306456Y-87651918D01*
X114286502Y-87879998D01*
X114286502Y-87880001D01*
X100500500Y-87880001D01*
X100500500Y-84248654D01*
X102109121Y-84248654D01*
X102115632Y-84309202D01*
X102115632Y-84309204D01*
X102151810Y-84406198D01*
X102166732Y-84446204D01*
X102254360Y-84563261D01*
X102371417Y-84650889D01*
X102508420Y-84701989D01*
X102535671Y-84704918D01*
X102568966Y-84708499D01*
X102568983Y-84708500D01*
X104266259Y-84708500D01*
X104266275Y-84708499D01*
X104293313Y-84705591D01*
X104326822Y-84701989D01*
X104463825Y-84650889D01*
X104580882Y-84563261D01*
X104668510Y-84446204D01*
X104686509Y-84397946D01*
X104721921Y-84303007D01*
X104763792Y-84247073D01*
X104829257Y-84222657D01*
X104897530Y-84237509D01*
X104925783Y-84258660D01*
X105073321Y-84406198D01*
X105260872Y-84537523D01*
X105316066Y-84563260D01*
X105468371Y-84634281D01*
X105468373Y-84634281D01*
X105468378Y-84634284D01*
X105689534Y-84693543D01*
X105852453Y-84707796D01*
X105917619Y-84713498D01*
X105917621Y-84713498D01*
X105917623Y-84713498D01*
X105974760Y-84708499D01*
X106145708Y-84693543D01*
X106366864Y-84634284D01*
X106574370Y-84537523D01*
X106761921Y-84406198D01*
X106923819Y-84244300D01*
X107055144Y-84056749D01*
X107151905Y-83849243D01*
X107211164Y-83628087D01*
X107231119Y-83400000D01*
X107211164Y-83171913D01*
X107151905Y-82950757D01*
X107055144Y-82743251D01*
X106923819Y-82555700D01*
X106761921Y-82393802D01*
X106574370Y-82262477D01*
X106574366Y-82262475D01*
X106366870Y-82165718D01*
X106366859Y-82165714D01*
X106145710Y-82106457D01*
X106145702Y-82106456D01*
X105917623Y-82086502D01*
X105917619Y-82086502D01*
X105689539Y-82106456D01*
X105689531Y-82106457D01*
X105468382Y-82165714D01*
X105468371Y-82165718D01*
X105260875Y-82262475D01*
X105260873Y-82262476D01*
X105260872Y-82262477D01*
X105133932Y-82351362D01*
X105073320Y-82393803D01*
X104925783Y-82541340D01*
X104864460Y-82574824D01*
X104794768Y-82569840D01*
X104738835Y-82527968D01*
X104721921Y-82496993D01*
X104683432Y-82393803D01*
X104668510Y-82353796D01*
X104580882Y-82236739D01*
X104463825Y-82149111D01*
X104448114Y-82143251D01*
X104326824Y-82098011D01*
X104266275Y-82091500D01*
X104266259Y-82091500D01*
X102568983Y-82091500D01*
X102568966Y-82091500D01*
X102508418Y-82098011D01*
X102508416Y-82098011D01*
X102371416Y-82149111D01*
X102254360Y-82236739D01*
X102166732Y-82353795D01*
X102115632Y-82490795D01*
X102115632Y-82490797D01*
X102109121Y-82551345D01*
X102109121Y-84248654D01*
X100500500Y-84248654D01*
X100500500Y-78498654D01*
X117441500Y-78498654D01*
X117448011Y-78559202D01*
X117448011Y-78559204D01*
X117499111Y-78696204D01*
X117586739Y-78813261D01*
X117703796Y-78900889D01*
X117840799Y-78951989D01*
X117868050Y-78954918D01*
X117901345Y-78958499D01*
X117901362Y-78958500D01*
X119698638Y-78958500D01*
X119698654Y-78958499D01*
X119725692Y-78955591D01*
X119759201Y-78951989D01*
X119896204Y-78900889D01*
X120013261Y-78813261D01*
X120100889Y-78696204D01*
X120151989Y-78559201D01*
X120155591Y-78525692D01*
X120158499Y-78498654D01*
X122041500Y-78498654D01*
X122048011Y-78559202D01*
X122048011Y-78559204D01*
X122099111Y-78696204D01*
X122186739Y-78813261D01*
X122303796Y-78900889D01*
X122440799Y-78951989D01*
X122468050Y-78954918D01*
X122501345Y-78958499D01*
X122501362Y-78958500D01*
X124298638Y-78958500D01*
X124298654Y-78958499D01*
X124325692Y-78955591D01*
X124359201Y-78951989D01*
X124496204Y-78900889D01*
X124613261Y-78813261D01*
X124700889Y-78696204D01*
X124706932Y-78680001D01*
X145486502Y-78680001D01*
X145506456Y-78908081D01*
X145506457Y-78908089D01*
X145565714Y-79129238D01*
X145565718Y-79129249D01*
X145625010Y-79256401D01*
X145662477Y-79336749D01*
X145793802Y-79524300D01*
X145955700Y-79686198D01*
X146143251Y-79817523D01*
X146193163Y-79840797D01*
X146350750Y-79914281D01*
X146350752Y-79914281D01*
X146350757Y-79914284D01*
X146571913Y-79973543D01*
X146734832Y-79987796D01*
X146799998Y-79993498D01*
X146800000Y-79993498D01*
X146800002Y-79993498D01*
X146857021Y-79988509D01*
X147028087Y-79973543D01*
X147249243Y-79914284D01*
X147456749Y-79817523D01*
X147644300Y-79686198D01*
X147806198Y-79524300D01*
X147937523Y-79336749D01*
X148034284Y-79129243D01*
X148093543Y-78908087D01*
X148113498Y-78680000D01*
X148096000Y-78480001D01*
X150886502Y-78480001D01*
X150906456Y-78708081D01*
X150906457Y-78708089D01*
X150965714Y-78929238D01*
X150965718Y-78929249D01*
X151058977Y-79129243D01*
X151062477Y-79136749D01*
X151193802Y-79324300D01*
X151355700Y-79486198D01*
X151543251Y-79617523D01*
X151668091Y-79675736D01*
X151750750Y-79714281D01*
X151750752Y-79714281D01*
X151750757Y-79714284D01*
X151971913Y-79773543D01*
X152134832Y-79787796D01*
X152199998Y-79793498D01*
X152200000Y-79793498D01*
X152200002Y-79793498D01*
X152257021Y-79788509D01*
X152428087Y-79773543D01*
X152649243Y-79714284D01*
X152856749Y-79617523D01*
X153044300Y-79486198D01*
X153206198Y-79324300D01*
X153337523Y-79136749D01*
X153434284Y-78929243D01*
X153493543Y-78708087D01*
X153511867Y-78498638D01*
X153513498Y-78480001D01*
X153513498Y-78479998D01*
X153493543Y-78251918D01*
X153493543Y-78251913D01*
X153434284Y-78030757D01*
X153430785Y-78023254D01*
X153343328Y-77835700D01*
X153337523Y-77823251D01*
X153206198Y-77635700D01*
X153044300Y-77473802D01*
X152856749Y-77342477D01*
X152856745Y-77342475D01*
X152649249Y-77245718D01*
X152649238Y-77245714D01*
X152428089Y-77186457D01*
X152428081Y-77186456D01*
X152200002Y-77166502D01*
X152199998Y-77166502D01*
X151971918Y-77186456D01*
X151971910Y-77186457D01*
X151750761Y-77245714D01*
X151750750Y-77245718D01*
X151543254Y-77342475D01*
X151543252Y-77342476D01*
X151543251Y-77342477D01*
X151355700Y-77473802D01*
X151355698Y-77473803D01*
X151355695Y-77473806D01*
X151193806Y-77635695D01*
X151062476Y-77823252D01*
X151062475Y-77823254D01*
X150965718Y-78030750D01*
X150965714Y-78030761D01*
X150906457Y-78251910D01*
X150906456Y-78251918D01*
X150886502Y-78479998D01*
X150886502Y-78480001D01*
X148096000Y-78480001D01*
X148093543Y-78451913D01*
X148034284Y-78230757D01*
X147937523Y-78023251D01*
X147806198Y-77835700D01*
X147644300Y-77673802D01*
X147456749Y-77542477D01*
X147456745Y-77542475D01*
X147249249Y-77445718D01*
X147249238Y-77445714D01*
X147028089Y-77386457D01*
X147028081Y-77386456D01*
X146800002Y-77366502D01*
X146799998Y-77366502D01*
X146571918Y-77386456D01*
X146571910Y-77386457D01*
X146350761Y-77445714D01*
X146350750Y-77445718D01*
X146143254Y-77542475D01*
X146143252Y-77542476D01*
X146143251Y-77542477D01*
X145955700Y-77673802D01*
X145955698Y-77673803D01*
X145955695Y-77673806D01*
X145793806Y-77835695D01*
X145662476Y-78023252D01*
X145662475Y-78023254D01*
X145565718Y-78230750D01*
X145565714Y-78230761D01*
X145506457Y-78451910D01*
X145506456Y-78451918D01*
X145486502Y-78679998D01*
X145486502Y-78680001D01*
X124706932Y-78680001D01*
X124751989Y-78559201D01*
X124755591Y-78525692D01*
X124758499Y-78498654D01*
X124758500Y-78498637D01*
X124758500Y-78098654D01*
X128041500Y-78098654D01*
X128048011Y-78159202D01*
X128048011Y-78159204D01*
X128082590Y-78251910D01*
X128099111Y-78296204D01*
X128186739Y-78413261D01*
X128303796Y-78500889D01*
X128440799Y-78551989D01*
X128468050Y-78554918D01*
X128501345Y-78558499D01*
X128501362Y-78558500D01*
X130298638Y-78558500D01*
X130298654Y-78558499D01*
X130325692Y-78555591D01*
X130359201Y-78551989D01*
X130496204Y-78500889D01*
X130613261Y-78413261D01*
X130700889Y-78296204D01*
X130751989Y-78159201D01*
X130755591Y-78125692D01*
X130758499Y-78098654D01*
X130758500Y-78098637D01*
X130758500Y-76301362D01*
X130758499Y-76301345D01*
X130752064Y-76241500D01*
X130751989Y-76240799D01*
X130700889Y-76103796D01*
X130613261Y-75986739D01*
X130496204Y-75899111D01*
X130359203Y-75848011D01*
X130298654Y-75841500D01*
X130298638Y-75841500D01*
X128501362Y-75841500D01*
X128501345Y-75841500D01*
X128440797Y-75848011D01*
X128440795Y-75848011D01*
X128303795Y-75899111D01*
X128186739Y-75986739D01*
X128099111Y-76103795D01*
X128048011Y-76240795D01*
X128048011Y-76240797D01*
X128041500Y-76301345D01*
X128041500Y-78098654D01*
X124758500Y-78098654D01*
X124758500Y-76701362D01*
X124758499Y-76701345D01*
X124752897Y-76649249D01*
X124751989Y-76640799D01*
X124700889Y-76503796D01*
X124613261Y-76386739D01*
X124496204Y-76299111D01*
X124359203Y-76248011D01*
X124298654Y-76241500D01*
X124298638Y-76241500D01*
X122501362Y-76241500D01*
X122501345Y-76241500D01*
X122440797Y-76248011D01*
X122440795Y-76248011D01*
X122303795Y-76299111D01*
X122186739Y-76386739D01*
X122099111Y-76503795D01*
X122048011Y-76640795D01*
X122048011Y-76640797D01*
X122041500Y-76701345D01*
X122041500Y-78498654D01*
X120158499Y-78498654D01*
X120158500Y-78498637D01*
X120158500Y-76701362D01*
X120158499Y-76701345D01*
X120152897Y-76649249D01*
X120151989Y-76640799D01*
X120100889Y-76503796D01*
X120013261Y-76386739D01*
X119896204Y-76299111D01*
X119759203Y-76248011D01*
X119698654Y-76241500D01*
X119698638Y-76241500D01*
X117901362Y-76241500D01*
X117901345Y-76241500D01*
X117840797Y-76248011D01*
X117840795Y-76248011D01*
X117703795Y-76299111D01*
X117586739Y-76386739D01*
X117499111Y-76503795D01*
X117448011Y-76640795D01*
X117448011Y-76640797D01*
X117441500Y-76701345D01*
X117441500Y-78498654D01*
X100500500Y-78498654D01*
X100500500Y-76200001D01*
X101606502Y-76200001D01*
X101626456Y-76428081D01*
X101626457Y-76428089D01*
X101685714Y-76649238D01*
X101685718Y-76649249D01*
X101710011Y-76701345D01*
X101782477Y-76856749D01*
X101913802Y-77044300D01*
X102075700Y-77206198D01*
X102263251Y-77337523D01*
X102368189Y-77386456D01*
X102470750Y-77434281D01*
X102470752Y-77434281D01*
X102470757Y-77434284D01*
X102691913Y-77493543D01*
X102854832Y-77507796D01*
X102919998Y-77513498D01*
X102920000Y-77513498D01*
X102920002Y-77513498D01*
X102977021Y-77508509D01*
X103148087Y-77493543D01*
X103369243Y-77434284D01*
X103576749Y-77337523D01*
X103764300Y-77206198D01*
X103926198Y-77044300D01*
X104057523Y-76856749D01*
X104154284Y-76649243D01*
X104213543Y-76428087D01*
X104233498Y-76200001D01*
X111766502Y-76200001D01*
X111786456Y-76428081D01*
X111786457Y-76428089D01*
X111845714Y-76649238D01*
X111845718Y-76649249D01*
X111870011Y-76701345D01*
X111942477Y-76856749D01*
X112073802Y-77044300D01*
X112235700Y-77206198D01*
X112423251Y-77337523D01*
X112528189Y-77386456D01*
X112630750Y-77434281D01*
X112630752Y-77434281D01*
X112630757Y-77434284D01*
X112851913Y-77493543D01*
X113014832Y-77507796D01*
X113079998Y-77513498D01*
X113080000Y-77513498D01*
X113080002Y-77513498D01*
X113137021Y-77508509D01*
X113308087Y-77493543D01*
X113529243Y-77434284D01*
X113736749Y-77337523D01*
X113924300Y-77206198D01*
X114086198Y-77044300D01*
X114217523Y-76856749D01*
X114314284Y-76649243D01*
X114373543Y-76428087D01*
X114393498Y-76200000D01*
X114373543Y-75971913D01*
X114314284Y-75750757D01*
X114292862Y-75704818D01*
X114217524Y-75543254D01*
X114217523Y-75543252D01*
X114217523Y-75543251D01*
X114086198Y-75355700D01*
X113924300Y-75193802D01*
X113736749Y-75062477D01*
X113688549Y-75040001D01*
X134086502Y-75040001D01*
X134106456Y-75268081D01*
X134106457Y-75268089D01*
X134165714Y-75489238D01*
X134165718Y-75489249D01*
X134262475Y-75696745D01*
X134262477Y-75696749D01*
X134393802Y-75884300D01*
X134555700Y-76046198D01*
X134743251Y-76177523D01*
X134791456Y-76200001D01*
X134950750Y-76274281D01*
X134950752Y-76274281D01*
X134950757Y-76274284D01*
X135171913Y-76333543D01*
X135334832Y-76347796D01*
X135399998Y-76353498D01*
X135400000Y-76353498D01*
X135400002Y-76353498D01*
X135457021Y-76348509D01*
X135628087Y-76333543D01*
X135849243Y-76274284D01*
X136056749Y-76177523D01*
X136244300Y-76046198D01*
X136406198Y-75884300D01*
X136537523Y-75696749D01*
X136634284Y-75489243D01*
X136693543Y-75268087D01*
X136713498Y-75040000D01*
X136693543Y-74811913D01*
X136654179Y-74665005D01*
X159586673Y-74665005D01*
X159605948Y-74897622D01*
X159663251Y-75123907D01*
X159757015Y-75337668D01*
X159884686Y-75533084D01*
X160035348Y-75696745D01*
X160042780Y-75704818D01*
X160226983Y-75848190D01*
X160226985Y-75848191D01*
X160226988Y-75848193D01*
X160293716Y-75884304D01*
X160432273Y-75959287D01*
X160546914Y-75998643D01*
X160653045Y-76035079D01*
X160653047Y-76035079D01*
X160653049Y-76035080D01*
X160883288Y-76073500D01*
X160883289Y-76073500D01*
X161116711Y-76073500D01*
X161116712Y-76073500D01*
X161346951Y-76035080D01*
X161567727Y-75959287D01*
X161773017Y-75848190D01*
X161957220Y-75704818D01*
X162115314Y-75533083D01*
X162242984Y-75337669D01*
X162336749Y-75123907D01*
X162394051Y-74897626D01*
X162413327Y-74665000D01*
X162407175Y-74590761D01*
X162394051Y-74432377D01*
X162394051Y-74432374D01*
X162336749Y-74206093D01*
X162242984Y-73992331D01*
X162191994Y-73914285D01*
X162115316Y-73796919D01*
X162021926Y-73695471D01*
X161991004Y-73632816D01*
X161998864Y-73563390D01*
X162043011Y-73509235D01*
X162069824Y-73495306D01*
X162142084Y-73468355D01*
X162142093Y-73468350D01*
X162257187Y-73382190D01*
X162257190Y-73382187D01*
X162343350Y-73267093D01*
X162343354Y-73267086D01*
X162393596Y-73132379D01*
X162393598Y-73132372D01*
X162399999Y-73072844D01*
X162400000Y-73072827D01*
X162400000Y-72375000D01*
X161375278Y-72375000D01*
X161419333Y-72298694D01*
X161450000Y-72184244D01*
X161450000Y-72065756D01*
X161419333Y-71951306D01*
X161375278Y-71875000D01*
X162400000Y-71875000D01*
X162400000Y-71177172D01*
X162399999Y-71177155D01*
X162393598Y-71117627D01*
X162393596Y-71117620D01*
X162343354Y-70982913D01*
X162343350Y-70982906D01*
X162257190Y-70867812D01*
X162257187Y-70867809D01*
X162142093Y-70781649D01*
X162142086Y-70781645D01*
X162007379Y-70731403D01*
X162007372Y-70731401D01*
X161947844Y-70725000D01*
X161250000Y-70725000D01*
X161250000Y-71749722D01*
X161173694Y-71705667D01*
X161059244Y-71675000D01*
X160940756Y-71675000D01*
X160826306Y-71705667D01*
X160750000Y-71749722D01*
X160750000Y-70725000D01*
X160052155Y-70725000D01*
X159992627Y-70731401D01*
X159992620Y-70731403D01*
X159857913Y-70781645D01*
X159857906Y-70781649D01*
X159742812Y-70867809D01*
X159742809Y-70867812D01*
X159656649Y-70982906D01*
X159656645Y-70982913D01*
X159606403Y-71117620D01*
X159606401Y-71117627D01*
X159600000Y-71177155D01*
X159600000Y-71875000D01*
X160624722Y-71875000D01*
X160580667Y-71951306D01*
X160550000Y-72065756D01*
X160550000Y-72184244D01*
X160580667Y-72298694D01*
X160624722Y-72375000D01*
X159600000Y-72375000D01*
X159600000Y-73072844D01*
X159606401Y-73132372D01*
X159606403Y-73132379D01*
X159656645Y-73267086D01*
X159656649Y-73267093D01*
X159742809Y-73382187D01*
X159742812Y-73382190D01*
X159857906Y-73468350D01*
X159857915Y-73468355D01*
X159930175Y-73495306D01*
X159986109Y-73537177D01*
X160010527Y-73602641D01*
X159995676Y-73670914D01*
X159978073Y-73695470D01*
X159884686Y-73796916D01*
X159757015Y-73992331D01*
X159663251Y-74206092D01*
X159605948Y-74432377D01*
X159586673Y-74664994D01*
X159586673Y-74665005D01*
X136654179Y-74665005D01*
X136634284Y-74590757D01*
X136537523Y-74383251D01*
X136406198Y-74195700D01*
X136244300Y-74033802D01*
X136056749Y-73902477D01*
X136056745Y-73902475D01*
X135849249Y-73805718D01*
X135849238Y-73805714D01*
X135628089Y-73746457D01*
X135628081Y-73746456D01*
X135400002Y-73726502D01*
X135399998Y-73726502D01*
X135171918Y-73746456D01*
X135171910Y-73746457D01*
X134950761Y-73805714D01*
X134950750Y-73805718D01*
X134743254Y-73902475D01*
X134743252Y-73902476D01*
X134743251Y-73902477D01*
X134555700Y-74033802D01*
X134555698Y-74033803D01*
X134555695Y-74033806D01*
X134393806Y-74195695D01*
X134393803Y-74195698D01*
X134393802Y-74195700D01*
X134386525Y-74206093D01*
X134262476Y-74383252D01*
X134262475Y-74383254D01*
X134165718Y-74590750D01*
X134165714Y-74590761D01*
X134106457Y-74811910D01*
X134106456Y-74811918D01*
X134086502Y-75039998D01*
X134086502Y-75040001D01*
X113688549Y-75040001D01*
X113688547Y-75040000D01*
X113529249Y-74965718D01*
X113529238Y-74965714D01*
X113308089Y-74906457D01*
X113308081Y-74906456D01*
X113080002Y-74886502D01*
X113079998Y-74886502D01*
X112851918Y-74906456D01*
X112851910Y-74906457D01*
X112630761Y-74965714D01*
X112630750Y-74965718D01*
X112423254Y-75062475D01*
X112423252Y-75062476D01*
X112423251Y-75062477D01*
X112235700Y-75193802D01*
X112235698Y-75193803D01*
X112235695Y-75193806D01*
X112073806Y-75355695D01*
X111942476Y-75543252D01*
X111942475Y-75543254D01*
X111845718Y-75750750D01*
X111845714Y-75750761D01*
X111786457Y-75971910D01*
X111786456Y-75971918D01*
X111766502Y-76199998D01*
X111766502Y-76200001D01*
X104233498Y-76200001D01*
X104233498Y-76200000D01*
X104213543Y-75971913D01*
X104154284Y-75750757D01*
X104132862Y-75704818D01*
X104057524Y-75543254D01*
X104057523Y-75543252D01*
X104057523Y-75543251D01*
X103926198Y-75355700D01*
X103764300Y-75193802D01*
X103576749Y-75062477D01*
X103528547Y-75040000D01*
X103369249Y-74965718D01*
X103369238Y-74965714D01*
X103148089Y-74906457D01*
X103148081Y-74906456D01*
X102920002Y-74886502D01*
X102919998Y-74886502D01*
X102691918Y-74906456D01*
X102691910Y-74906457D01*
X102470761Y-74965714D01*
X102470750Y-74965718D01*
X102263254Y-75062475D01*
X102263252Y-75062476D01*
X102263251Y-75062477D01*
X102075700Y-75193802D01*
X102075698Y-75193803D01*
X102075695Y-75193806D01*
X101913806Y-75355695D01*
X101782476Y-75543252D01*
X101782475Y-75543254D01*
X101685718Y-75750750D01*
X101685714Y-75750761D01*
X101626457Y-75971910D01*
X101626456Y-75971918D01*
X101606502Y-76199998D01*
X101606502Y-76200001D01*
X100500500Y-76200001D01*
X100500500Y-72200001D01*
X115206502Y-72200001D01*
X115226456Y-72428081D01*
X115226457Y-72428089D01*
X115285714Y-72649238D01*
X115285718Y-72649249D01*
X115382475Y-72856745D01*
X115382477Y-72856749D01*
X115513802Y-73044300D01*
X115675700Y-73206198D01*
X115863251Y-73337523D01*
X115988091Y-73395736D01*
X116070750Y-73434281D01*
X116070752Y-73434281D01*
X116070757Y-73434284D01*
X116291913Y-73493543D01*
X116454832Y-73507796D01*
X116519998Y-73513498D01*
X116520000Y-73513498D01*
X116520002Y-73513498D01*
X116577021Y-73508509D01*
X116748087Y-73493543D01*
X116969243Y-73434284D01*
X117176749Y-73337523D01*
X117364300Y-73206198D01*
X117526198Y-73044300D01*
X117657523Y-72856749D01*
X117754284Y-72649243D01*
X117813543Y-72428087D01*
X117833498Y-72200001D01*
X125366502Y-72200001D01*
X125386456Y-72428081D01*
X125386457Y-72428089D01*
X125445714Y-72649238D01*
X125445718Y-72649249D01*
X125542475Y-72856745D01*
X125542477Y-72856749D01*
X125673802Y-73044300D01*
X125835700Y-73206198D01*
X126023251Y-73337523D01*
X126148091Y-73395736D01*
X126230750Y-73434281D01*
X126230752Y-73434281D01*
X126230757Y-73434284D01*
X126451913Y-73493543D01*
X126614832Y-73507796D01*
X126679998Y-73513498D01*
X126680000Y-73513498D01*
X126680002Y-73513498D01*
X126737021Y-73508509D01*
X126908087Y-73493543D01*
X127129243Y-73434284D01*
X127336749Y-73337523D01*
X127524300Y-73206198D01*
X127686198Y-73044300D01*
X127817523Y-72856749D01*
X127899941Y-72680001D01*
X139486502Y-72680001D01*
X139506456Y-72908081D01*
X139506457Y-72908089D01*
X139565714Y-73129238D01*
X139565718Y-73129249D01*
X139629996Y-73267093D01*
X139662477Y-73336749D01*
X139793802Y-73524300D01*
X139955700Y-73686198D01*
X140143251Y-73817523D01*
X140268091Y-73875736D01*
X140350750Y-73914281D01*
X140350752Y-73914281D01*
X140350757Y-73914284D01*
X140571913Y-73973543D01*
X140734832Y-73987796D01*
X140799998Y-73993498D01*
X140800000Y-73993498D01*
X140800002Y-73993498D01*
X140857021Y-73988509D01*
X141028087Y-73973543D01*
X141249243Y-73914284D01*
X141456749Y-73817523D01*
X141644300Y-73686198D01*
X141806198Y-73524300D01*
X141937523Y-73336749D01*
X142034284Y-73129243D01*
X142093543Y-72908087D01*
X142113498Y-72680000D01*
X142093543Y-72451913D01*
X142034284Y-72230757D01*
X142019942Y-72200001D01*
X141937524Y-72023254D01*
X141937523Y-72023252D01*
X141937523Y-72023251D01*
X141806198Y-71835700D01*
X141644300Y-71673802D01*
X141456749Y-71542477D01*
X141456745Y-71542475D01*
X141249249Y-71445718D01*
X141249238Y-71445714D01*
X141028089Y-71386457D01*
X141028081Y-71386456D01*
X140800002Y-71366502D01*
X140799998Y-71366502D01*
X140571918Y-71386456D01*
X140571910Y-71386457D01*
X140350761Y-71445714D01*
X140350750Y-71445718D01*
X140143254Y-71542475D01*
X140143252Y-71542476D01*
X140142144Y-71543252D01*
X139955700Y-71673802D01*
X139955698Y-71673803D01*
X139955695Y-71673806D01*
X139793806Y-71835695D01*
X139793803Y-71835698D01*
X139793802Y-71835700D01*
X139766284Y-71875000D01*
X139662476Y-72023252D01*
X139662475Y-72023254D01*
X139565718Y-72230750D01*
X139565714Y-72230761D01*
X139506457Y-72451910D01*
X139506456Y-72451918D01*
X139486502Y-72679998D01*
X139486502Y-72680001D01*
X127899941Y-72680001D01*
X127914284Y-72649243D01*
X127973543Y-72428087D01*
X127993498Y-72200000D01*
X127973543Y-71971913D01*
X127914284Y-71750757D01*
X127817523Y-71543251D01*
X127686198Y-71355700D01*
X127524300Y-71193802D01*
X127336749Y-71062477D01*
X127297777Y-71044304D01*
X127129249Y-70965718D01*
X127129238Y-70965714D01*
X126908089Y-70906457D01*
X126908081Y-70906456D01*
X126680002Y-70886502D01*
X126679998Y-70886502D01*
X126451918Y-70906456D01*
X126451910Y-70906457D01*
X126230761Y-70965714D01*
X126230750Y-70965718D01*
X126023254Y-71062475D01*
X126023252Y-71062476D01*
X126023251Y-71062477D01*
X125835700Y-71193802D01*
X125835698Y-71193803D01*
X125835695Y-71193806D01*
X125673806Y-71355695D01*
X125673803Y-71355698D01*
X125673802Y-71355700D01*
X125652266Y-71386457D01*
X125542476Y-71543252D01*
X125542475Y-71543254D01*
X125445718Y-71750750D01*
X125445714Y-71750761D01*
X125386457Y-71971910D01*
X125386456Y-71971918D01*
X125366502Y-72199998D01*
X125366502Y-72200001D01*
X117833498Y-72200001D01*
X117833498Y-72200000D01*
X117813543Y-71971913D01*
X117754284Y-71750757D01*
X117657523Y-71543251D01*
X117526198Y-71355700D01*
X117364300Y-71193802D01*
X117176749Y-71062477D01*
X117137777Y-71044304D01*
X116969249Y-70965718D01*
X116969238Y-70965714D01*
X116748089Y-70906457D01*
X116748081Y-70906456D01*
X116520002Y-70886502D01*
X116519998Y-70886502D01*
X116291918Y-70906456D01*
X116291910Y-70906457D01*
X116070761Y-70965714D01*
X116070750Y-70965718D01*
X115863254Y-71062475D01*
X115863252Y-71062476D01*
X115863251Y-71062477D01*
X115675700Y-71193802D01*
X115675698Y-71193803D01*
X115675695Y-71193806D01*
X115513806Y-71355695D01*
X115513803Y-71355698D01*
X115513802Y-71355700D01*
X115492266Y-71386457D01*
X115382476Y-71543252D01*
X115382475Y-71543254D01*
X115285718Y-71750750D01*
X115285714Y-71750761D01*
X115226457Y-71971910D01*
X115226456Y-71971918D01*
X115206502Y-72199998D01*
X115206502Y-72200001D01*
X100500500Y-72200001D01*
X100500500Y-70200001D01*
X101606502Y-70200001D01*
X101626456Y-70428081D01*
X101626457Y-70428089D01*
X101685714Y-70649238D01*
X101685718Y-70649249D01*
X101780487Y-70852482D01*
X101782477Y-70856749D01*
X101913802Y-71044300D01*
X102075700Y-71206198D01*
X102263251Y-71337523D01*
X102368189Y-71386456D01*
X102470750Y-71434281D01*
X102470752Y-71434281D01*
X102470757Y-71434284D01*
X102691913Y-71493543D01*
X102854832Y-71507796D01*
X102919998Y-71513498D01*
X102920000Y-71513498D01*
X102920002Y-71513498D01*
X102977021Y-71508509D01*
X103148087Y-71493543D01*
X103369243Y-71434284D01*
X103576749Y-71337523D01*
X103764300Y-71206198D01*
X103926198Y-71044300D01*
X104057523Y-70856749D01*
X104154284Y-70649243D01*
X104213543Y-70428087D01*
X104233498Y-70200000D01*
X104213543Y-69971913D01*
X104207671Y-69949999D01*
X111801127Y-69949999D01*
X111801128Y-69950000D01*
X112764314Y-69950000D01*
X112759920Y-69954394D01*
X112707259Y-70045606D01*
X112680000Y-70147339D01*
X112680000Y-70252661D01*
X112707259Y-70354394D01*
X112759920Y-70445606D01*
X112764314Y-70450000D01*
X111801128Y-70450000D01*
X111853730Y-70646317D01*
X111853734Y-70646326D01*
X111949865Y-70852482D01*
X112080342Y-71038820D01*
X112241179Y-71199657D01*
X112427517Y-71330134D01*
X112633673Y-71426265D01*
X112633682Y-71426269D01*
X112829999Y-71478872D01*
X112830000Y-71478871D01*
X112830000Y-70515686D01*
X112834394Y-70520080D01*
X112925606Y-70572741D01*
X113027339Y-70600000D01*
X113132661Y-70600000D01*
X113234394Y-70572741D01*
X113325606Y-70520080D01*
X113330000Y-70515686D01*
X113330000Y-71478872D01*
X113526317Y-71426269D01*
X113526326Y-71426265D01*
X113732482Y-71330134D01*
X113918820Y-71199657D01*
X114079657Y-71038820D01*
X114210134Y-70852482D01*
X114306265Y-70646326D01*
X114306269Y-70646317D01*
X114358872Y-70450000D01*
X113395686Y-70450000D01*
X113400080Y-70445606D01*
X113452741Y-70354394D01*
X113480000Y-70252661D01*
X113480000Y-70147339D01*
X113452741Y-70045606D01*
X113400080Y-69954394D01*
X113395686Y-69950000D01*
X114358872Y-69950000D01*
X114358872Y-69949999D01*
X114306269Y-69753682D01*
X114306265Y-69753673D01*
X114210134Y-69547517D01*
X114079657Y-69361179D01*
X113918820Y-69200342D01*
X113732482Y-69069865D01*
X113526328Y-68973734D01*
X113330000Y-68921127D01*
X113330000Y-69884314D01*
X113325606Y-69879920D01*
X113234394Y-69827259D01*
X113132661Y-69800000D01*
X113027339Y-69800000D01*
X112925606Y-69827259D01*
X112834394Y-69879920D01*
X112830000Y-69884314D01*
X112830000Y-68921127D01*
X112633671Y-68973734D01*
X112427517Y-69069865D01*
X112241179Y-69200342D01*
X112080342Y-69361179D01*
X111949865Y-69547517D01*
X111853734Y-69753673D01*
X111853730Y-69753682D01*
X111801127Y-69949999D01*
X104207671Y-69949999D01*
X104154284Y-69750757D01*
X104057523Y-69543251D01*
X103926198Y-69355700D01*
X103764300Y-69193802D01*
X103576749Y-69062477D01*
X103576745Y-69062475D01*
X103369249Y-68965718D01*
X103369238Y-68965714D01*
X103148089Y-68906457D01*
X103148081Y-68906456D01*
X102920002Y-68886502D01*
X102919998Y-68886502D01*
X102691918Y-68906456D01*
X102691910Y-68906457D01*
X102470761Y-68965714D01*
X102470750Y-68965718D01*
X102263254Y-69062475D01*
X102263252Y-69062476D01*
X102263251Y-69062477D01*
X102075700Y-69193802D01*
X102075698Y-69193803D01*
X102075695Y-69193806D01*
X101913806Y-69355695D01*
X101913803Y-69355698D01*
X101913802Y-69355700D01*
X101842505Y-69457523D01*
X101782476Y-69543252D01*
X101782475Y-69543254D01*
X101685718Y-69750750D01*
X101685714Y-69750761D01*
X101626457Y-69971910D01*
X101626456Y-69971918D01*
X101606502Y-70199998D01*
X101606502Y-70200001D01*
X100500500Y-70200001D01*
X100500500Y-68520001D01*
X145486502Y-68520001D01*
X145506456Y-68748081D01*
X145506457Y-68748089D01*
X145565714Y-68969238D01*
X145565718Y-68969249D01*
X145656672Y-69164300D01*
X145662477Y-69176749D01*
X145793802Y-69364300D01*
X145955700Y-69526198D01*
X146143251Y-69657523D01*
X146268091Y-69715736D01*
X146350750Y-69754281D01*
X146350752Y-69754281D01*
X146350757Y-69754284D01*
X146571913Y-69813543D01*
X146728688Y-69827259D01*
X146799998Y-69833498D01*
X146800000Y-69833498D01*
X146800002Y-69833498D01*
X146871312Y-69827259D01*
X147028087Y-69813543D01*
X147249243Y-69754284D01*
X147456749Y-69657523D01*
X147644300Y-69526198D01*
X147806198Y-69364300D01*
X147937523Y-69176749D01*
X148034284Y-68969243D01*
X148093543Y-68748087D01*
X148113498Y-68520000D01*
X148096000Y-68320001D01*
X150886502Y-68320001D01*
X150906456Y-68548081D01*
X150906457Y-68548089D01*
X150965714Y-68769238D01*
X150965718Y-68769249D01*
X151058977Y-68969243D01*
X151062477Y-68976749D01*
X151193802Y-69164300D01*
X151355700Y-69326198D01*
X151543251Y-69457523D01*
X151668091Y-69515736D01*
X151750750Y-69554281D01*
X151750752Y-69554281D01*
X151750757Y-69554284D01*
X151971913Y-69613543D01*
X152134832Y-69627796D01*
X152199998Y-69633498D01*
X152200000Y-69633498D01*
X152200002Y-69633498D01*
X152257021Y-69628509D01*
X152428087Y-69613543D01*
X152649243Y-69554284D01*
X152856749Y-69457523D01*
X153044300Y-69326198D01*
X153206198Y-69164300D01*
X153337523Y-68976749D01*
X153434284Y-68769243D01*
X153493543Y-68548087D01*
X153513498Y-68320000D01*
X153511040Y-68291910D01*
X153507796Y-68254832D01*
X153493543Y-68091913D01*
X153434284Y-67870757D01*
X153430785Y-67863254D01*
X153343328Y-67675700D01*
X153337523Y-67663251D01*
X153206198Y-67475700D01*
X153044300Y-67313802D01*
X152856749Y-67182477D01*
X152856745Y-67182475D01*
X152649249Y-67085718D01*
X152649238Y-67085714D01*
X152428089Y-67026457D01*
X152428081Y-67026456D01*
X152200002Y-67006502D01*
X152199998Y-67006502D01*
X151971918Y-67026456D01*
X151971910Y-67026457D01*
X151750761Y-67085714D01*
X151750750Y-67085718D01*
X151543254Y-67182475D01*
X151543252Y-67182476D01*
X151518224Y-67200001D01*
X151355700Y-67313802D01*
X151355698Y-67313803D01*
X151355695Y-67313806D01*
X151193806Y-67475695D01*
X151062476Y-67663252D01*
X151062475Y-67663254D01*
X150965718Y-67870750D01*
X150965714Y-67870761D01*
X150906457Y-68091910D01*
X150906456Y-68091918D01*
X150886502Y-68319998D01*
X150886502Y-68320001D01*
X148096000Y-68320001D01*
X148093543Y-68291913D01*
X148034284Y-68070757D01*
X147937523Y-67863251D01*
X147806198Y-67675700D01*
X147644300Y-67513802D01*
X147456749Y-67382477D01*
X147456745Y-67382475D01*
X147249249Y-67285718D01*
X147249238Y-67285714D01*
X147028089Y-67226457D01*
X147028081Y-67226456D01*
X146800002Y-67206502D01*
X146799998Y-67206502D01*
X146571918Y-67226456D01*
X146571910Y-67226457D01*
X146350761Y-67285714D01*
X146350750Y-67285718D01*
X146143254Y-67382475D01*
X146143252Y-67382476D01*
X146143251Y-67382477D01*
X145955700Y-67513802D01*
X145955698Y-67513803D01*
X145955695Y-67513806D01*
X145793806Y-67675695D01*
X145662476Y-67863252D01*
X145662475Y-67863254D01*
X145565718Y-68070750D01*
X145565714Y-68070761D01*
X145506457Y-68291910D01*
X145506456Y-68291918D01*
X145486502Y-68519998D01*
X145486502Y-68520001D01*
X100500500Y-68520001D01*
X100500500Y-67200001D01*
X129586502Y-67200001D01*
X129606456Y-67428081D01*
X129606457Y-67428089D01*
X129665714Y-67649238D01*
X129665718Y-67649249D01*
X129762475Y-67856745D01*
X129762477Y-67856749D01*
X129893802Y-68044300D01*
X130055700Y-68206198D01*
X130243251Y-68337523D01*
X130368091Y-68395736D01*
X130450750Y-68434281D01*
X130450752Y-68434281D01*
X130450757Y-68434284D01*
X130671913Y-68493543D01*
X130834832Y-68507796D01*
X130899998Y-68513498D01*
X130900000Y-68513498D01*
X130900002Y-68513498D01*
X130957021Y-68508509D01*
X131128087Y-68493543D01*
X131349243Y-68434284D01*
X131556749Y-68337523D01*
X131744300Y-68206198D01*
X131906198Y-68044300D01*
X132037523Y-67856749D01*
X132134284Y-67649243D01*
X132193543Y-67428087D01*
X132213498Y-67200001D01*
X134586502Y-67200001D01*
X134606456Y-67428081D01*
X134606457Y-67428089D01*
X134665714Y-67649238D01*
X134665718Y-67649249D01*
X134762475Y-67856745D01*
X134762477Y-67856749D01*
X134893802Y-68044300D01*
X135055700Y-68206198D01*
X135243251Y-68337523D01*
X135368091Y-68395736D01*
X135450750Y-68434281D01*
X135450752Y-68434281D01*
X135450757Y-68434284D01*
X135671913Y-68493543D01*
X135834832Y-68507796D01*
X135899998Y-68513498D01*
X135900000Y-68513498D01*
X135900002Y-68513498D01*
X135957021Y-68508509D01*
X136128087Y-68493543D01*
X136349243Y-68434284D01*
X136556749Y-68337523D01*
X136744300Y-68206198D01*
X136906198Y-68044300D01*
X137037523Y-67856749D01*
X137134284Y-67649243D01*
X137193543Y-67428087D01*
X137213498Y-67200000D01*
X137212027Y-67183191D01*
X137199484Y-67039818D01*
X137193543Y-66971913D01*
X137134284Y-66750757D01*
X137037523Y-66543251D01*
X136906198Y-66355700D01*
X136744300Y-66193802D01*
X136556749Y-66062477D01*
X136556745Y-66062475D01*
X136422778Y-66000005D01*
X159586673Y-66000005D01*
X159605948Y-66232622D01*
X159605948Y-66232625D01*
X159605949Y-66232626D01*
X159649902Y-66406193D01*
X159663251Y-66458907D01*
X159757015Y-66672668D01*
X159884686Y-66868084D01*
X159980273Y-66971918D01*
X160042780Y-67039818D01*
X160226983Y-67183190D01*
X160226985Y-67183191D01*
X160226988Y-67183193D01*
X160258045Y-67200000D01*
X160432273Y-67294287D01*
X160489118Y-67313802D01*
X160653045Y-67370079D01*
X160653047Y-67370079D01*
X160653049Y-67370080D01*
X160883288Y-67408500D01*
X160883289Y-67408500D01*
X161116711Y-67408500D01*
X161116712Y-67408500D01*
X161346951Y-67370080D01*
X161567727Y-67294287D01*
X161773017Y-67183190D01*
X161957220Y-67039818D01*
X162115314Y-66868083D01*
X162242984Y-66672669D01*
X162336749Y-66458907D01*
X162394051Y-66232626D01*
X162413327Y-66000000D01*
X162410486Y-65965718D01*
X162394051Y-65767377D01*
X162394051Y-65767374D01*
X162336749Y-65541093D01*
X162242984Y-65327331D01*
X162188740Y-65244304D01*
X162115316Y-65131919D01*
X162021926Y-65030471D01*
X161991004Y-64967816D01*
X161998864Y-64898390D01*
X162043011Y-64844235D01*
X162069824Y-64830306D01*
X162142084Y-64803355D01*
X162142093Y-64803350D01*
X162257187Y-64717190D01*
X162257190Y-64717187D01*
X162343350Y-64602093D01*
X162343354Y-64602086D01*
X162393596Y-64467379D01*
X162393598Y-64467372D01*
X162399999Y-64407844D01*
X162400000Y-64407827D01*
X162400000Y-63710000D01*
X161375278Y-63710000D01*
X161419333Y-63633694D01*
X161450000Y-63519244D01*
X161450000Y-63400756D01*
X161419333Y-63286306D01*
X161375278Y-63210000D01*
X162400000Y-63210000D01*
X162400000Y-62512172D01*
X162399999Y-62512155D01*
X162393598Y-62452627D01*
X162393596Y-62452620D01*
X162343354Y-62317913D01*
X162343350Y-62317906D01*
X162257190Y-62202812D01*
X162257187Y-62202809D01*
X162142093Y-62116649D01*
X162142086Y-62116645D01*
X162007379Y-62066403D01*
X162007372Y-62066401D01*
X161947844Y-62060000D01*
X161250000Y-62060000D01*
X161250000Y-63084722D01*
X161173694Y-63040667D01*
X161059244Y-63010000D01*
X160940756Y-63010000D01*
X160826306Y-63040667D01*
X160750000Y-63084722D01*
X160750000Y-62060000D01*
X160052155Y-62060000D01*
X159992627Y-62066401D01*
X159992620Y-62066403D01*
X159857913Y-62116645D01*
X159857906Y-62116649D01*
X159742812Y-62202809D01*
X159742809Y-62202812D01*
X159656649Y-62317906D01*
X159656645Y-62317913D01*
X159606403Y-62452620D01*
X159606401Y-62452627D01*
X159600000Y-62512155D01*
X159600000Y-63210000D01*
X160624722Y-63210000D01*
X160580667Y-63286306D01*
X160550000Y-63400756D01*
X160550000Y-63519244D01*
X160580667Y-63633694D01*
X160624722Y-63710000D01*
X159600000Y-63710000D01*
X159600000Y-64407844D01*
X159606401Y-64467372D01*
X159606403Y-64467379D01*
X159656645Y-64602086D01*
X159656649Y-64602093D01*
X159742809Y-64717187D01*
X159742812Y-64717190D01*
X159857906Y-64803350D01*
X159857915Y-64803355D01*
X159930175Y-64830306D01*
X159986109Y-64872177D01*
X160010527Y-64937641D01*
X159995676Y-65005914D01*
X159978073Y-65030470D01*
X159884686Y-65131916D01*
X159757015Y-65327331D01*
X159663251Y-65541092D01*
X159605948Y-65767377D01*
X159586673Y-65999994D01*
X159586673Y-66000005D01*
X136422778Y-66000005D01*
X136349249Y-65965718D01*
X136349238Y-65965714D01*
X136128089Y-65906457D01*
X136128081Y-65906456D01*
X135900002Y-65886502D01*
X135899998Y-65886502D01*
X135671918Y-65906456D01*
X135671910Y-65906457D01*
X135450761Y-65965714D01*
X135450750Y-65965718D01*
X135243254Y-66062475D01*
X135243252Y-66062476D01*
X135243251Y-66062477D01*
X135055700Y-66193802D01*
X135055698Y-66193803D01*
X135055695Y-66193806D01*
X134893806Y-66355695D01*
X134893803Y-66355698D01*
X134893802Y-66355700D01*
X134811767Y-66472856D01*
X134762476Y-66543252D01*
X134762475Y-66543254D01*
X134665718Y-66750750D01*
X134665714Y-66750761D01*
X134606457Y-66971910D01*
X134606456Y-66971918D01*
X134586502Y-67199998D01*
X134586502Y-67200001D01*
X132213498Y-67200001D01*
X132213498Y-67200000D01*
X132212027Y-67183191D01*
X132199484Y-67039818D01*
X132193543Y-66971913D01*
X132134284Y-66750757D01*
X132037523Y-66543251D01*
X131906198Y-66355700D01*
X131744300Y-66193802D01*
X131556749Y-66062477D01*
X131556745Y-66062475D01*
X131349249Y-65965718D01*
X131349238Y-65965714D01*
X131128089Y-65906457D01*
X131128081Y-65906456D01*
X130900002Y-65886502D01*
X130899998Y-65886502D01*
X130671918Y-65906456D01*
X130671910Y-65906457D01*
X130450761Y-65965714D01*
X130450750Y-65965718D01*
X130243254Y-66062475D01*
X130243252Y-66062476D01*
X130243251Y-66062477D01*
X130055700Y-66193802D01*
X130055698Y-66193803D01*
X130055695Y-66193806D01*
X129893806Y-66355695D01*
X129893803Y-66355698D01*
X129893802Y-66355700D01*
X129811767Y-66472856D01*
X129762476Y-66543252D01*
X129762475Y-66543254D01*
X129665718Y-66750750D01*
X129665714Y-66750761D01*
X129606457Y-66971910D01*
X129606456Y-66971918D01*
X129586502Y-67199998D01*
X129586502Y-67200001D01*
X100500500Y-67200001D01*
X100500500Y-65400001D01*
X101606502Y-65400001D01*
X101626456Y-65628081D01*
X101626457Y-65628089D01*
X101685714Y-65849238D01*
X101685718Y-65849249D01*
X101756017Y-66000005D01*
X101782477Y-66056749D01*
X101913802Y-66244300D01*
X102075700Y-66406198D01*
X102263251Y-66537523D01*
X102388091Y-66595736D01*
X102470750Y-66634281D01*
X102470752Y-66634281D01*
X102470757Y-66634284D01*
X102691913Y-66693543D01*
X102854832Y-66707796D01*
X102919998Y-66713498D01*
X102920000Y-66713498D01*
X102920002Y-66713498D01*
X102977021Y-66708509D01*
X103148087Y-66693543D01*
X103369243Y-66634284D01*
X103576749Y-66537523D01*
X103764300Y-66406198D01*
X103926198Y-66244300D01*
X104057523Y-66056749D01*
X104154284Y-65849243D01*
X104213543Y-65628087D01*
X104233498Y-65400001D01*
X111766502Y-65400001D01*
X111786456Y-65628081D01*
X111786457Y-65628089D01*
X111845714Y-65849238D01*
X111845718Y-65849249D01*
X111916017Y-66000005D01*
X111942477Y-66056749D01*
X112073802Y-66244300D01*
X112235700Y-66406198D01*
X112423251Y-66537523D01*
X112548091Y-66595736D01*
X112630750Y-66634281D01*
X112630752Y-66634281D01*
X112630757Y-66634284D01*
X112851913Y-66693543D01*
X113014832Y-66707796D01*
X113079998Y-66713498D01*
X113080000Y-66713498D01*
X113080002Y-66713498D01*
X113137021Y-66708509D01*
X113308087Y-66693543D01*
X113529243Y-66634284D01*
X113736749Y-66537523D01*
X113924300Y-66406198D01*
X114086198Y-66244300D01*
X114217523Y-66056749D01*
X114314284Y-65849243D01*
X114373543Y-65628087D01*
X114393498Y-65400000D01*
X114373543Y-65171913D01*
X114314284Y-64950757D01*
X114217523Y-64743251D01*
X114086198Y-64555700D01*
X113930499Y-64400001D01*
X117186502Y-64400001D01*
X117206456Y-64628081D01*
X117206457Y-64628089D01*
X117265714Y-64849238D01*
X117265718Y-64849249D01*
X117276410Y-64872177D01*
X117362477Y-65056749D01*
X117493802Y-65244300D01*
X117655700Y-65406198D01*
X117843251Y-65537523D01*
X117968091Y-65595736D01*
X118050750Y-65634281D01*
X118050752Y-65634281D01*
X118050757Y-65634284D01*
X118271913Y-65693543D01*
X118434832Y-65707796D01*
X118499998Y-65713498D01*
X118500000Y-65713498D01*
X118500002Y-65713498D01*
X118557021Y-65708509D01*
X118728087Y-65693543D01*
X118949243Y-65634284D01*
X119156749Y-65537523D01*
X119344300Y-65406198D01*
X119506198Y-65244300D01*
X119637523Y-65056749D01*
X119734284Y-64849243D01*
X119793543Y-64628087D01*
X119813498Y-64400001D01*
X122186502Y-64400001D01*
X122206456Y-64628081D01*
X122206457Y-64628089D01*
X122265714Y-64849238D01*
X122265718Y-64849249D01*
X122276410Y-64872177D01*
X122362477Y-65056749D01*
X122493802Y-65244300D01*
X122655700Y-65406198D01*
X122843251Y-65537523D01*
X122968091Y-65595736D01*
X123050750Y-65634281D01*
X123050752Y-65634281D01*
X123050757Y-65634284D01*
X123271913Y-65693543D01*
X123434832Y-65707796D01*
X123499998Y-65713498D01*
X123500000Y-65713498D01*
X123500002Y-65713498D01*
X123557021Y-65708509D01*
X123728087Y-65693543D01*
X123949243Y-65634284D01*
X124156749Y-65537523D01*
X124344300Y-65406198D01*
X124506198Y-65244300D01*
X124637523Y-65056749D01*
X124734284Y-64849243D01*
X124793543Y-64628087D01*
X124813498Y-64400000D01*
X124793543Y-64171913D01*
X124734284Y-63950757D01*
X124637523Y-63743251D01*
X124506198Y-63555700D01*
X124344300Y-63393802D01*
X124156749Y-63262477D01*
X124156745Y-63262475D01*
X123949249Y-63165718D01*
X123949238Y-63165714D01*
X123728089Y-63106457D01*
X123728081Y-63106456D01*
X123500002Y-63086502D01*
X123499998Y-63086502D01*
X123271918Y-63106456D01*
X123271910Y-63106457D01*
X123050761Y-63165714D01*
X123050750Y-63165718D01*
X122843254Y-63262475D01*
X122843252Y-63262476D01*
X122843251Y-63262477D01*
X122655700Y-63393802D01*
X122655698Y-63393803D01*
X122655695Y-63393806D01*
X122493806Y-63555695D01*
X122362476Y-63743252D01*
X122362475Y-63743254D01*
X122265718Y-63950750D01*
X122265714Y-63950761D01*
X122206457Y-64171910D01*
X122206456Y-64171918D01*
X122186502Y-64399998D01*
X122186502Y-64400001D01*
X119813498Y-64400001D01*
X119813498Y-64400000D01*
X119793543Y-64171913D01*
X119734284Y-63950757D01*
X119637523Y-63743251D01*
X119506198Y-63555700D01*
X119344300Y-63393802D01*
X119156749Y-63262477D01*
X119156745Y-63262475D01*
X118949249Y-63165718D01*
X118949238Y-63165714D01*
X118728089Y-63106457D01*
X118728081Y-63106456D01*
X118500002Y-63086502D01*
X118499998Y-63086502D01*
X118271918Y-63106456D01*
X118271910Y-63106457D01*
X118050761Y-63165714D01*
X118050750Y-63165718D01*
X117843254Y-63262475D01*
X117843252Y-63262476D01*
X117843251Y-63262477D01*
X117655700Y-63393802D01*
X117655698Y-63393803D01*
X117655695Y-63393806D01*
X117493806Y-63555695D01*
X117362476Y-63743252D01*
X117362475Y-63743254D01*
X117265718Y-63950750D01*
X117265714Y-63950761D01*
X117206457Y-64171910D01*
X117206456Y-64171918D01*
X117186502Y-64399998D01*
X117186502Y-64400001D01*
X113930499Y-64400001D01*
X113924300Y-64393802D01*
X113736749Y-64262477D01*
X113736745Y-64262475D01*
X113529249Y-64165718D01*
X113529238Y-64165714D01*
X113308089Y-64106457D01*
X113308081Y-64106456D01*
X113080002Y-64086502D01*
X113079998Y-64086502D01*
X112851918Y-64106456D01*
X112851910Y-64106457D01*
X112630761Y-64165714D01*
X112630750Y-64165718D01*
X112423254Y-64262475D01*
X112423252Y-64262476D01*
X112423251Y-64262477D01*
X112235700Y-64393802D01*
X112235698Y-64393803D01*
X112235695Y-64393806D01*
X112073806Y-64555695D01*
X112073803Y-64555698D01*
X112073802Y-64555700D01*
X111991767Y-64672856D01*
X111942476Y-64743252D01*
X111942475Y-64743254D01*
X111845718Y-64950750D01*
X111845714Y-64950761D01*
X111786457Y-65171910D01*
X111786456Y-65171918D01*
X111766502Y-65399998D01*
X111766502Y-65400001D01*
X104233498Y-65400001D01*
X104233498Y-65400000D01*
X104213543Y-65171913D01*
X104154284Y-64950757D01*
X104057523Y-64743251D01*
X103926198Y-64555700D01*
X103764300Y-64393802D01*
X103576749Y-64262477D01*
X103576745Y-64262475D01*
X103369249Y-64165718D01*
X103369238Y-64165714D01*
X103148089Y-64106457D01*
X103148081Y-64106456D01*
X102920002Y-64086502D01*
X102919998Y-64086502D01*
X102691918Y-64106456D01*
X102691910Y-64106457D01*
X102470761Y-64165714D01*
X102470750Y-64165718D01*
X102263254Y-64262475D01*
X102263252Y-64262476D01*
X102263251Y-64262477D01*
X102075700Y-64393802D01*
X102075698Y-64393803D01*
X102075695Y-64393806D01*
X101913806Y-64555695D01*
X101913803Y-64555698D01*
X101913802Y-64555700D01*
X101831767Y-64672856D01*
X101782476Y-64743252D01*
X101782475Y-64743254D01*
X101685718Y-64950750D01*
X101685714Y-64950761D01*
X101626457Y-65171910D01*
X101626456Y-65171918D01*
X101606502Y-65399998D01*
X101606502Y-65400001D01*
X100500500Y-65400001D01*
X100500500Y-62520001D01*
X139486502Y-62520001D01*
X139506456Y-62748081D01*
X139506457Y-62748089D01*
X139565714Y-62969238D01*
X139565718Y-62969249D01*
X139657331Y-63165714D01*
X139662477Y-63176749D01*
X139793802Y-63364300D01*
X139955700Y-63526198D01*
X140143251Y-63657523D01*
X140255789Y-63710000D01*
X140350750Y-63754281D01*
X140350752Y-63754281D01*
X140350757Y-63754284D01*
X140571913Y-63813543D01*
X140734832Y-63827796D01*
X140799998Y-63833498D01*
X140800000Y-63833498D01*
X140800002Y-63833498D01*
X140857021Y-63828509D01*
X141028087Y-63813543D01*
X141249243Y-63754284D01*
X141456749Y-63657523D01*
X141644300Y-63526198D01*
X141806198Y-63364300D01*
X141937523Y-63176749D01*
X141982637Y-63080001D01*
X149686502Y-63080001D01*
X149706456Y-63308081D01*
X149706457Y-63308089D01*
X149765714Y-63529238D01*
X149765718Y-63529249D01*
X149825534Y-63657524D01*
X149862477Y-63736749D01*
X149993802Y-63924300D01*
X150155700Y-64086198D01*
X150343251Y-64217523D01*
X150439652Y-64262475D01*
X150550750Y-64314281D01*
X150550752Y-64314281D01*
X150550757Y-64314284D01*
X150771913Y-64373543D01*
X150934832Y-64387796D01*
X150999998Y-64393498D01*
X151000000Y-64393498D01*
X151000002Y-64393498D01*
X151057021Y-64388509D01*
X151228087Y-64373543D01*
X151449243Y-64314284D01*
X151656749Y-64217523D01*
X151844300Y-64086198D01*
X152006198Y-63924300D01*
X152137523Y-63736749D01*
X152234284Y-63529243D01*
X152293543Y-63308087D01*
X152313498Y-63080001D01*
X154086502Y-63080001D01*
X154106456Y-63308081D01*
X154106457Y-63308089D01*
X154165714Y-63529238D01*
X154165718Y-63529249D01*
X154225534Y-63657524D01*
X154262477Y-63736749D01*
X154393802Y-63924300D01*
X154555700Y-64086198D01*
X154743251Y-64217523D01*
X154839652Y-64262475D01*
X154950750Y-64314281D01*
X154950752Y-64314281D01*
X154950757Y-64314284D01*
X155171913Y-64373543D01*
X155334832Y-64387796D01*
X155399998Y-64393498D01*
X155400000Y-64393498D01*
X155400002Y-64393498D01*
X155457021Y-64388509D01*
X155628087Y-64373543D01*
X155849243Y-64314284D01*
X156056749Y-64217523D01*
X156244300Y-64086198D01*
X156406198Y-63924300D01*
X156537523Y-63736749D01*
X156634284Y-63529243D01*
X156693543Y-63308087D01*
X156713498Y-63080000D01*
X156693543Y-62851913D01*
X156634284Y-62630757D01*
X156537523Y-62423251D01*
X156406198Y-62235700D01*
X156244300Y-62073802D01*
X156056749Y-61942477D01*
X156056745Y-61942475D01*
X155849249Y-61845718D01*
X155849238Y-61845714D01*
X155628089Y-61786457D01*
X155628081Y-61786456D01*
X155400002Y-61766502D01*
X155399998Y-61766502D01*
X155171918Y-61786456D01*
X155171910Y-61786457D01*
X154950761Y-61845714D01*
X154950750Y-61845718D01*
X154743254Y-61942475D01*
X154743252Y-61942476D01*
X154743251Y-61942477D01*
X154555700Y-62073802D01*
X154555698Y-62073803D01*
X154555695Y-62073806D01*
X154393806Y-62235695D01*
X154262476Y-62423252D01*
X154262475Y-62423254D01*
X154165718Y-62630750D01*
X154165714Y-62630761D01*
X154106457Y-62851910D01*
X154106456Y-62851918D01*
X154086502Y-63079998D01*
X154086502Y-63080001D01*
X152313498Y-63080001D01*
X152313498Y-63080000D01*
X152293543Y-62851913D01*
X152234284Y-62630757D01*
X152137523Y-62423251D01*
X152006198Y-62235700D01*
X151844300Y-62073802D01*
X151656749Y-61942477D01*
X151656745Y-61942475D01*
X151449249Y-61845718D01*
X151449238Y-61845714D01*
X151228089Y-61786457D01*
X151228081Y-61786456D01*
X151000002Y-61766502D01*
X150999998Y-61766502D01*
X150771918Y-61786456D01*
X150771910Y-61786457D01*
X150550761Y-61845714D01*
X150550750Y-61845718D01*
X150343254Y-61942475D01*
X150343252Y-61942476D01*
X150343251Y-61942477D01*
X150155700Y-62073802D01*
X150155698Y-62073803D01*
X150155695Y-62073806D01*
X149993806Y-62235695D01*
X149862476Y-62423252D01*
X149862475Y-62423254D01*
X149765718Y-62630750D01*
X149765714Y-62630761D01*
X149706457Y-62851910D01*
X149706456Y-62851918D01*
X149686502Y-63079998D01*
X149686502Y-63080001D01*
X141982637Y-63080001D01*
X142034284Y-62969243D01*
X142093543Y-62748087D01*
X142113498Y-62520000D01*
X142093543Y-62291913D01*
X142034284Y-62070757D01*
X141937523Y-61863251D01*
X141806198Y-61675700D01*
X141644300Y-61513802D01*
X141456749Y-61382477D01*
X141437588Y-61373542D01*
X141249249Y-61285718D01*
X141249238Y-61285714D01*
X141028089Y-61226457D01*
X141028081Y-61226456D01*
X140800002Y-61206502D01*
X140799998Y-61206502D01*
X140571918Y-61226456D01*
X140571910Y-61226457D01*
X140350761Y-61285714D01*
X140350750Y-61285718D01*
X140143254Y-61382475D01*
X140143252Y-61382476D01*
X140143251Y-61382477D01*
X139955700Y-61513802D01*
X139955698Y-61513803D01*
X139955695Y-61513806D01*
X139793806Y-61675695D01*
X139662476Y-61863252D01*
X139662475Y-61863254D01*
X139565718Y-62070750D01*
X139565714Y-62070761D01*
X139506457Y-62291910D01*
X139506456Y-62291918D01*
X139486502Y-62519998D01*
X139486502Y-62520001D01*
X100500500Y-62520001D01*
X100500500Y-59648654D01*
X101686388Y-59648654D01*
X101692899Y-59709202D01*
X101692899Y-59709204D01*
X101708116Y-59750000D01*
X101743999Y-59846204D01*
X101831627Y-59963261D01*
X101948684Y-60050889D01*
X102085687Y-60101989D01*
X102112938Y-60104918D01*
X102146233Y-60108499D01*
X102146250Y-60108500D01*
X103843526Y-60108500D01*
X103843542Y-60108499D01*
X103870580Y-60105591D01*
X103904089Y-60101989D01*
X104041092Y-60050889D01*
X104158149Y-59963261D01*
X104245777Y-59846204D01*
X104296877Y-59709201D01*
X104301380Y-59667314D01*
X104303387Y-59648654D01*
X104303565Y-59645331D01*
X104303743Y-59645340D01*
X104303744Y-59645335D01*
X104303847Y-59645346D01*
X104305016Y-59645408D01*
X104323073Y-59583915D01*
X104375877Y-59538160D01*
X104408855Y-59532479D01*
X105094888Y-58846446D01*
X105094888Y-58852661D01*
X105122147Y-58954394D01*
X105174808Y-59045606D01*
X105249282Y-59120080D01*
X105340494Y-59172741D01*
X105442227Y-59200000D01*
X105448441Y-59200000D01*
X104769414Y-59879025D01*
X104842401Y-59930132D01*
X104842409Y-59930136D01*
X105048556Y-60026264D01*
X105048570Y-60026269D01*
X105268277Y-60085139D01*
X105268288Y-60085141D01*
X105494886Y-60104966D01*
X105494890Y-60104966D01*
X105721487Y-60085141D01*
X105721498Y-60085139D01*
X105740673Y-60080001D01*
X110686502Y-60080001D01*
X110706456Y-60308081D01*
X110706457Y-60308089D01*
X110765714Y-60529238D01*
X110765718Y-60529249D01*
X110862475Y-60736745D01*
X110862477Y-60736749D01*
X110993802Y-60924300D01*
X111155700Y-61086198D01*
X111343251Y-61217523D01*
X111468091Y-61275736D01*
X111550750Y-61314281D01*
X111550752Y-61314281D01*
X111550757Y-61314284D01*
X111771913Y-61373543D01*
X111934832Y-61387796D01*
X111999998Y-61393498D01*
X112000000Y-61393498D01*
X112000002Y-61393498D01*
X112057021Y-61388509D01*
X112228087Y-61373543D01*
X112449243Y-61314284D01*
X112656749Y-61217523D01*
X112844300Y-61086198D01*
X113006198Y-60924300D01*
X113137523Y-60736749D01*
X113234284Y-60529243D01*
X113293543Y-60308087D01*
X113313498Y-60080000D01*
X113293543Y-59851913D01*
X113234284Y-59630757D01*
X113233170Y-59628369D01*
X113191106Y-59538160D01*
X113137523Y-59423251D01*
X113006198Y-59235700D01*
X112844300Y-59073802D01*
X112656749Y-58942477D01*
X112656745Y-58942475D01*
X112449249Y-58845718D01*
X112449238Y-58845714D01*
X112228089Y-58786457D01*
X112228081Y-58786456D01*
X112000002Y-58766502D01*
X111999998Y-58766502D01*
X111771918Y-58786456D01*
X111771910Y-58786457D01*
X111550761Y-58845714D01*
X111550750Y-58845718D01*
X111343254Y-58942475D01*
X111343252Y-58942476D01*
X111309137Y-58966364D01*
X111155700Y-59073802D01*
X111155698Y-59073803D01*
X111155695Y-59073806D01*
X110993806Y-59235695D01*
X110993803Y-59235698D01*
X110993802Y-59235700D01*
X110952904Y-59294108D01*
X110862476Y-59423252D01*
X110862475Y-59423254D01*
X110765718Y-59630750D01*
X110765714Y-59630761D01*
X110706457Y-59851910D01*
X110706456Y-59851918D01*
X110686502Y-60079998D01*
X110686502Y-60080001D01*
X105740673Y-60080001D01*
X105941205Y-60026269D01*
X105941219Y-60026264D01*
X106147366Y-59930136D01*
X106220359Y-59879024D01*
X105541335Y-59200000D01*
X105547549Y-59200000D01*
X105649282Y-59172741D01*
X105740494Y-59120080D01*
X105814968Y-59045606D01*
X105867629Y-58954394D01*
X105894888Y-58852661D01*
X105894888Y-58846447D01*
X106573912Y-59525471D01*
X106625024Y-59452478D01*
X106721152Y-59246331D01*
X106721157Y-59246317D01*
X106780027Y-59026610D01*
X106780029Y-59026599D01*
X106799854Y-58800002D01*
X106799854Y-58799997D01*
X106780029Y-58573400D01*
X106780027Y-58573389D01*
X106721157Y-58353682D01*
X106721152Y-58353668D01*
X106672813Y-58250005D01*
X134044859Y-58250005D01*
X134065385Y-58497729D01*
X134065387Y-58497738D01*
X134126412Y-58738717D01*
X134226266Y-58966364D01*
X134326564Y-59119882D01*
X135026212Y-58420234D01*
X135037482Y-58462292D01*
X135109890Y-58587708D01*
X135212292Y-58690110D01*
X135337708Y-58762518D01*
X135379765Y-58773787D01*
X134679942Y-59473609D01*
X134726768Y-59510055D01*
X134726770Y-59510056D01*
X134945385Y-59628364D01*
X134945396Y-59628369D01*
X135180506Y-59709083D01*
X135425707Y-59750000D01*
X135674293Y-59750000D01*
X135919493Y-59709083D01*
X136154603Y-59628369D01*
X136154614Y-59628364D01*
X136373228Y-59510057D01*
X136373231Y-59510055D01*
X136420056Y-59473609D01*
X135720234Y-58773787D01*
X135762292Y-58762518D01*
X135887708Y-58690110D01*
X135990110Y-58587708D01*
X136062518Y-58462292D01*
X136073787Y-58420235D01*
X136773434Y-59119882D01*
X136873731Y-58966369D01*
X136973587Y-58738717D01*
X137034612Y-58497738D01*
X137034614Y-58497729D01*
X137055141Y-58250005D01*
X140544859Y-58250005D01*
X140565385Y-58497729D01*
X140565387Y-58497738D01*
X140626412Y-58738717D01*
X140726266Y-58966364D01*
X140826564Y-59119882D01*
X141526212Y-58420234D01*
X141537482Y-58462292D01*
X141609890Y-58587708D01*
X141712292Y-58690110D01*
X141837708Y-58762518D01*
X141879765Y-58773787D01*
X141179942Y-59473609D01*
X141226768Y-59510055D01*
X141226770Y-59510056D01*
X141445385Y-59628364D01*
X141445396Y-59628369D01*
X141680506Y-59709083D01*
X141925707Y-59750000D01*
X142174293Y-59750000D01*
X142419493Y-59709083D01*
X142654603Y-59628369D01*
X142654614Y-59628364D01*
X142873228Y-59510057D01*
X142873231Y-59510055D01*
X142920056Y-59473609D01*
X142220234Y-58773787D01*
X142262292Y-58762518D01*
X142387708Y-58690110D01*
X142490110Y-58587708D01*
X142562518Y-58462292D01*
X142573787Y-58420235D01*
X143273434Y-59119882D01*
X143373731Y-58966369D01*
X143473587Y-58738717D01*
X143534612Y-58497738D01*
X143534614Y-58497729D01*
X143555141Y-58250005D01*
X143555141Y-58249994D01*
X143534614Y-58002270D01*
X143534612Y-58002261D01*
X143473587Y-57761282D01*
X143373731Y-57533630D01*
X143273434Y-57380116D01*
X142573787Y-58079764D01*
X142562518Y-58037708D01*
X142490110Y-57912292D01*
X142387708Y-57809890D01*
X142262292Y-57737482D01*
X142220235Y-57726212D01*
X142681442Y-57265005D01*
X159386673Y-57265005D01*
X159405948Y-57497622D01*
X159405948Y-57497625D01*
X159405949Y-57497626D01*
X159457197Y-57700000D01*
X159463251Y-57723907D01*
X159557015Y-57937668D01*
X159684686Y-58133084D01*
X159842776Y-58304814D01*
X159842780Y-58304818D01*
X160026983Y-58448190D01*
X160026985Y-58448191D01*
X160026988Y-58448193D01*
X160053041Y-58462292D01*
X160232273Y-58559287D01*
X160315060Y-58587708D01*
X160453045Y-58635079D01*
X160453047Y-58635079D01*
X160453049Y-58635080D01*
X160683288Y-58673500D01*
X160683289Y-58673500D01*
X160916711Y-58673500D01*
X160916712Y-58673500D01*
X161146951Y-58635080D01*
X161367727Y-58559287D01*
X161573017Y-58448190D01*
X161757220Y-58304818D01*
X161915314Y-58133083D01*
X162042984Y-57937669D01*
X162136749Y-57723907D01*
X162194051Y-57497626D01*
X162213327Y-57265000D01*
X162194051Y-57032374D01*
X162136749Y-56806093D01*
X162042984Y-56592331D01*
X161915316Y-56396919D01*
X161821926Y-56295471D01*
X161791004Y-56232816D01*
X161798864Y-56163390D01*
X161843011Y-56109235D01*
X161869824Y-56095306D01*
X161942084Y-56068355D01*
X161942093Y-56068350D01*
X162057187Y-55982190D01*
X162057190Y-55982187D01*
X162143350Y-55867093D01*
X162143354Y-55867086D01*
X162193596Y-55732379D01*
X162193598Y-55732372D01*
X162199999Y-55672844D01*
X162200000Y-55672827D01*
X162200000Y-54975000D01*
X161175278Y-54975000D01*
X161219333Y-54898694D01*
X161250000Y-54784244D01*
X161250000Y-54665756D01*
X161219333Y-54551306D01*
X161175278Y-54475000D01*
X162200000Y-54475000D01*
X162200000Y-53777172D01*
X162199999Y-53777155D01*
X162193598Y-53717627D01*
X162193596Y-53717620D01*
X162143354Y-53582913D01*
X162143350Y-53582906D01*
X162057190Y-53467812D01*
X162057187Y-53467809D01*
X161942093Y-53381649D01*
X161942086Y-53381645D01*
X161807379Y-53331403D01*
X161807372Y-53331401D01*
X161747844Y-53325000D01*
X161050000Y-53325000D01*
X161050000Y-54349722D01*
X160973694Y-54305667D01*
X160859244Y-54275000D01*
X160740756Y-54275000D01*
X160626306Y-54305667D01*
X160550000Y-54349722D01*
X160550000Y-53325000D01*
X159852155Y-53325000D01*
X159792627Y-53331401D01*
X159792620Y-53331403D01*
X159657913Y-53381645D01*
X159657906Y-53381649D01*
X159542812Y-53467809D01*
X159542809Y-53467812D01*
X159456649Y-53582906D01*
X159456645Y-53582913D01*
X159406403Y-53717620D01*
X159406401Y-53717627D01*
X159400000Y-53777155D01*
X159400000Y-54475000D01*
X160424722Y-54475000D01*
X160380667Y-54551306D01*
X160350000Y-54665756D01*
X160350000Y-54784244D01*
X160380667Y-54898694D01*
X160424722Y-54975000D01*
X159400000Y-54975000D01*
X159400000Y-55672844D01*
X159406401Y-55732372D01*
X159406403Y-55732379D01*
X159456645Y-55867086D01*
X159456649Y-55867093D01*
X159542809Y-55982187D01*
X159542812Y-55982190D01*
X159657906Y-56068350D01*
X159657915Y-56068355D01*
X159730175Y-56095306D01*
X159786109Y-56137177D01*
X159810527Y-56202641D01*
X159795676Y-56270914D01*
X159778073Y-56295470D01*
X159684686Y-56396916D01*
X159557015Y-56592331D01*
X159463251Y-56806092D01*
X159405948Y-57032377D01*
X159386673Y-57264994D01*
X159386673Y-57265005D01*
X142681442Y-57265005D01*
X142920057Y-57026390D01*
X142920056Y-57026389D01*
X142873229Y-56989943D01*
X142654614Y-56871635D01*
X142654603Y-56871630D01*
X142419493Y-56790916D01*
X142174293Y-56750000D01*
X141925707Y-56750000D01*
X141680506Y-56790916D01*
X141445396Y-56871630D01*
X141445390Y-56871632D01*
X141226761Y-56989949D01*
X141179942Y-57026388D01*
X141179942Y-57026390D01*
X141879765Y-57726212D01*
X141837708Y-57737482D01*
X141712292Y-57809890D01*
X141609890Y-57912292D01*
X141537482Y-58037708D01*
X141526212Y-58079764D01*
X140826564Y-57380116D01*
X140726267Y-57533632D01*
X140626412Y-57761282D01*
X140565387Y-58002261D01*
X140565385Y-58002270D01*
X140544859Y-58249994D01*
X140544859Y-58250005D01*
X137055141Y-58250005D01*
X137055141Y-58249994D01*
X137034614Y-58002270D01*
X137034612Y-58002261D01*
X136973587Y-57761282D01*
X136873731Y-57533630D01*
X136773434Y-57380116D01*
X136073787Y-58079764D01*
X136062518Y-58037708D01*
X135990110Y-57912292D01*
X135887708Y-57809890D01*
X135762292Y-57737482D01*
X135720235Y-57726212D01*
X136420057Y-57026390D01*
X136420056Y-57026389D01*
X136373229Y-56989943D01*
X136154614Y-56871635D01*
X136154603Y-56871630D01*
X135919493Y-56790916D01*
X135674293Y-56750000D01*
X135425707Y-56750000D01*
X135180506Y-56790916D01*
X134945396Y-56871630D01*
X134945390Y-56871632D01*
X134726761Y-56989949D01*
X134679942Y-57026388D01*
X134679942Y-57026390D01*
X135379765Y-57726212D01*
X135337708Y-57737482D01*
X135212292Y-57809890D01*
X135109890Y-57912292D01*
X135037482Y-58037708D01*
X135026212Y-58079764D01*
X134326564Y-57380116D01*
X134226267Y-57533632D01*
X134126412Y-57761282D01*
X134065387Y-58002261D01*
X134065385Y-58002270D01*
X134044859Y-58249994D01*
X134044859Y-58250005D01*
X106672813Y-58250005D01*
X106625024Y-58147521D01*
X106625020Y-58147513D01*
X106573913Y-58074526D01*
X105894888Y-58753551D01*
X105894888Y-58747339D01*
X105867629Y-58645606D01*
X105814968Y-58554394D01*
X105740494Y-58479920D01*
X105649282Y-58427259D01*
X105547549Y-58400000D01*
X105541336Y-58400000D01*
X106220360Y-57720974D01*
X106147366Y-57669863D01*
X105941219Y-57573735D01*
X105941205Y-57573730D01*
X105721498Y-57514860D01*
X105721487Y-57514858D01*
X105494890Y-57495034D01*
X105494886Y-57495034D01*
X105268288Y-57514858D01*
X105268277Y-57514860D01*
X105048570Y-57573730D01*
X105048561Y-57573734D01*
X104842404Y-57669866D01*
X104842400Y-57669868D01*
X104769414Y-57720973D01*
X104769414Y-57720974D01*
X105448441Y-58400000D01*
X105442227Y-58400000D01*
X105340494Y-58427259D01*
X105249282Y-58479920D01*
X105174808Y-58554394D01*
X105122147Y-58645606D01*
X105094888Y-58747339D01*
X105094888Y-58753552D01*
X104407798Y-58066463D01*
X104369693Y-58058804D01*
X104319511Y-58010188D01*
X104304853Y-57954600D01*
X104303847Y-57954653D01*
X104303744Y-57954665D01*
X104303743Y-57954659D01*
X104303565Y-57954669D01*
X104303387Y-57951345D01*
X104300045Y-57920270D01*
X104296877Y-57890799D01*
X104245777Y-57753796D01*
X104158149Y-57636739D01*
X104041092Y-57549111D01*
X103999592Y-57533632D01*
X103904091Y-57498011D01*
X103843542Y-57491500D01*
X103843526Y-57491500D01*
X102146250Y-57491500D01*
X102146233Y-57491500D01*
X102085685Y-57498011D01*
X102085683Y-57498011D01*
X101948683Y-57549111D01*
X101831627Y-57636739D01*
X101743999Y-57753795D01*
X101692899Y-57890795D01*
X101692899Y-57890797D01*
X101686388Y-57951345D01*
X101686388Y-59648654D01*
X100500500Y-59648654D01*
X100500500Y-55898654D01*
X116641500Y-55898654D01*
X116648011Y-55959202D01*
X116648011Y-55959204D01*
X116688722Y-56068350D01*
X116699111Y-56096204D01*
X116786739Y-56213261D01*
X116903796Y-56300889D01*
X117018297Y-56343596D01*
X117035463Y-56349999D01*
X117040799Y-56351989D01*
X117068050Y-56354918D01*
X117101345Y-56358499D01*
X117101362Y-56358500D01*
X118898638Y-56358500D01*
X118898654Y-56358499D01*
X118925692Y-56355591D01*
X118959201Y-56351989D01*
X118964537Y-56349999D01*
X118981703Y-56343596D01*
X119096204Y-56300889D01*
X119213261Y-56213261D01*
X119300889Y-56096204D01*
X119351989Y-55959201D01*
X119355591Y-55925692D01*
X119358499Y-55898654D01*
X119358500Y-55898637D01*
X119358500Y-55897844D01*
X121250000Y-55897844D01*
X121256401Y-55957372D01*
X121256403Y-55957379D01*
X121306645Y-56092086D01*
X121306649Y-56092093D01*
X121392809Y-56207187D01*
X121392812Y-56207190D01*
X121507906Y-56293350D01*
X121507913Y-56293354D01*
X121642620Y-56343596D01*
X121642627Y-56343598D01*
X121702155Y-56349999D01*
X121702172Y-56350000D01*
X122350000Y-56350000D01*
X122350000Y-55433012D01*
X122407007Y-55465925D01*
X122534174Y-55500000D01*
X122665826Y-55500000D01*
X122792993Y-55465925D01*
X122850000Y-55433012D01*
X122850000Y-56350000D01*
X123497828Y-56350000D01*
X123497844Y-56349999D01*
X123557372Y-56343598D01*
X123557379Y-56343596D01*
X123692086Y-56293354D01*
X123692093Y-56293350D01*
X123807187Y-56207190D01*
X123807190Y-56207187D01*
X123893350Y-56092093D01*
X123893354Y-56092086D01*
X123943596Y-55957379D01*
X123943598Y-55957372D01*
X123949999Y-55897844D01*
X123950000Y-55897827D01*
X123950000Y-55250000D01*
X123033012Y-55250000D01*
X123065925Y-55192993D01*
X123100000Y-55065826D01*
X123100000Y-54934174D01*
X123065925Y-54807007D01*
X123033012Y-54750000D01*
X123950000Y-54750000D01*
X123950000Y-54102172D01*
X123949999Y-54102155D01*
X123943598Y-54042627D01*
X123943596Y-54042620D01*
X123893354Y-53907913D01*
X123893350Y-53907906D01*
X123807190Y-53792812D01*
X123807187Y-53792809D01*
X123750002Y-53750000D01*
X134036835Y-53750000D01*
X134055465Y-53986714D01*
X134110895Y-54217595D01*
X134110895Y-54217597D01*
X134201757Y-54436959D01*
X134201759Y-54436962D01*
X134325820Y-54639410D01*
X134325821Y-54639413D01*
X134371583Y-54692993D01*
X134480031Y-54819969D01*
X134572206Y-54898694D01*
X134660586Y-54974178D01*
X134660589Y-54974179D01*
X134863037Y-55098240D01*
X134863040Y-55098242D01*
X135082403Y-55189104D01*
X135082404Y-55189104D01*
X135082406Y-55189105D01*
X135313289Y-55244535D01*
X135550000Y-55263165D01*
X135786711Y-55244535D01*
X136017594Y-55189105D01*
X136017596Y-55189104D01*
X136017597Y-55189104D01*
X136236959Y-55098242D01*
X136236960Y-55098241D01*
X136236963Y-55098240D01*
X136439416Y-54974176D01*
X136619969Y-54819969D01*
X136774176Y-54639416D01*
X136898240Y-54436963D01*
X136982518Y-54233498D01*
X136989104Y-54217597D01*
X136989104Y-54217596D01*
X136989105Y-54217594D01*
X137044535Y-53986711D01*
X137063165Y-53750000D01*
X140536835Y-53750000D01*
X140555465Y-53986714D01*
X140610895Y-54217595D01*
X140610895Y-54217597D01*
X140701757Y-54436959D01*
X140701759Y-54436962D01*
X140825820Y-54639410D01*
X140825821Y-54639413D01*
X140871583Y-54692993D01*
X140980031Y-54819969D01*
X141072206Y-54898694D01*
X141160586Y-54974178D01*
X141160589Y-54974179D01*
X141363037Y-55098240D01*
X141363040Y-55098242D01*
X141582403Y-55189104D01*
X141582404Y-55189104D01*
X141582406Y-55189105D01*
X141813289Y-55244535D01*
X142050000Y-55263165D01*
X142286711Y-55244535D01*
X142517594Y-55189105D01*
X142517596Y-55189104D01*
X142517597Y-55189104D01*
X142736959Y-55098242D01*
X142736960Y-55098241D01*
X142736963Y-55098240D01*
X142939416Y-54974176D01*
X143119969Y-54819969D01*
X143274176Y-54639416D01*
X143398240Y-54436963D01*
X143482518Y-54233498D01*
X143489104Y-54217597D01*
X143489104Y-54217596D01*
X143489105Y-54217594D01*
X143544535Y-53986711D01*
X143563165Y-53750000D01*
X143544535Y-53513289D01*
X143489105Y-53282406D01*
X143489104Y-53282403D01*
X143489104Y-53282402D01*
X143398242Y-53063040D01*
X143398240Y-53063037D01*
X143310587Y-52920001D01*
X149686502Y-52920001D01*
X149706456Y-53148081D01*
X149706457Y-53148089D01*
X149765714Y-53369238D01*
X149765718Y-53369249D01*
X149811679Y-53467812D01*
X149862477Y-53576749D01*
X149993802Y-53764300D01*
X150155700Y-53926198D01*
X150343251Y-54057523D01*
X150437228Y-54101345D01*
X150550750Y-54154281D01*
X150550752Y-54154281D01*
X150550757Y-54154284D01*
X150771913Y-54213543D01*
X150934832Y-54227796D01*
X150999998Y-54233498D01*
X151000000Y-54233498D01*
X151000002Y-54233498D01*
X151057021Y-54228509D01*
X151228087Y-54213543D01*
X151449243Y-54154284D01*
X151656749Y-54057523D01*
X151844300Y-53926198D01*
X152006198Y-53764300D01*
X152137523Y-53576749D01*
X152234284Y-53369243D01*
X152293543Y-53148087D01*
X152313498Y-52920001D01*
X154086502Y-52920001D01*
X154106456Y-53148081D01*
X154106457Y-53148089D01*
X154165714Y-53369238D01*
X154165718Y-53369249D01*
X154211679Y-53467812D01*
X154262477Y-53576749D01*
X154393802Y-53764300D01*
X154555700Y-53926198D01*
X154743251Y-54057523D01*
X154837228Y-54101345D01*
X154950750Y-54154281D01*
X154950752Y-54154281D01*
X154950757Y-54154284D01*
X155171913Y-54213543D01*
X155334832Y-54227796D01*
X155399998Y-54233498D01*
X155400000Y-54233498D01*
X155400002Y-54233498D01*
X155457021Y-54228509D01*
X155628087Y-54213543D01*
X155849243Y-54154284D01*
X156056749Y-54057523D01*
X156244300Y-53926198D01*
X156406198Y-53764300D01*
X156537523Y-53576749D01*
X156634284Y-53369243D01*
X156693543Y-53148087D01*
X156713498Y-52920000D01*
X156693543Y-52691913D01*
X156634284Y-52470757D01*
X156537523Y-52263251D01*
X156406198Y-52075700D01*
X156244300Y-51913802D01*
X156056749Y-51782477D01*
X156056745Y-51782475D01*
X155849249Y-51685718D01*
X155849238Y-51685714D01*
X155628089Y-51626457D01*
X155628081Y-51626456D01*
X155400002Y-51606502D01*
X155399998Y-51606502D01*
X155171918Y-51626456D01*
X155171910Y-51626457D01*
X154950761Y-51685714D01*
X154950750Y-51685718D01*
X154743254Y-51782475D01*
X154743252Y-51782476D01*
X154743251Y-51782477D01*
X154555700Y-51913802D01*
X154555698Y-51913803D01*
X154555695Y-51913806D01*
X154393806Y-52075695D01*
X154393803Y-52075698D01*
X154393802Y-52075700D01*
X154390026Y-52081093D01*
X154262476Y-52263252D01*
X154262475Y-52263254D01*
X154165718Y-52470750D01*
X154165714Y-52470761D01*
X154106457Y-52691910D01*
X154106456Y-52691918D01*
X154086502Y-52919998D01*
X154086502Y-52920001D01*
X152313498Y-52920001D01*
X152313498Y-52920000D01*
X152293543Y-52691913D01*
X152234284Y-52470757D01*
X152137523Y-52263251D01*
X152006198Y-52075700D01*
X151844300Y-51913802D01*
X151656749Y-51782477D01*
X151656745Y-51782475D01*
X151449249Y-51685718D01*
X151449238Y-51685714D01*
X151228089Y-51626457D01*
X151228081Y-51626456D01*
X151000002Y-51606502D01*
X150999998Y-51606502D01*
X150771918Y-51626456D01*
X150771910Y-51626457D01*
X150550761Y-51685714D01*
X150550750Y-51685718D01*
X150343254Y-51782475D01*
X150343252Y-51782476D01*
X150343251Y-51782477D01*
X150155700Y-51913802D01*
X150155698Y-51913803D01*
X150155695Y-51913806D01*
X149993806Y-52075695D01*
X149993803Y-52075698D01*
X149993802Y-52075700D01*
X149990026Y-52081093D01*
X149862476Y-52263252D01*
X149862475Y-52263254D01*
X149765718Y-52470750D01*
X149765714Y-52470761D01*
X149706457Y-52691910D01*
X149706456Y-52691918D01*
X149686502Y-52919998D01*
X149686502Y-52920001D01*
X143310587Y-52920001D01*
X143274179Y-52860589D01*
X143274178Y-52860586D01*
X143239340Y-52819797D01*
X143119969Y-52680031D01*
X142956007Y-52539994D01*
X142939413Y-52525821D01*
X142939410Y-52525820D01*
X142736962Y-52401759D01*
X142736959Y-52401757D01*
X142517596Y-52310895D01*
X142286714Y-52255465D01*
X142050000Y-52236835D01*
X141813285Y-52255465D01*
X141582404Y-52310895D01*
X141582402Y-52310895D01*
X141363040Y-52401757D01*
X141363037Y-52401759D01*
X141160589Y-52525820D01*
X141160586Y-52525821D01*
X140980031Y-52680031D01*
X140825821Y-52860586D01*
X140825820Y-52860589D01*
X140701759Y-53063037D01*
X140701757Y-53063040D01*
X140610895Y-53282402D01*
X140610895Y-53282404D01*
X140555465Y-53513285D01*
X140536835Y-53750000D01*
X137063165Y-53750000D01*
X137044535Y-53513289D01*
X136989105Y-53282406D01*
X136989104Y-53282403D01*
X136989104Y-53282402D01*
X136898242Y-53063040D01*
X136898240Y-53063037D01*
X136774179Y-52860589D01*
X136774178Y-52860586D01*
X136739340Y-52819797D01*
X136619969Y-52680031D01*
X136456007Y-52539994D01*
X136439413Y-52525821D01*
X136439410Y-52525820D01*
X136236962Y-52401759D01*
X136236959Y-52401757D01*
X136017596Y-52310895D01*
X135786714Y-52255465D01*
X135550000Y-52236835D01*
X135313285Y-52255465D01*
X135082404Y-52310895D01*
X135082402Y-52310895D01*
X134863040Y-52401757D01*
X134863037Y-52401759D01*
X134660589Y-52525820D01*
X134660586Y-52525821D01*
X134480031Y-52680031D01*
X134325821Y-52860586D01*
X134325820Y-52860589D01*
X134201759Y-53063037D01*
X134201757Y-53063040D01*
X134110895Y-53282402D01*
X134110895Y-53282404D01*
X134055465Y-53513285D01*
X134036835Y-53750000D01*
X123750002Y-53750000D01*
X123692093Y-53706649D01*
X123692086Y-53706645D01*
X123557379Y-53656403D01*
X123557372Y-53656401D01*
X123497844Y-53650000D01*
X122850000Y-53650000D01*
X122850000Y-54566988D01*
X122792993Y-54534075D01*
X122665826Y-54500000D01*
X122534174Y-54500000D01*
X122407007Y-54534075D01*
X122350000Y-54566988D01*
X122350000Y-53650000D01*
X121702155Y-53650000D01*
X121642627Y-53656401D01*
X121642620Y-53656403D01*
X121507913Y-53706645D01*
X121507906Y-53706649D01*
X121392812Y-53792809D01*
X121392809Y-53792812D01*
X121306649Y-53907906D01*
X121306645Y-53907913D01*
X121256403Y-54042620D01*
X121256401Y-54042627D01*
X121250000Y-54102155D01*
X121250000Y-54750000D01*
X122166988Y-54750000D01*
X122134075Y-54807007D01*
X122100000Y-54934174D01*
X122100000Y-55065826D01*
X122134075Y-55192993D01*
X122166988Y-55250000D01*
X121250000Y-55250000D01*
X121250000Y-55897844D01*
X119358500Y-55897844D01*
X119358500Y-54101362D01*
X119358499Y-54101345D01*
X119353787Y-54057523D01*
X119351989Y-54040799D01*
X119300889Y-53903796D01*
X119213261Y-53786739D01*
X119096204Y-53699111D01*
X118959203Y-53648011D01*
X118898654Y-53641500D01*
X118898638Y-53641500D01*
X117101362Y-53641500D01*
X117101345Y-53641500D01*
X117040797Y-53648011D01*
X117040795Y-53648011D01*
X116903795Y-53699111D01*
X116786739Y-53786739D01*
X116699111Y-53903795D01*
X116648011Y-54040795D01*
X116648011Y-54040797D01*
X116641500Y-54101345D01*
X116641500Y-55898654D01*
X100500500Y-55898654D01*
X100500500Y-52540005D01*
X103786673Y-52540005D01*
X103805948Y-52772622D01*
X103863251Y-52998907D01*
X103957015Y-53212668D01*
X104084686Y-53408084D01*
X104242776Y-53579814D01*
X104242780Y-53579818D01*
X104426983Y-53723190D01*
X104426985Y-53723191D01*
X104426988Y-53723193D01*
X104502948Y-53764300D01*
X104632273Y-53834287D01*
X104746914Y-53873643D01*
X104853045Y-53910079D01*
X104853047Y-53910079D01*
X104853049Y-53910080D01*
X105083288Y-53948500D01*
X105083289Y-53948500D01*
X105316711Y-53948500D01*
X105316712Y-53948500D01*
X105546951Y-53910080D01*
X105767727Y-53834287D01*
X105973017Y-53723190D01*
X106157220Y-53579818D01*
X106315314Y-53408083D01*
X106442984Y-53212669D01*
X106536749Y-52998907D01*
X106594051Y-52772626D01*
X106613327Y-52540000D01*
X106612152Y-52525824D01*
X106594051Y-52307377D01*
X106594051Y-52307374D01*
X106536749Y-52081093D01*
X106442984Y-51867331D01*
X106315316Y-51671919D01*
X106221926Y-51570471D01*
X106191004Y-51507816D01*
X106198864Y-51438390D01*
X106243011Y-51384235D01*
X106269824Y-51370306D01*
X106342084Y-51343355D01*
X106342093Y-51343350D01*
X106457187Y-51257190D01*
X106457190Y-51257187D01*
X106543350Y-51142093D01*
X106543354Y-51142086D01*
X106593596Y-51007379D01*
X106593598Y-51007372D01*
X106599999Y-50947844D01*
X106600000Y-50947827D01*
X106600000Y-50250000D01*
X105575278Y-50250000D01*
X105619333Y-50173694D01*
X105650000Y-50059244D01*
X105650000Y-49940756D01*
X105644439Y-49920001D01*
X110686502Y-49920001D01*
X110706456Y-50148081D01*
X110706457Y-50148089D01*
X110765714Y-50369238D01*
X110765718Y-50369249D01*
X110836688Y-50521444D01*
X110862477Y-50576749D01*
X110993802Y-50764300D01*
X111155700Y-50926198D01*
X111343251Y-51057523D01*
X111468091Y-51115736D01*
X111550750Y-51154281D01*
X111550752Y-51154281D01*
X111550757Y-51154284D01*
X111771913Y-51213543D01*
X111934832Y-51227796D01*
X111999998Y-51233498D01*
X112000000Y-51233498D01*
X112000002Y-51233498D01*
X112057021Y-51228509D01*
X112228087Y-51213543D01*
X112449243Y-51154284D01*
X112656749Y-51057523D01*
X112844300Y-50926198D01*
X113006198Y-50764300D01*
X113137523Y-50576749D01*
X113234284Y-50369243D01*
X113293543Y-50148087D01*
X113297868Y-50098654D01*
X117437500Y-50098654D01*
X117444011Y-50159202D01*
X117444011Y-50159204D01*
X117487689Y-50276306D01*
X117495111Y-50296204D01*
X117582739Y-50413261D01*
X117699796Y-50500889D01*
X117836799Y-50551989D01*
X117864050Y-50554918D01*
X117897345Y-50558499D01*
X117897362Y-50558500D01*
X119694638Y-50558500D01*
X119694654Y-50558499D01*
X119721692Y-50555591D01*
X119755201Y-50551989D01*
X119892204Y-50500889D01*
X120009261Y-50413261D01*
X120096889Y-50296204D01*
X120142138Y-50174887D01*
X120184009Y-50118956D01*
X120249474Y-50094539D01*
X120317746Y-50109391D01*
X120349545Y-50134236D01*
X120412760Y-50202906D01*
X120590424Y-50341189D01*
X120590425Y-50341189D01*
X120590427Y-50341191D01*
X120625350Y-50360090D01*
X120788426Y-50448342D01*
X121001365Y-50521444D01*
X121223431Y-50558500D01*
X121448569Y-50558500D01*
X121670635Y-50521444D01*
X121883574Y-50448342D01*
X122081576Y-50341189D01*
X122259240Y-50202906D01*
X122380594Y-50071082D01*
X122411715Y-50037276D01*
X122411715Y-50037275D01*
X122411722Y-50037268D01*
X122502193Y-49898790D01*
X122555338Y-49853437D01*
X122624569Y-49844013D01*
X122687905Y-49873515D01*
X122709804Y-49898787D01*
X122800278Y-50037268D01*
X122800283Y-50037273D01*
X122800284Y-50037276D01*
X122925868Y-50173694D01*
X122952760Y-50202906D01*
X123130424Y-50341189D01*
X123130425Y-50341189D01*
X123130427Y-50341191D01*
X123165350Y-50360090D01*
X123328426Y-50448342D01*
X123541365Y-50521444D01*
X123763431Y-50558500D01*
X123988569Y-50558500D01*
X124210635Y-50521444D01*
X124423574Y-50448342D01*
X124621576Y-50341189D01*
X124799240Y-50202906D01*
X124920594Y-50071082D01*
X124951715Y-50037276D01*
X124951715Y-50037275D01*
X124951722Y-50037268D01*
X125045749Y-49893347D01*
X125098894Y-49847994D01*
X125168125Y-49838570D01*
X125231461Y-49868072D01*
X125251130Y-49890048D01*
X125377890Y-50071078D01*
X125544917Y-50238105D01*
X125738421Y-50373600D01*
X125952507Y-50473429D01*
X125952516Y-50473433D01*
X126166000Y-50530634D01*
X126166000Y-49633012D01*
X126223007Y-49665925D01*
X126350174Y-49700000D01*
X126481826Y-49700000D01*
X126608993Y-49665925D01*
X126666000Y-49633012D01*
X126666000Y-50530633D01*
X126879483Y-50473433D01*
X126879492Y-50473429D01*
X127093578Y-50373600D01*
X127287082Y-50238105D01*
X127454105Y-50071082D01*
X127580868Y-49890048D01*
X127635445Y-49846423D01*
X127704944Y-49839231D01*
X127767298Y-49870753D01*
X127786251Y-49893350D01*
X127880276Y-50037265D01*
X127880284Y-50037276D01*
X128005868Y-50173694D01*
X128032760Y-50202906D01*
X128210424Y-50341189D01*
X128210425Y-50341189D01*
X128210427Y-50341191D01*
X128245350Y-50360090D01*
X128408426Y-50448342D01*
X128621365Y-50521444D01*
X128843431Y-50558500D01*
X129068569Y-50558500D01*
X129290635Y-50521444D01*
X129503574Y-50448342D01*
X129701576Y-50341189D01*
X129879240Y-50202906D01*
X130000594Y-50071082D01*
X130031715Y-50037276D01*
X130031715Y-50037275D01*
X130031722Y-50037268D01*
X130122193Y-49898790D01*
X130175338Y-49853437D01*
X130244569Y-49844013D01*
X130307905Y-49873515D01*
X130329804Y-49898787D01*
X130420278Y-50037268D01*
X130420283Y-50037273D01*
X130420284Y-50037276D01*
X130545868Y-50173694D01*
X130572760Y-50202906D01*
X130750424Y-50341189D01*
X130750425Y-50341189D01*
X130750427Y-50341191D01*
X130785350Y-50360090D01*
X130948426Y-50448342D01*
X131161365Y-50521444D01*
X131383431Y-50558500D01*
X131608569Y-50558500D01*
X131830635Y-50521444D01*
X132043574Y-50448342D01*
X132241576Y-50341189D01*
X132419240Y-50202906D01*
X132540594Y-50071082D01*
X132571715Y-50037276D01*
X132571715Y-50037275D01*
X132571722Y-50037268D01*
X132662193Y-49898790D01*
X132715338Y-49853437D01*
X132784569Y-49844013D01*
X132847905Y-49873515D01*
X132869804Y-49898787D01*
X132960278Y-50037268D01*
X132960283Y-50037273D01*
X132960284Y-50037276D01*
X133085868Y-50173694D01*
X133112760Y-50202906D01*
X133290424Y-50341189D01*
X133290425Y-50341189D01*
X133290427Y-50341191D01*
X133325350Y-50360090D01*
X133488426Y-50448342D01*
X133701365Y-50521444D01*
X133923431Y-50558500D01*
X134148569Y-50558500D01*
X134370635Y-50521444D01*
X134583574Y-50448342D01*
X134781576Y-50341189D01*
X134959240Y-50202906D01*
X135080594Y-50071082D01*
X135111715Y-50037276D01*
X135111715Y-50037275D01*
X135111722Y-50037268D01*
X135202193Y-49898790D01*
X135255338Y-49853437D01*
X135324569Y-49844013D01*
X135387905Y-49873515D01*
X135409804Y-49898787D01*
X135500278Y-50037268D01*
X135500283Y-50037273D01*
X135500284Y-50037276D01*
X135625868Y-50173694D01*
X135652760Y-50202906D01*
X135830424Y-50341189D01*
X135830425Y-50341189D01*
X135830427Y-50341191D01*
X135865350Y-50360090D01*
X136028426Y-50448342D01*
X136241365Y-50521444D01*
X136463431Y-50558500D01*
X136688569Y-50558500D01*
X136910635Y-50521444D01*
X137123574Y-50448342D01*
X137321576Y-50341189D01*
X137499240Y-50202906D01*
X137620594Y-50071082D01*
X137651715Y-50037276D01*
X137651715Y-50037275D01*
X137651722Y-50037268D01*
X137742193Y-49898790D01*
X137795338Y-49853437D01*
X137864569Y-49844013D01*
X137927905Y-49873515D01*
X137949804Y-49898787D01*
X138040278Y-50037268D01*
X138040283Y-50037273D01*
X138040284Y-50037276D01*
X138165868Y-50173694D01*
X138192760Y-50202906D01*
X138370424Y-50341189D01*
X138370425Y-50341189D01*
X138370427Y-50341191D01*
X138405350Y-50360090D01*
X138568426Y-50448342D01*
X138781365Y-50521444D01*
X139003431Y-50558500D01*
X139228569Y-50558500D01*
X139450635Y-50521444D01*
X139663574Y-50448342D01*
X139861576Y-50341189D01*
X140039240Y-50202906D01*
X140160594Y-50071082D01*
X140191715Y-50037276D01*
X140191715Y-50037275D01*
X140191722Y-50037268D01*
X140282193Y-49898790D01*
X140335338Y-49853437D01*
X140404569Y-49844013D01*
X140467905Y-49873515D01*
X140489804Y-49898787D01*
X140580278Y-50037268D01*
X140580283Y-50037273D01*
X140580284Y-50037276D01*
X140705868Y-50173694D01*
X140732760Y-50202906D01*
X140910424Y-50341189D01*
X140910425Y-50341189D01*
X140910427Y-50341191D01*
X140945350Y-50360090D01*
X141108426Y-50448342D01*
X141321365Y-50521444D01*
X141543431Y-50558500D01*
X141768569Y-50558500D01*
X141990635Y-50521444D01*
X142203574Y-50448342D01*
X142401576Y-50341189D01*
X142579240Y-50202906D01*
X142700594Y-50071082D01*
X142731715Y-50037276D01*
X142731717Y-50037273D01*
X142731722Y-50037268D01*
X142854860Y-49848791D01*
X142945296Y-49642616D01*
X143000564Y-49424368D01*
X143004987Y-49370995D01*
X143019156Y-49200005D01*
X143019156Y-49199994D01*
X143000565Y-48975640D01*
X143000563Y-48975628D01*
X142988447Y-48927784D01*
X142945296Y-48757384D01*
X142854860Y-48551209D01*
X142838706Y-48526484D01*
X142731723Y-48362734D01*
X142731715Y-48362723D01*
X142579243Y-48197097D01*
X142579238Y-48197092D01*
X142401577Y-48058812D01*
X142401572Y-48058808D01*
X142203580Y-47951661D01*
X142203577Y-47951659D01*
X142203574Y-47951658D01*
X142203571Y-47951657D01*
X142203569Y-47951656D01*
X141990637Y-47878556D01*
X141768569Y-47841500D01*
X141543431Y-47841500D01*
X141321362Y-47878556D01*
X141108430Y-47951656D01*
X141108419Y-47951661D01*
X140910427Y-48058808D01*
X140910422Y-48058812D01*
X140732761Y-48197092D01*
X140732756Y-48197097D01*
X140580284Y-48362723D01*
X140580276Y-48362734D01*
X140489808Y-48501206D01*
X140436662Y-48546562D01*
X140367431Y-48555986D01*
X140304095Y-48526484D01*
X140282192Y-48501206D01*
X140191723Y-48362734D01*
X140191715Y-48362723D01*
X140039243Y-48197097D01*
X140039238Y-48197092D01*
X139861577Y-48058812D01*
X139861572Y-48058808D01*
X139663580Y-47951661D01*
X139663577Y-47951659D01*
X139663574Y-47951658D01*
X139663571Y-47951657D01*
X139663569Y-47951656D01*
X139450637Y-47878556D01*
X139228569Y-47841500D01*
X139003431Y-47841500D01*
X138781362Y-47878556D01*
X138568430Y-47951656D01*
X138568419Y-47951661D01*
X138370427Y-48058808D01*
X138370422Y-48058812D01*
X138192761Y-48197092D01*
X138192756Y-48197097D01*
X138040284Y-48362723D01*
X138040276Y-48362734D01*
X137949808Y-48501206D01*
X137896662Y-48546562D01*
X137827431Y-48555986D01*
X137764095Y-48526484D01*
X137742192Y-48501206D01*
X137651723Y-48362734D01*
X137651715Y-48362723D01*
X137499243Y-48197097D01*
X137499238Y-48197092D01*
X137321577Y-48058812D01*
X137321572Y-48058808D01*
X137123580Y-47951661D01*
X137123577Y-47951659D01*
X137123574Y-47951658D01*
X137123571Y-47951657D01*
X137123569Y-47951656D01*
X136910637Y-47878556D01*
X136688569Y-47841500D01*
X136463431Y-47841500D01*
X136241362Y-47878556D01*
X136028430Y-47951656D01*
X136028419Y-47951661D01*
X135830427Y-48058808D01*
X135830422Y-48058812D01*
X135652761Y-48197092D01*
X135652756Y-48197097D01*
X135500284Y-48362723D01*
X135500276Y-48362734D01*
X135409808Y-48501206D01*
X135356662Y-48546562D01*
X135287431Y-48555986D01*
X135224095Y-48526484D01*
X135202192Y-48501206D01*
X135111723Y-48362734D01*
X135111715Y-48362723D01*
X134959243Y-48197097D01*
X134959238Y-48197092D01*
X134781577Y-48058812D01*
X134781572Y-48058808D01*
X134583580Y-47951661D01*
X134583577Y-47951659D01*
X134583574Y-47951658D01*
X134583571Y-47951657D01*
X134583569Y-47951656D01*
X134370637Y-47878556D01*
X134148569Y-47841500D01*
X133923431Y-47841500D01*
X133701362Y-47878556D01*
X133488430Y-47951656D01*
X133488419Y-47951661D01*
X133290427Y-48058808D01*
X133290422Y-48058812D01*
X133112761Y-48197092D01*
X133112756Y-48197097D01*
X132960284Y-48362723D01*
X132960276Y-48362734D01*
X132869808Y-48501206D01*
X132816662Y-48546562D01*
X132747431Y-48555986D01*
X132684095Y-48526484D01*
X132662192Y-48501206D01*
X132571723Y-48362734D01*
X132571715Y-48362723D01*
X132419243Y-48197097D01*
X132419238Y-48197092D01*
X132241577Y-48058812D01*
X132241572Y-48058808D01*
X132043580Y-47951661D01*
X132043577Y-47951659D01*
X132043574Y-47951658D01*
X132043571Y-47951657D01*
X132043569Y-47951656D01*
X131830637Y-47878556D01*
X131608569Y-47841500D01*
X131383431Y-47841500D01*
X131161362Y-47878556D01*
X130948430Y-47951656D01*
X130948419Y-47951661D01*
X130750427Y-48058808D01*
X130750422Y-48058812D01*
X130572761Y-48197092D01*
X130572756Y-48197097D01*
X130420284Y-48362723D01*
X130420276Y-48362734D01*
X130329808Y-48501206D01*
X130276662Y-48546562D01*
X130207431Y-48555986D01*
X130144095Y-48526484D01*
X130122192Y-48501206D01*
X130031723Y-48362734D01*
X130031715Y-48362723D01*
X129879243Y-48197097D01*
X129879238Y-48197092D01*
X129701577Y-48058812D01*
X129701572Y-48058808D01*
X129503580Y-47951661D01*
X129503577Y-47951659D01*
X129503574Y-47951658D01*
X129503571Y-47951657D01*
X129503569Y-47951656D01*
X129290637Y-47878556D01*
X129068569Y-47841500D01*
X128843431Y-47841500D01*
X128621362Y-47878556D01*
X128408430Y-47951656D01*
X128408419Y-47951661D01*
X128210427Y-48058808D01*
X128210422Y-48058812D01*
X128032761Y-48197092D01*
X128032756Y-48197097D01*
X127880284Y-48362723D01*
X127880276Y-48362734D01*
X127786251Y-48506650D01*
X127733105Y-48552007D01*
X127663873Y-48561430D01*
X127600538Y-48531928D01*
X127580868Y-48509951D01*
X127454113Y-48328926D01*
X127454108Y-48328920D01*
X127287082Y-48161894D01*
X127093578Y-48026399D01*
X126879492Y-47926570D01*
X126879486Y-47926567D01*
X126666000Y-47869364D01*
X126666000Y-48766988D01*
X126608993Y-48734075D01*
X126481826Y-48700000D01*
X126350174Y-48700000D01*
X126223007Y-48734075D01*
X126166000Y-48766988D01*
X126166000Y-47869364D01*
X126165999Y-47869364D01*
X125952513Y-47926567D01*
X125952507Y-47926570D01*
X125738422Y-48026399D01*
X125738420Y-48026400D01*
X125544926Y-48161886D01*
X125544920Y-48161891D01*
X125377891Y-48328920D01*
X125377890Y-48328922D01*
X125251131Y-48509952D01*
X125196554Y-48553577D01*
X125127055Y-48560769D01*
X125064701Y-48529247D01*
X125045752Y-48506656D01*
X124951722Y-48362732D01*
X124951715Y-48362725D01*
X124951715Y-48362723D01*
X124799243Y-48197097D01*
X124799238Y-48197092D01*
X124621577Y-48058812D01*
X124621572Y-48058808D01*
X124423580Y-47951661D01*
X124423577Y-47951659D01*
X124423574Y-47951658D01*
X124423571Y-47951657D01*
X124423569Y-47951656D01*
X124210637Y-47878556D01*
X123988569Y-47841500D01*
X123763431Y-47841500D01*
X123541362Y-47878556D01*
X123328430Y-47951656D01*
X123328419Y-47951661D01*
X123130427Y-48058808D01*
X123130422Y-48058812D01*
X122952761Y-48197092D01*
X122952756Y-48197097D01*
X122800284Y-48362723D01*
X122800276Y-48362734D01*
X122709808Y-48501206D01*
X122656662Y-48546562D01*
X122587431Y-48555986D01*
X122524095Y-48526484D01*
X122502192Y-48501206D01*
X122411723Y-48362734D01*
X122411715Y-48362723D01*
X122259243Y-48197097D01*
X122259238Y-48197092D01*
X122081577Y-48058812D01*
X122081572Y-48058808D01*
X121883580Y-47951661D01*
X121883577Y-47951659D01*
X121883574Y-47951658D01*
X121883571Y-47951657D01*
X121883569Y-47951656D01*
X121670637Y-47878556D01*
X121448569Y-47841500D01*
X121223431Y-47841500D01*
X121001362Y-47878556D01*
X120788430Y-47951656D01*
X120788419Y-47951661D01*
X120590427Y-48058808D01*
X120590422Y-48058812D01*
X120412761Y-48197092D01*
X120349548Y-48265760D01*
X120289661Y-48301750D01*
X120219823Y-48299649D01*
X120162207Y-48260124D01*
X120142138Y-48225110D01*
X120096889Y-48103796D01*
X120063214Y-48058812D01*
X120009261Y-47986739D01*
X119892204Y-47899111D01*
X119755203Y-47848011D01*
X119694654Y-47841500D01*
X119694638Y-47841500D01*
X117897362Y-47841500D01*
X117897345Y-47841500D01*
X117836797Y-47848011D01*
X117836795Y-47848011D01*
X117699795Y-47899111D01*
X117582739Y-47986739D01*
X117495111Y-48103795D01*
X117444011Y-48240795D01*
X117444011Y-48240797D01*
X117437500Y-48301345D01*
X117437500Y-50098654D01*
X113297868Y-50098654D01*
X113313498Y-49920000D01*
X113311166Y-49893350D01*
X113296323Y-49723694D01*
X113293543Y-49691913D01*
X113234284Y-49470757D01*
X113212648Y-49424359D01*
X113195736Y-49388091D01*
X113137523Y-49263251D01*
X113006198Y-49075700D01*
X112844300Y-48913802D01*
X112656749Y-48782477D01*
X112571687Y-48742812D01*
X112449249Y-48685718D01*
X112449238Y-48685714D01*
X112228089Y-48626457D01*
X112228081Y-48626456D01*
X112000002Y-48606502D01*
X111999998Y-48606502D01*
X111771918Y-48626456D01*
X111771910Y-48626457D01*
X111550761Y-48685714D01*
X111550750Y-48685718D01*
X111343254Y-48782475D01*
X111343252Y-48782476D01*
X111343251Y-48782477D01*
X111155700Y-48913802D01*
X111155698Y-48913803D01*
X111155695Y-48913806D01*
X110993806Y-49075695D01*
X110862476Y-49263252D01*
X110862475Y-49263254D01*
X110765718Y-49470750D01*
X110765714Y-49470761D01*
X110706457Y-49691910D01*
X110706456Y-49691918D01*
X110686502Y-49919998D01*
X110686502Y-49920001D01*
X105644439Y-49920001D01*
X105619333Y-49826306D01*
X105575278Y-49750000D01*
X106600000Y-49750000D01*
X106600000Y-49052172D01*
X106599999Y-49052155D01*
X106593598Y-48992627D01*
X106593596Y-48992620D01*
X106543354Y-48857913D01*
X106543350Y-48857906D01*
X106457190Y-48742812D01*
X106457187Y-48742809D01*
X106342093Y-48656649D01*
X106342086Y-48656645D01*
X106207379Y-48606403D01*
X106207372Y-48606401D01*
X106147844Y-48600000D01*
X105450000Y-48600000D01*
X105450000Y-49624722D01*
X105373694Y-49580667D01*
X105259244Y-49550000D01*
X105140756Y-49550000D01*
X105026306Y-49580667D01*
X104950000Y-49624722D01*
X104950000Y-48600000D01*
X104252155Y-48600000D01*
X104192627Y-48606401D01*
X104192620Y-48606403D01*
X104057913Y-48656645D01*
X104057906Y-48656649D01*
X103942812Y-48742809D01*
X103942809Y-48742812D01*
X103856649Y-48857906D01*
X103856645Y-48857913D01*
X103806403Y-48992620D01*
X103806401Y-48992627D01*
X103800000Y-49052155D01*
X103800000Y-49750000D01*
X104824722Y-49750000D01*
X104780667Y-49826306D01*
X104750000Y-49940756D01*
X104750000Y-50059244D01*
X104780667Y-50173694D01*
X104824722Y-50250000D01*
X103800000Y-50250000D01*
X103800000Y-50947844D01*
X103806401Y-51007372D01*
X103806403Y-51007379D01*
X103856645Y-51142086D01*
X103856649Y-51142093D01*
X103942809Y-51257187D01*
X103942812Y-51257190D01*
X104057906Y-51343350D01*
X104057915Y-51343355D01*
X104130175Y-51370306D01*
X104186109Y-51412177D01*
X104210527Y-51477641D01*
X104195676Y-51545914D01*
X104178073Y-51570470D01*
X104084686Y-51671916D01*
X103957015Y-51867331D01*
X103863251Y-52081092D01*
X103805948Y-52307377D01*
X103786673Y-52539994D01*
X103786673Y-52540005D01*
X100500500Y-52540005D01*
X100500500Y-47431757D01*
X100502025Y-47412370D01*
X100510228Y-47360580D01*
X100522211Y-47323700D01*
X100541529Y-47285785D01*
X100564326Y-47254409D01*
X100594409Y-47224326D01*
X100625785Y-47201529D01*
X100663700Y-47182211D01*
X100700580Y-47170228D01*
X100752370Y-47162025D01*
X100771757Y-47160500D01*
X100827892Y-47160500D01*
X163241324Y-47160500D01*
X163308363Y-47180185D01*
G37*
%TD.AperFunction*%
%TD*%
M02*
