%TF.GenerationSoftware,KiCad,Pcbnew,8.0.1*%
%TF.CreationDate,2024-05-26T21:20:36+02:00*%
%TF.ProjectId,SDHD_Lab,53444844-5f4c-4616-922e-6b696361645f,Rev 1.2*%
%TF.SameCoordinates,Original*%
%TF.FileFunction,Soldermask,Bot*%
%TF.FilePolarity,Negative*%
%FSLAX46Y46*%
G04 Gerber Fmt 4.6, Leading zero omitted, Abs format (unit mm)*
G04 Created by KiCad (PCBNEW 8.0.1) date 2024-05-26 21:20:36*
%MOMM*%
%LPD*%
G01*
G04 APERTURE LIST*
%ADD10R,1.600000X1.600000*%
%ADD11C,1.600000*%
%ADD12R,1.700000X1.700000*%
%ADD13O,1.700000X1.700000*%
%ADD14O,1.600000X1.600000*%
%ADD15R,1.800000X1.800000*%
%ADD16C,1.800000*%
%ADD17C,2.000000*%
G04 APERTURE END LIST*
D10*
%TO.C,C1*%
X102994888Y-58800000D03*
D11*
X105494888Y-58800000D03*
%TD*%
D12*
%TO.C,J12*%
X111200000Y-90875000D03*
D13*
X111200000Y-93415000D03*
X111200000Y-95955000D03*
%TD*%
D12*
%TO.C,J4*%
X122600000Y-55000000D03*
%TD*%
%TO.C,J8*%
X123400000Y-77600000D03*
%TD*%
D11*
%TO.C,R8*%
X112000000Y-60080000D03*
D14*
X112000000Y-49920000D03*
%TD*%
D12*
%TO.C,J11*%
X163400000Y-87000000D03*
%TD*%
D11*
%TO.C,R4*%
X151000000Y-52920000D03*
D14*
X151000000Y-63080000D03*
%TD*%
D11*
%TO.C,R5*%
X102920000Y-76200000D03*
D14*
X113080000Y-76200000D03*
%TD*%
D11*
%TO.C,R7 *%
X116520000Y-72200000D03*
D14*
X126680000Y-72200000D03*
%TD*%
D11*
%TO.C,C6*%
X130900000Y-67200000D03*
X135900000Y-67200000D03*
%TD*%
%TO.C,R9*%
X146800000Y-78680000D03*
D14*
X146800000Y-68520000D03*
%TD*%
D10*
%TO.C,C2*%
X103417621Y-83400000D03*
D11*
X105917621Y-83400000D03*
%TD*%
D12*
%TO.C,J2*%
X122600000Y-96200000D03*
%TD*%
D11*
%TO.C,R2*%
X102920000Y-70200000D03*
D14*
X113080000Y-70200000D03*
%TD*%
D10*
%TO.C,U1*%
X115600000Y-82800000D03*
D14*
X115600000Y-85340000D03*
X115600000Y-87880000D03*
X115600000Y-90420000D03*
X123220000Y-90420000D03*
X123220000Y-87880000D03*
X123220000Y-85340000D03*
X123220000Y-82800000D03*
%TD*%
D15*
%TO.C,D1*%
X160800000Y-54725000D03*
D16*
X160800000Y-57265000D03*
%TD*%
D12*
%TO.C,J6*%
X116800000Y-96200000D03*
%TD*%
D11*
%TO.C,C3*%
X118500000Y-64400000D03*
X123500000Y-64400000D03*
%TD*%
D15*
%TO.C,D4*%
X105200000Y-50000000D03*
D16*
X105200000Y-52540000D03*
%TD*%
D12*
%TO.C,J9*%
X129400000Y-77200000D03*
%TD*%
%TO.C,J10*%
X156000000Y-87000000D03*
%TD*%
D15*
%TO.C,D2*%
X161000000Y-63460000D03*
D16*
X161000000Y-66000000D03*
%TD*%
D12*
%TO.C,J5*%
X118000000Y-55000000D03*
%TD*%
D11*
%TO.C,R3*%
X155400000Y-52920000D03*
D14*
X155400000Y-63080000D03*
%TD*%
D17*
%TO.C,SW1*%
X142050000Y-58250000D03*
X135550000Y-58250000D03*
X142050000Y-53750000D03*
X135550000Y-53750000D03*
%TD*%
D12*
%TO.C,J3*%
X163000000Y-80600000D03*
%TD*%
D10*
%TO.C,C5*%
X127817621Y-88800000D03*
D11*
X130317621Y-88800000D03*
%TD*%
D12*
%TO.C,J7*%
X118800000Y-77600000D03*
%TD*%
D11*
%TO.C,R12*%
X154920000Y-92000000D03*
D14*
X165080000Y-92000000D03*
%TD*%
D15*
%TO.C,D3*%
X161000000Y-72125000D03*
D16*
X161000000Y-74665000D03*
%TD*%
D10*
%TO.C,U2*%
X142200000Y-83200000D03*
D14*
X142200000Y-85740000D03*
X142200000Y-88280000D03*
X142200000Y-90820000D03*
X149820000Y-90820000D03*
X149820000Y-88280000D03*
X149820000Y-85740000D03*
X149820000Y-83200000D03*
%TD*%
D11*
%TO.C,C4*%
X135400000Y-93900000D03*
X135400000Y-88900000D03*
%TD*%
%TO.C,R1*%
X113080000Y-65400000D03*
D14*
X102920000Y-65400000D03*
%TD*%
D11*
%TO.C,R11*%
X140800000Y-62520000D03*
D14*
X140800000Y-72680000D03*
%TD*%
D11*
%TO.C,R10*%
X135400000Y-85200000D03*
D14*
X135400000Y-75040000D03*
%TD*%
D12*
%TO.C,J1*%
X156800000Y-80800000D03*
%TD*%
D11*
%TO.C,R6*%
X152200000Y-68320000D03*
D14*
X152200000Y-78480000D03*
%TD*%
D12*
%TO.C,P1*%
X127940000Y-97460000D03*
D13*
X130480000Y-97460000D03*
X133020000Y-97460000D03*
X135560000Y-97460000D03*
X138100000Y-97460000D03*
X140640000Y-97460000D03*
X143180000Y-97460000D03*
X145720000Y-97460000D03*
%TD*%
D12*
%TO.C,P3*%
X150800000Y-97460000D03*
D13*
X153340000Y-97460000D03*
X155880000Y-97460000D03*
X158420000Y-97460000D03*
X160960000Y-97460000D03*
X163500000Y-97460000D03*
%TD*%
D12*
%TO.C,P2*%
X118796000Y-49200000D03*
D13*
X121336000Y-49200000D03*
X123876000Y-49200000D03*
X126416000Y-49200000D03*
X128956000Y-49200000D03*
X131496000Y-49200000D03*
X134036000Y-49200000D03*
X136576000Y-49200000D03*
X139116000Y-49200000D03*
X141656000Y-49200000D03*
%TD*%
D12*
%TO.C,P4*%
X145720000Y-49200000D03*
D13*
X148260000Y-49200000D03*
X150800000Y-49200000D03*
X153340000Y-49200000D03*
X155880000Y-49200000D03*
X158420000Y-49200000D03*
X160960000Y-49200000D03*
X163500000Y-49200000D03*
%TD*%
M02*
