M48
; DRILL file {KiCad 8.0.1} date 2024-05-26T21:20:38+0200
; FORMAT={-:-/ absolute / inch / decimal}
; #@! TF.CreationDate,2024-05-26T21:20:38+02:00
; #@! TF.GenerationSoftware,Kicad,Pcbnew,8.0.1
; #@! TF.FileFunction,Plated,1,4,PTH
FMAT,2
INCH
; #@! TA.AperFunction,Plated,PTH,ComponentDrill
T1C0.0315
; #@! TA.AperFunction,Plated,PTH,ComponentDrill
T2C0.0354
; #@! TA.AperFunction,Plated,PTH,ComponentDrill
T3C0.0394
; #@! TA.AperFunction,Plated,PTH,ComponentDrill
T4C0.0433
%
G90
G05
T1
X4.052Y-2.5748
X4.052Y-2.7638
X4.052Y-3.0
X4.0549Y-2.315
X4.0716Y-3.2835
X4.1533Y-2.315
X4.17Y-3.2835
X4.4094Y-1.9654
X4.4094Y-2.3654
X4.452Y-2.5748
X4.452Y-2.7638
X4.452Y-3.0
X4.5512Y-3.2598
X4.5512Y-3.3598
X4.5512Y-3.4598
X4.5512Y-3.5598
X4.5874Y-2.8425
X4.6654Y-2.5354
X4.8512Y-3.2598
X4.8512Y-3.3598
X4.8512Y-3.4598
X4.8512Y-3.5598
X4.8622Y-2.5354
X4.9874Y-2.8425
X5.0322Y-3.4961
X5.1306Y-3.4961
X5.1535Y-2.6457
X5.3307Y-2.9543
X5.3307Y-3.3543
X5.3307Y-3.5
X5.3307Y-3.6969
X5.3504Y-2.6457
X5.5433Y-2.4614
X5.5433Y-2.8614
X5.5984Y-3.2756
X5.5984Y-3.3756
X5.5984Y-3.4756
X5.5984Y-3.5756
X5.7795Y-2.6976
X5.7795Y-3.0976
X5.8984Y-3.2756
X5.8984Y-3.3756
X5.8984Y-3.4756
X5.8984Y-3.5756
X5.9449Y-2.0835
X5.9449Y-2.4835
X5.9921Y-2.6898
X5.9921Y-3.0898
X6.0992Y-3.622
X6.1181Y-2.0835
X6.1181Y-2.4835
X6.4992Y-3.622
T2
X4.1417Y-1.9685
X4.1417Y-2.0685
X6.3307Y-2.1545
X6.3307Y-2.2545
X6.3386Y-2.4984
X6.3386Y-2.5984
X6.3386Y-2.8396
X6.3386Y-2.9396
T3
X4.378Y-3.5778
X4.378Y-3.6778
X4.378Y-3.7778
X4.5984Y-3.7874
X4.6457Y-2.1654
X4.677Y-1.937
X4.6772Y-3.0551
X4.777Y-1.937
X4.8268Y-2.1654
X4.8268Y-3.7874
X4.8583Y-3.0551
X4.877Y-1.937
X4.977Y-1.937
X5.037Y-3.837
X5.077Y-1.937
X5.0945Y-3.0394
X5.137Y-3.837
X5.177Y-1.937
X5.237Y-3.837
X5.277Y-1.937
X5.337Y-3.837
X5.377Y-1.937
X5.437Y-3.837
X5.477Y-1.937
X5.537Y-3.837
X5.577Y-1.937
X5.637Y-3.837
X5.737Y-1.937
X5.737Y-3.837
X5.837Y-1.937
X5.937Y-1.937
X5.937Y-3.837
X6.037Y-1.937
X6.037Y-3.837
X6.137Y-1.937
X6.137Y-3.837
X6.1417Y-3.4252
X6.1732Y-3.1811
X6.237Y-1.937
X6.237Y-3.837
X6.337Y-1.937
X6.337Y-3.837
X6.4173Y-3.1732
X6.4331Y-3.4252
X6.437Y-1.937
X6.437Y-3.837
T4
X5.3366Y-2.1161
X5.3366Y-2.2933
X5.5925Y-2.1161
X5.5925Y-2.2933
M30
